<?xml version="1.0" standalone="no"?>
<!DOCTYPE svg PUBLIC "-//W3C//DTD SVG 1.1//EN" "http://www.w3.org/Graphics/SVG/1.1/DTD/svg11.dtd" >
<svg xmlns="http://www.w3.org/2000/svg">
<metadata>
This is a custom SVG webfont generated by Font Squirrel.
Copyright   : Copyright Ray Meadows 2009
Designer    : Ray Meadows
Foundry     : httpfontstructfontshopcom
Foundry URL : httpwwwfontshopcom
</metadata>
<defs>
<font id="RMTyperighterRegular" horiz-adv-x="624" >
<font-face units-per-em="2048" ascent="1638" descent="-410" />
<missing-glyph horiz-adv-x="432" />
<glyph unicode=" "  horiz-adv-x="432" />
<glyph unicode="&#x09;" horiz-adv-x="432" />
<glyph unicode="&#xa0;" horiz-adv-x="432" />
<glyph unicode="!" horiz-adv-x="224" d="M0 48v16l8 16l8 16l16 8l16 8h16l16 -8l16 -8l8 -16l8 -16v-16l-8 -16l-8 -16l-16 -8l-16 -8h-16l-16 8l-16 8l-8 16zM32 176v480q0 6 4 10q4 6 12 6h16q6 0 10 -6q6 -4 6 -10v-480l-8 -16h-32z" />
<glyph unicode="&#x22;" horiz-adv-x="352" d="M0 672v16l8 16l8 16l16 8l16 8h16l16 -8l16 -8l8 -16l8 -16v-16l-8 -16l-8 -16l-8 -16l-8 -16v-48l-8 -16l-8 -16h-16l-8 16l-8 16v48l-8 16l-8 16l-8 16zM128 672v16l8 16l8 16l16 8l16 8h16l16 -8l16 -8l8 -16l8 -16v-16l-8 -16l-8 -16l-8 -16l-8 -16v-48l-8 -16 l-8 -16h-16l-8 16l-8 16v48l-8 16l-8 16l-8 16z" />
<glyph unicode="#" horiz-adv-x="576" d="M32 264v24l16 8h76l4 8l8 16l8 16l8 16l8 16l4 8h-52l-16 8v24l16 8h72l8 16l8 16l8 16l8 16l8 16l8 16l8 16l8 16l8 8l8 8h24l8 -16l-8 -16l-8 -16l-8 -16l-8 -16l-8 -16l-8 -16l-8 -16l-8 -16h112l8 16l8 16l8 16l8 16l8 16l8 16l8 16l8 16l8 8l8 8h24l8 -16l-8 -16 l-8 -16l-8 -16l-8 -16l-8 -16l-8 -16l-8 -16l-8 -16h56l16 -8v-24l-16 -8h-76l-4 -8l-8 -16l-8 -16l-8 -16l-8 -16l-4 -8h52l16 -8v-24l-16 -8h-72l-8 -16l-8 -16l-8 -16l-8 -16l-8 -16l-8 -16l-8 -16l-8 -16h-2l-6 -8l-8 -8h-24l-8 16l8 16l8 16l8 16l8 16l8 16l8 16l8 16 l8 16h-112l-8 -16l-8 -16l-8 -16l-8 -16l-8 -16l-8 -16l-8 -16l-8 -16h-2l-6 -8l-8 -8h-24l-8 16l8 16l8 16l8 16l8 16l8 16l8 16l8 16l8 16h-56zM172 296h112l4 8l8 16l8 16l8 16l8 16l4 8h-112l-4 -8l-8 -16l-8 -16l-8 -16l-8 -16z" />
<glyph unicode="$" horiz-adv-x="496" d="M-16 464v32l8 16l8 16l8 16l8 16l16 16l16 16l16 16l16 8l16 8l16 8h48v24l8 16h32l8 -16v-24h16l16 -8l16 -8l16 -8l16 -16h8v32l8 16h32l8 -16v-144l-8 -16h-32l-8 16v32l-8 16l-8 16l-8 8l-8 8l-8 8l-16 8l-16 8l-16 8v-224h32l16 -8l16 -8l16 -8l16 -8l16 -16l16 -16 l16 -16l8 -16l8 -16l8 -16l8 -16v-48l-8 -16l-8 -16l-8 -16l-8 -16l-16 -16l-16 -16l-16 -16l-16 -8l-16 -8l-16 -8h-48v-24l-8 -16h-32l-8 16v24h-16l-16 8l-16 8l-16 8l-16 16l-16 16h-8v-48l-8 -16h-32l-8 16v176l8 16h32l8 -16v-32l8 -16l8 -16l8 -16l8 -16l8 -8v-2 l8 -6l8 -8l16 -8l16 -8l16 -8v248h-48l-16 8l-16 8l-16 8l-16 16l-16 16l-16 16l-8 16l-8 16l-8 16zM32 464l8 -16l8 -16l8 -16l8 -8v-2l8 -6l8 -8l16 -8l16 -8l16 -8h32v224h-32l-16 -8l-16 -8l-16 -8l-8 -8h-2l-6 -8l-8 -8l-8 -16l-8 -16l-8 -16v-32zM208 80h32l16 8l16 8 l16 8l8 8l8 8l8 8l8 16l8 16l8 16v48l-8 16l-8 16l-8 16l-8 8l-8 8l-8 8l-16 8l-16 8l-16 8l-16 8h-16v-248z" />
<glyph unicode="%" horiz-adv-x="528" d="M0 368v80l8 16l8 16l8 16l8 16l16 16l16 16l16 8l16 8h48l16 -8l16 -8l16 -8l16 -8h48l16 8l16 8l16 16l16 16l8 16l8 16h48l-8 -16l-8 -16l-8 -16l-8 -16l-8 -16l-8 -16l-8 -16l-8 -16l-8 -16l-8 -16l-8 -16l-8 -16l-8 -16l-8 -16l-8 -16l-8 -16l-8 -16l-8 -16l-8 -16 l-8 -16l-8 -16l-8 -16l-8 -16l-8 -16l-8 -16l-8 -16l-8 -16l-8 -16l-8 -16l-8 -16l-8 -16l-8 -16l-8 -16l-8 -16l-8 -16l-8 -16l-8 -16l-8 -16h-48l8 16l8 16l8 16l8 16l8 16l8 16l8 16l8 16l8 16l8 16l8 16l8 16l8 16l8 16l8 16l8 16l8 16l8 16l8 16l8 16l8 16l8 16l8 16 l8 16l8 16l8 16l8 16l8 16l8 16l8 16l8 16l2 4l-10 -4l-16 -8h-32l-16 8v-80l-8 -16l-8 -16l-8 -16l-8 -16l-16 -16l-16 -16l-16 -8l-16 -8h-48l-16 8l-16 8l-16 16l-8 16zM48 368l8 -16l8 -8l16 -8h16l16 8l16 8l8 16l8 16l8 16l8 16v80l-8 16l-8 8l-16 8h-16l-16 -8 l-16 -8l-8 -16l-8 -16l-8 -16l-8 -16v-80zM208 112v80l8 16l8 16l8 16l8 16l16 16l16 16l16 8l16 8h48l16 -8l16 -8l16 -16l8 -16l8 -16v-80l-8 -16l-8 -16l-8 -16l-8 -16l-16 -16l-16 -16l-16 -8l-16 -8h-48l-16 8l-16 8l-16 16l-8 16zM256 112l8 -16l8 -8l16 -8h16l16 8 l16 8l8 16l8 16l8 16l8 16v80l-8 16l-8 8l-16 8h-16l-16 -8l-16 -8l-8 -16l-8 -16l-8 -16l-8 -16v-80z" />
<glyph unicode="&#x26;" horiz-adv-x="648" d="M0 144v80l8 16l8 16l8 16l8 16l8 8l8 8l8 8l8 8l8 8l8 8l8 8l4 2l-4 6l-16 16l-8 16l-8 16l-8 16l-8 16v48l8 16l8 16l16 16l16 16l16 8l16 8h64l16 -8l16 -8l16 -16l16 -16l8 -16l8 -16v-64l-8 -16h-2l-6 -8l-8 -8h-2l-6 -8l-8 -8h-2l-6 -8l-16 -8l-16 -8l-16 -8l16 -16 l16 -16l16 -16l16 -16l16 -16l16 -16l16 -16l16 -16l16 -16l4 -6l4 6l8 16l8 16l8 16l8 16l8 8l8 8l8 8l8 8l8 8l16 8h16l16 -8v-2l8 -6l8 -16v-16l-8 -16h-2l-6 -8l-16 -8h-16l-16 8l-8 -8l-8 -16l-8 -16l-8 -16l-8 -16l-4 -6l12 -10l16 -16l16 -16l16 -16l16 -16l16 -16 h32l16 16l8 16l8 8l16 8h8l8 -16v-16l-8 -16l-8 -16l-16 -16l-16 -8l-16 -8h-32l-16 8l-16 8l-16 16l-16 16l-16 16l-16 16l-16 16l-8 -16h-2l-6 -8l-8 -8h-2l-6 -8l-8 -8h-2l-6 -8l-8 -8h-2l-6 -8l-8 -8h-2l-6 -8l-16 -8l-16 -8h-96l-16 8l-16 8l-8 8l-8 8l-8 8l-8 8l-8 8 l-8 8l-8 8l-8 16l-8 16l-8 16zM48 144l8 -16l8 -16l8 -16l16 -16l16 -16l16 -8l16 -8h64l16 8l16 8l16 16l16 16l16 16l8 16l8 16l-16 16l-16 16l-16 16l-16 16l-16 16l-16 16l-16 16l-16 16l-16 16l-16 16l-12 10l-4 -2l-16 -8l-16 -16l-16 -16l-8 -16l-8 -16l-8 -16v-80z M88 432l8 -16l8 -16l16 -16l16 -16l16 8l16 8l16 8l16 8l8 16l8 16v32l-8 16l-8 16l-16 16l-16 8h-32l-16 -8l-16 -16l-8 -16l-8 -16v-32z" />
<glyph unicode="'" horiz-adv-x="216" d="M0 520v16l16 8l16 16l8 16l8 16v32l-16 8l-16 8l-8 16l-8 16v16l8 16l8 16l16 8l16 8h16l16 -8l16 -8l8 -16l8 -16l8 -16v-32l-8 -16l-8 -16l-8 -16l-16 -16l-16 -16l-16 -16l-16 -8l-16 -8z" />
<glyph unicode="(" horiz-adv-x="336" d="M0 160v352l8 16l8 16l8 16l8 16l8 16l8 16l8 16l8 16l8 16l8 16l8 16l8 8l8 8l8 8l8 8l8 8l8 8l8 8l8 8l8 8l8 8l8 8l8 8l8 8l8 8l8 8l16 -8v-16l-8 -16l-8 -16l-16 -16l-16 -16l-16 -16l-16 -16l-16 -16l-8 -16l-8 -16l-8 -16l-8 -16l-8 -16l-8 -16l-8 -16l-8 -16 l-8 -16l-8 -16v-352l8 -16l8 -16l8 -16l8 -16l8 -16l8 -16l8 -16l8 -16l8 -16l8 -16l16 -16l16 -16l16 -16l16 -16l16 -16l8 -16l8 -16v-16l-16 -8v2l-8 6l-8 8v2l-8 6l-8 8v2l-8 6l-8 8v2l-8 6l-8 8v2l-8 6l-8 8v2l-8 6l-8 8v2l-8 6l-8 8v2l-8 6l-8 16l-8 16l-8 16l-8 16 l-8 16l-8 16l-8 16l-8 16l-8 16l-8 16z" />
<glyph unicode=")" horiz-adv-x="336" d="M0 -112l8 16l8 16l16 16l16 16l16 16l16 16l16 16l8 16l8 16l8 16l8 16l8 16l8 16l8 16l8 16l8 16l8 16v352l-8 16l-8 16l-8 16l-8 16l-8 16l-8 16l-8 16l-8 16l-8 16l-8 16l-16 16l-16 16l-16 16l-16 16l-16 16l-8 16l-8 16v16l14 6v2h2v-2l8 -6l8 -8v-2l8 -6l8 -8v-2 l8 -6l8 -8v-2l8 -6l8 -8v-2l8 -6l8 -8v-2l8 -6l8 -8v-2l8 -6l8 -8v-2l8 -6l8 -16l8 -16l8 -16l8 -16l8 -16l8 -16l8 -16l8 -16l8 -16l8 -16l8 -16v-352l-8 -16l-8 -16l-8 -16l-8 -16l-8 -16l-8 -16l-8 -16l-8 -16l-8 -16l-8 -16l-8 -16h-2l-6 -8l-8 -8h-2l-6 -8l-8 -8h-2 l-6 -8l-8 -8h-2l-6 -8l-8 -8h-2l-6 -8l-8 -8h-2l-6 -8l-8 -8h-2l-6 -8l-8 -8h-2l-6 -8l-16 8v16z" />
<glyph unicode="*" horiz-adv-x="352" d="M0 624v32l16 8h68l-4 8l-8 16l-8 16l-8 16l-8 16l16 16h24l8 -16l8 -16l8 -16l8 -16l8 16l8 16l8 16l8 16h24l16 -16l-8 -16l-8 -16l-8 -16l-8 -16l-4 -8h68l16 -8v-32l-16 -8h-68l4 -8l8 -16l8 -16l8 -16l8 -16l-16 -16h-24l-8 16l-8 16l-8 16l-8 16l-8 -16l-8 -16 l-8 -16l-8 -16h-24l-16 16l8 16l8 16l8 16l8 16l4 8h-68z" />
<glyph unicode="+" horiz-adv-x="448" d="M0 320v24l16 8h128v128l8 16h32l8 -16v-128h128l16 -8v-24l-16 -8h-128v-120l-8 -16h-32l-8 16v120h-128z" />
<glyph unicode="," horiz-adv-x="216" d="M0 48v16l8 16l8 16l16 8l16 8h16l16 -8l16 -8l8 -16l8 -16l8 -16v-32l-8 -16l-8 -16l-8 -16l-16 -16l-16 -16l-16 -16l-16 -8l-16 -8l-16 -8v16l16 8l16 16l8 16l8 16v32l-16 8l-16 8l-8 16z" />
<glyph unicode="-" horiz-adv-x="448" d="M0 320v24l16 8h304l16 -8v-24l-16 -8h-304z" />
<glyph unicode="." horiz-adv-x="224" d="M0 48v16l8 16l8 16l16 8l16 8h16l16 -8l16 -8l8 -16l8 -16v-16l-8 -16l-8 -16l-16 -8l-16 -8h-16l-16 8l-16 8l-8 16z" />
<glyph unicode="/" horiz-adv-x="464" d="M0 16l8 16l8 16l8 16l8 16l8 16l8 16l8 16l8 16l8 16l8 16l8 16l8 16l8 16l8 16l8 16l8 16l8 16l8 16l8 16l8 16l8 16l8 16l8 16l8 16l8 16l8 16l8 16l8 16l8 16l8 16l8 16l8 16l8 16l8 16l8 16l8 16l8 16l8 16l8 16l8 16l8 8l8 8h24l8 -16l-8 -16l-8 -16l-8 -16l-8 -16 l-8 -16l-8 -16l-8 -16l-8 -16l-8 -16l-8 -16l-8 -16l-8 -16l-8 -16l-8 -16l-8 -16l-8 -16l-8 -16l-8 -16l-8 -16l-8 -16l-8 -16l-8 -16l-8 -16l-8 -16l-8 -16l-8 -16l-8 -16l-8 -16l-8 -16l-8 -16l-8 -16l-8 -16l-8 -16l-8 -16l-8 -16l-8 -16l-8 -16l-8 -16l-8 -16l-8 -16 h-2l-6 -8l-8 -8h-24z" />
<glyph unicode="0" horiz-adv-x="576" d="M-16 208v256l8 16l8 16l8 16l8 16l8 16l8 16l8 16l16 16l16 16l16 16l16 16l16 8l16 8l16 8l16 8l16 8h96l16 -8l16 -8l16 -8l16 -8l16 -8l16 -16l16 -16l16 -16l16 -16l8 -16l8 -16l8 -16l8 -16l8 -16l8 -16l8 -16v-256l-8 -16l-8 -16l-8 -16l-8 -16l-8 -16l-8 -16 l-8 -16l-16 -16l-16 -16l-16 -16l-16 -16l-16 -8l-16 -8l-16 -8l-16 -8l-16 -8h-96l-16 8l-16 8l-16 8l-16 8l-16 8l-16 16l-16 16l-16 16l-16 16l-8 16l-8 16l-8 16l-8 16l-8 16l-8 16zM32 208l8 -16l8 -16l8 -16l8 -16l8 -16l8 -16l8 -8v-2l8 -6l8 -8v-2l8 -6l8 -8l16 -8 l16 -8l16 -8l16 -8l16 -8h64l16 8l16 8l16 8l16 8l16 8l8 8l8 8l8 8l8 8l8 8l8 16l8 16l8 16l8 16l8 16l8 16v256l-8 16l-8 16l-8 16l-8 16l-8 16l-8 16l-8 8l-8 8l-8 8l-8 8l-8 8l-16 8l-16 8l-16 8l-16 8l-16 8h-64l-16 -8l-16 -8l-16 -8l-16 -8l-16 -8l-8 -8h-2l-6 -8 l-8 -8h-2l-6 -8l-8 -8l-8 -16l-8 -16l-8 -16l-8 -16l-8 -16l-8 -16v-256z" />
<glyph unicode="1" horiz-adv-x="480" d="M0 8v24l16 8h144v584l-16 -8l-16 -8l-16 -8l-16 -8l-16 -8l-16 -8l-16 -8l-16 -8h-24l-8 16l8 16l8 8l16 8l16 8l16 8l16 8l16 8l16 8l16 8l16 8l16 8h32q6 0 10 -6q6 -4 6 -10v-616h144l16 -8v-24l-16 -8h-336z" />
<glyph unicode="2" horiz-adv-x="592" d="M0 0v96l8 16l8 16l8 16l8 16l16 16l16 16l16 16l16 16l16 16l16 8l16 8l16 8l16 8l16 8l16 8l16 8l16 8l16 8l16 8l16 8l16 8l16 8l16 8l16 8l8 8l8 8l8 8l8 8l8 8l8 16l8 16l8 16v64l-8 16l-8 16l-8 16l-8 8l-8 8l-8 8l-8 8l-8 8l-16 8l-16 8l-16 8l-16 8l-16 8h-64 l-16 -8l-16 -8l-16 -8l-16 -8l-16 -8l-8 -8h-2l-6 -8l-8 -8h-2l-6 -8l-8 -8l-8 -16l-8 -16l-8 -16l-8 -16l-8 -16l-16 -16h-16l-8 16v16l8 16l8 16l8 16l8 16l8 16l16 16l16 16l16 16l16 16l16 8l16 8l16 8l16 8l16 8h96l16 -8l16 -8l16 -8l16 -8l16 -8l16 -16l16 -16 l16 -16l16 -16l8 -16l8 -16l8 -16l8 -16v-64l-8 -16l-8 -16l-8 -16l-8 -16l-8 -16h-2l-6 -8l-8 -8h-2l-6 -8l-8 -8h-2l-6 -8l-16 -8l-16 -8l-16 -8l-16 -8l-16 -8l-16 -8l-16 -8l-16 -8l-16 -8l-16 -8l-16 -8l-16 -8l-16 -8l-16 -8l-16 -8l-16 -16l-16 -16l-16 -16l-16 -16 l-8 -16l-8 -16l-8 -16l-8 -16v-40h416l16 -8v-24l-16 -8h-464z" />
<glyph unicode="3" horiz-adv-x="568" d="M0 560l8 16l16 16l16 16l16 16l16 16l16 8l16 8l16 8l16 8l16 8h112l16 -8l16 -8l16 -8l16 -8l16 -8l16 -16l16 -16l16 -16l16 -16l8 -16l8 -16l8 -16l8 -16v-48l-8 -16l-8 -16l-8 -16l-8 -16l-8 -16h-2l-6 -8l-8 -8h-2l-6 -8l-16 -8l-16 -8l-16 -8l-16 -8l16 -8l16 -8 l16 -8l16 -16l16 -16l16 -16l16 -16l8 -16l8 -16l8 -16l8 -16v-80l-8 -16l-8 -16l-8 -16l-8 -16l-8 -16l-8 -16l-8 -16h-2l-6 -8l-8 -8h-2l-6 -8l-8 -8h-2l-6 -8l-16 -8l-16 -8l-16 -8l-16 -8l-16 -8h-176l-16 8l-16 8l-16 8l-16 8l-16 8v2l-8 6l-8 8v24l16 8h16l8 -8l8 -8 l16 -8l16 -8l16 -8l16 -8h144l16 8l16 8l16 8l16 8l8 8l8 8l8 8l8 8l8 8l8 16l8 16l8 16l8 16l8 16v80l-8 16l-8 16l-8 16l-8 8l-8 8l-8 8l-8 8l-8 8l-16 8l-16 8l-16 8l-16 8l-16 8l-16 8h-64l-16 8v24l16 8h80l16 8l16 8l16 8l16 8l16 8l8 8l8 8l8 8l8 16l8 16l8 16v48 l-8 16l-8 16l-8 16l-8 8l-8 8l-8 8l-8 8l-8 8l-16 8l-16 8l-16 8l-16 8l-16 8h-80l-16 -8l-16 -8l-16 -8l-16 -8l-16 -8l-8 -8h-2l-6 -8l-8 -8h-2l-6 -8l-8 -8l-8 -16l-16 -8l-16 8z" />
<glyph unicode="4" horiz-adv-x="568" d="M0 144l8 16l8 16l8 16l8 16l8 16l8 16l8 16l8 16l8 16l8 16l8 16v288l-8 16l-8 16l-8 16l-8 16l-8 16l-8 16l-8 16l-8 16l-8 16l8 8l8 8h8l16 -8v-2l8 -6l8 -16l8 -16l8 -16l8 -16l8 -16l8 -16l8 -16l8 -16l8 -16v-288l-8 -16l-8 -16l-8 -16l-8 -16l-8 -16l-8 -16l-8 -16 l-8 -16l-8 -16l-4 -8h236v312q0 6 4 10q4 6 12 6h16q6 0 10 -6q6 -4 6 -10v-312h96l16 -8v-24l-16 -8h-96v-112q0 -8 -6 -12q-4 -4 -10 -4h-16q-8 0 -12 4t-4 12v112h-288z" />
<glyph unicode="5" horiz-adv-x="528" d="M0 384v272q0 6 4 10q4 6 12 6h384l16 -8v-24l-16 -8h-352v-216l16 8l16 8l16 8h144l16 -8l16 -8l16 -8l16 -8l16 -8l16 -16l16 -16l16 -16l16 -16l8 -16l8 -16l8 -16l8 -16v-48l-8 -16l-8 -16l-8 -16l-8 -16l-8 -16l-8 -16l-8 -16l-8 -16l-8 -16h-2l-6 -8l-8 -8h-2l-6 -8 l-8 -8h-2l-6 -8l-8 -8h-2l-6 -8l-8 -8h-2l-6 -8l-8 -8h-2l-6 -8l-8 -8h-2l-6 -8l-16 -8l-16 -8l-16 -8l-16 -8l-16 -8l-16 -8l-16 -8l-16 -8l-16 -8h-64l-16 8v32l16 8h64l16 8l16 8l16 8l16 8l16 8l16 8l16 8l8 8l8 8l8 8l8 8l8 8l8 8l8 8l8 8l8 8l8 8l8 8l8 8l8 8l8 16 l8 16l8 16l8 16l8 16l8 16l8 16v48l-8 16l-8 16l-8 16l-8 8l-8 8l-8 8l-8 8l-8 8l-16 8l-16 8l-16 8l-16 8l-16 8h-112l-16 -8l-16 -8l-16 -8l-16 -8h-32q-8 0 -12 4t-4 12z" />
<glyph unicode="6" horiz-adv-x="560" d="M-16 176v224l8 16l8 16l8 16l8 16l8 16l8 16l8 16l8 16l8 16l8 16l8 16l16 16l16 16l16 16l16 16l16 16l16 16l16 16l16 8l16 8l16 8l16 8l16 8l16 8l16 8l16 8l16 8l16 8h16q6 0 10 -6q6 -4 6 -10v-16q0 -8 -6 -12q-4 -4 -10 -4h-16l-16 -8l-16 -8l-16 -8l-16 -8l-16 -8 l-16 -8l-16 -8l-16 -8l-16 -16l-16 -16l-16 -16l-16 -16l-16 -16l-16 -16l-16 -16l-8 -16l-8 -16l-8 -16l-8 -16l-8 -16l-8 -16l-8 -16l-8 -16l-8 -16v-24l8 8l16 16l16 16l16 16l16 8l16 8l16 8l16 8l16 8h112l16 -8l16 -8l16 -8l16 -8l16 -8l16 -16l16 -16l16 -16l16 -16 l8 -16l8 -16l8 -16l8 -16l8 -16v-112l-8 -16l-8 -16l-8 -16l-8 -16l-8 -16l-16 -16l-16 -16l-16 -16l-16 -16l-16 -8l-16 -8l-16 -8l-16 -8l-16 -8h-112l-16 8l-16 8l-16 8l-16 8l-16 8l-16 16l-16 16l-16 16l-16 16l-8 16l-8 16l-8 16l-8 16zM32 176l8 -16l8 -16l8 -16 l16 -16l16 -16l16 -16l16 -16l16 -8l16 -8l16 -8l16 -8h80l16 8l16 8l16 8l16 8l16 16l16 16l16 16l16 16l8 16l8 16l8 16v112l-8 16l-8 16l-8 16l-16 16l-16 16l-16 16l-16 16l-16 8l-16 8l-16 8l-16 8h-80l-16 -8l-16 -8l-16 -8l-16 -8l-16 -16l-16 -16l-16 -16l-16 -16 l-8 -16l-8 -16l-8 -16v-112z" />
<glyph unicode="7" horiz-adv-x="576" d="M0 640v24l16 8h432q6 0 10 -6q6 -4 6 -10v-16l-16 -16l-16 -16l-16 -16l-16 -16l-16 -16l-16 -16l-16 -16l-8 -16l-8 -16l-8 -16l-8 -16l-8 -16l-8 -16l-8 -16l-8 -16l-8 -16l-8 -16l-8 -16l-8 -16l-8 -16l-8 -16v-384q0 -6 -6 -10q-4 -6 -10 -6h-16q-8 0 -12 6 q-4 4 -4 10v384l8 16l8 16l8 16l8 16l8 16l8 16l8 16l8 16l8 16l8 16l8 16l8 16l8 16l8 16l8 16l8 8l8 8l8 8l8 8l8 8l8 8l8 8l8 8l8 8l8 8l8 8h-384z" />
<glyph unicode="8" horiz-adv-x="568" d="M-96 760q0 2 4 4q2 4 4 4q4 0 6 -4q2 -2 2 -4q0 -4 -2 -6t-6 -2q-2 0 -4 2q-4 2 -4 6zM-8 176v128l8 16l8 16l8 16l8 16l8 16l16 16l16 16l16 16l16 16l16 8l16 8l10 4l-10 12l-16 16l-16 16l-8 16l-8 16l-8 16v96l8 16l8 16l8 16l16 16l16 16l16 16l16 8l16 8l16 8h80 l16 -8l16 -8l16 -8l16 -16l16 -16l16 -16l8 -16l8 -16l8 -16v-96l-8 -16l-8 -16l-8 -16l-16 -16l-16 -16l-12 -12l12 -4l16 -8l16 -8l16 -16l16 -16l16 -16l16 -16l8 -16l8 -16l8 -16l8 -16l8 -16v-128l-8 -16l-8 -16l-8 -16l-8 -16l-8 -16l-16 -16l-16 -16l-16 -16l-16 -16 l-16 -8l-16 -8l-16 -8l-16 -8l-16 -8h-112l-16 8l-16 8l-16 8l-16 8l-16 8l-16 16l-16 16l-16 16l-16 16l-8 16l-8 16l-8 16l-8 16zM40 176l8 -16l8 -16l8 -16l16 -16l16 -16l16 -16l16 -16l16 -8l16 -8l16 -8l16 -8h80l16 8l16 8l16 8l16 8l16 16l16 16l16 16l16 16l8 16 l8 16l8 16v128l-8 16l-8 16l-8 16l-16 16l-16 16l-16 16l-16 16l-16 8l-16 8l-16 8l-16 8h-80l-16 -8l-16 -8l-16 -8l-16 -8l-16 -16l-16 -16l-16 -16l-16 -16l-8 -16l-8 -16l-8 -16v-128zM120 560l8 -16l16 -16l16 -16l16 -16l16 -8h80l16 8l16 16l16 16l16 16l8 16v96 l-8 16l-16 16l-16 16l-16 16l-16 8l-16 8h-48l-16 -8l-16 -8l-16 -16l-16 -16l-16 -16l-8 -16v-96z" />
<glyph unicode="9" horiz-adv-x="560" d="M-16 384v112l8 16l8 16l8 16l8 16l8 16l16 16l16 16l16 16l16 16l16 8l16 8l16 8l16 8l16 8h112l16 -8l16 -8l16 -8l16 -8l16 -8l16 -16l16 -16l16 -16l16 -16l8 -16l8 -16l8 -16l8 -16l8 -16v-256l-8 -16l-8 -16l-8 -16l-8 -16l-8 -16l-8 -16l-8 -16l-8 -16l-8 -16 l-8 -16h-2l-6 -8l-8 -8h-2l-6 -8l-8 -8h-2l-6 -8l-8 -8h-2l-6 -8l-8 -8h-2l-6 -8l-8 -8h-2l-6 -8l-8 -8h-2l-6 -8l-16 -8l-16 -8l-16 -8l-16 -8l-16 -8l-16 -8l-16 -8l-16 -8l-16 -8h-64l-16 8v32l16 8h64l16 8l16 8l16 8l16 8l16 8l16 8l16 8l8 8l8 8l8 8l8 8l8 8l8 8l8 8 l8 8l8 8l8 8l8 8l8 8l8 8l8 16l8 16l8 16l8 16l8 16l8 16l8 16l8 16v56l-8 -8l-16 -16l-16 -16l-16 -16l-16 -8l-16 -8l-16 -8l-16 -8l-16 -8h-112l-16 8l-16 8l-16 8l-16 8l-16 8l-16 16l-16 16l-16 16l-16 16l-8 16l-8 16l-8 16l-8 16zM32 384l8 -16l8 -16l8 -16l16 -16 l16 -16l16 -16l16 -16l16 -8l16 -8l16 -8l16 -8h80l16 8l16 8l16 8l16 8l16 16l16 16l16 16l16 16l8 16l8 16l8 16v112l-8 16l-8 16l-8 16l-16 16l-16 16l-16 16l-16 16l-16 8l-16 8l-16 8l-16 8h-80l-16 -8l-16 -8l-16 -8l-16 -8l-16 -16l-16 -16l-16 -16l-16 -16l-8 -16 l-8 -16l-8 -16v-112z" />
<glyph unicode=":" horiz-adv-x="224" d="M0 48v16l8 16l8 16l16 8l16 8h16l16 -8l16 -8l8 -16l8 -16v-16l-8 -16l-8 -16l-16 -8l-16 -8h-16l-16 8l-16 8l-8 16zM0 336v16l8 16l8 16l16 8l16 8h16l16 -8l16 -8l8 -16l8 -16v-16l-8 -16l-8 -16l-16 -8l-16 -8h-16l-16 8l-16 8l-8 16z" />
<glyph unicode=";" horiz-adv-x="216" d="M0 48v16l8 16l8 16l16 8l16 8h16l16 -8l16 -8l8 -16l8 -16l8 -16v-32l-8 -16l-8 -16l-8 -16l-16 -16l-16 -16l-16 -16l-16 -8l-16 -8l-16 -8v16l16 8l16 16l8 16l8 16v32l-16 8l-16 8l-8 16zM0 336v16l8 16l8 16l16 8l16 8h16l16 -8l16 -8l8 -16l8 -16v-16l-8 -16l-8 -16 l-16 -8l-16 -8h-16l-16 8l-16 8l-8 16z" />
<glyph unicode="&#x3c;" horiz-adv-x="456" d="M0 336l8 8l16 8l16 8l16 8l16 8l16 8l16 8l16 8l16 8l16 8l16 8l16 8l16 8l16 8l16 8l16 8l16 8l16 8l16 8l16 8l16 8l16 -8v-32l-16 -8l-16 -8l-16 -8l-16 -8l-16 -8l-16 -8l-16 -8l-16 -8l-16 -8l-16 -8l-16 -8l-16 -8l-16 -8l-16 -8l-16 -8l-16 -8l16 -8l16 -8l16 -8 l16 -8l16 -8l16 -8l16 -8l16 -8l16 -8l16 -8l16 -8l16 -8l16 -8l16 -8l16 -8l16 -8v-32l-16 -8l-16 8l-16 8l-16 8l-16 8l-16 8l-16 8l-16 8l-16 8l-16 8l-16 8l-16 8l-16 8l-16 8l-16 8l-16 8l-16 8l-16 8l-16 8l-16 8l-16 8z" />
<glyph unicode="=" horiz-adv-x="448" d="M0 272v24l16 8h304l16 -8v-24l-16 -8h-304zM0 384v24l16 8h304l16 -8v-24l-16 -8h-304z" />
<glyph unicode="&#x3e;" horiz-adv-x="440" d="M0 176v32l16 8l16 8l16 8l16 8l16 8l16 8l16 8l16 8l16 8l16 8l16 8l16 8l16 8l16 8l16 8l16 8l-16 8l-16 8l-16 8l-16 8l-16 8l-16 8l-16 8l-16 8l-16 8l-16 8l-16 8l-16 8l-16 8l-16 8l-16 8l-16 8v32l16 8l16 -8l16 -8l16 -8l16 -8l16 -8l16 -8l16 -8l16 -8l16 -8 l16 -8l16 -8l16 -8l16 -8l16 -8l16 -8l16 -8l16 -8l16 -8l16 -8l16 -8v-2l6 -6h2h-2l-6 -8l-16 -8l-16 -8l-16 -8l-16 -8l-16 -8l-16 -8l-16 -8l-16 -8l-16 -8l-16 -8l-16 -8l-16 -8l-16 -8l-16 -8l-16 -8l-16 -8l-16 -8l-16 -8l-16 -8l-16 -8z" />
<glyph unicode="?" horiz-adv-x="480" d="M0 560v16l8 16l8 16l16 16l16 16l16 8l16 8l16 8l16 8l16 8h96l16 -8l16 -8l16 -8l16 -8l16 -8l16 -16l16 -16l8 -16l8 -16l8 -16l8 -16v-80l-8 -16l-8 -16l-8 -16l-8 -16l-16 -16l-16 -16l-16 -8l-16 -8l-16 -8l-16 -8l-16 -16l-8 -16l-8 -16v-112l-8 -16h-32l-8 16v128 l8 16l8 16l16 16l16 8l16 8l16 8l16 8l16 16l16 16l16 16l8 16l8 16v80l-8 16l-8 16l-16 16l-16 16l-16 16l-16 8l-16 8h-96l-16 -8l-16 -8l-16 -8l16 -8l8 -16l8 -16v-16l-8 -16l-8 -16l-16 -8l-16 -8h-16l-16 8l-16 8l-8 16zM128 48v16l8 16l8 16l16 8l16 8h16l16 -8 l16 -8l8 -16l8 -16v-16l-8 -16l-8 -16l-16 -8l-16 -8h-16l-16 8l-16 8l-8 16z" />
<glyph unicode="@" horiz-adv-x="576" d="M0 160v208l8 16l8 16l8 16l8 16l8 16l8 16l8 16l8 16l16 16l16 16l16 16l16 16l16 8l16 8l16 8l16 8l16 8l16 8h80l16 -8l16 -8l16 -8l16 -8l16 -16l16 -16l16 -16l16 -16l8 -16l8 -16l8 -16l8 -16v-224l-8 -16h-2l-6 -8l-8 -8h-2l-6 -8l-16 -8l-16 -8h-32l-16 8l-16 8 l-8 8l-8 8l-8 8l-8 16l-16 -16l-16 -16l-16 -8l-16 -8h-48l-16 8l-16 8l-16 16l-8 16l-8 16v96l8 16l8 16l8 16l8 16l16 16l16 16l16 8l16 8h48l16 -8l16 -8l16 -16l8 -16l8 -16v-128l8 -16l8 -16l16 -16h16l16 8l8 8l8 16v208l-8 16l-8 16l-8 16l-8 16l-16 16l-16 16l-16 8 l-16 8l-16 8h-80l-16 -8l-16 -8l-16 -8l-16 -8l-8 -8h-2l-6 -8l-8 -8h-2l-6 -8l-8 -8h-2l-6 -8l-8 -8l-8 -16l-8 -16l-8 -16l-8 -16l-8 -16l-8 -16l-8 -16v-208l8 -16l8 -16l8 -16l8 -16l16 -16l16 -16l16 -8l16 -8l16 -8h160l16 8l16 8l16 8l16 8l16 8l16 8l16 8l16 8 l16 -8v-16l-16 -16l-16 -8l-16 -8l-16 -8l-16 -8l-16 -8l-16 -8l-16 -8l-16 -8h-160l-16 8l-16 8l-16 8l-16 8l-16 16l-16 16l-16 16l-16 16l-8 16l-8 16l-8 16zM176 240l8 -16l8 -8l16 -8h16l16 8l16 8l8 16l8 16l8 16l8 16v96l-8 16l-8 8l-16 8h-16l-16 -8l-16 -8l-8 -16 l-8 -16l-8 -16l-8 -16v-96z" />
<glyph unicode="A" horiz-adv-x="912" d="M0 8v24l16 8h48l8 8l8 16l8 16l8 16l8 16l8 16l8 16l8 16l8 16l8 16l8 16l8 16l8 16l8 16l8 16l8 16l8 16l8 16l8 16l8 16l8 16l8 16l8 16l8 16l8 16l8 16l8 16l8 16l8 16l8 16l8 16l8 16l8 16l8 16l8 16l8 16l8 16l8 16l8 16l8 8l16 8l16 -8v-2l8 -6l8 -16l8 -16l8 -16 l8 -16l8 -16l8 -16l8 -16l8 -16l8 -16l8 -16l8 -16l8 -16l8 -16l8 -16l8 -16l8 -16l8 -16l8 -16l8 -16l8 -16l8 -16l8 -16l8 -16l8 -16l8 -16l8 -16l8 -16l8 -16l8 -16l8 -16l8 -16l8 -16l8 -16l8 -16l8 -16l8 -16l8 -16l8 -16l8 -8h48l16 -8v-24l-16 -8h-160l-16 8v24l16 8 h60l-4 8l-8 16l-8 16l-8 16l-8 16l-8 16l-8 16l-8 16h-448l-8 -16l-8 -16l-8 -16l-8 -16l-8 -16l-8 -16l-8 -16l-4 -8h60l16 -8v-24l-16 -8h-160zM196 200h408l-4 8l-8 16l-8 16l-8 16l-8 16l-8 16l-8 16l-8 16l-8 16l-8 16l-8 16l-8 16l-8 16l-8 16l-8 16l-8 16l-8 16 l-8 16l-8 16l-8 16l-8 16l-8 16l-8 16l-8 16l-8 16l-8 16l-8 -16l-8 -16l-8 -16l-8 -16l-8 -16l-8 -16l-8 -16l-8 -16l-8 -16l-8 -16l-8 -16l-8 -16l-8 -16l-8 -16l-8 -16l-8 -16l-8 -16l-8 -16l-8 -16l-8 -16l-8 -16l-8 -16l-8 -16l-8 -16l-8 -16z" />
<glyph unicode="B" horiz-adv-x="648" d="M0 8v24l16 8h80v592h-80l-16 8v24l16 8h368l16 -8l16 -8l16 -8l16 -8l16 -16l16 -16l16 -16l8 -16l8 -16l8 -16v-80l-8 -16l-8 -16l-8 -16l-16 -16l-16 -16l-16 -16l-16 -8l-16 -8l16 -8l16 -8l16 -8l16 -8l16 -16l16 -16l16 -16l8 -16l8 -16l8 -16v-96l-8 -16l-8 -16 l-8 -16l-16 -16l-16 -16l-16 -16l-16 -8l-16 -8l-16 -8l-16 -8h-400zM144 40h272l16 8l16 8l8 8l8 8l8 8l8 8l8 8l8 16l8 16v96l-8 16l-8 16l-8 8l-8 8l-8 8l-8 8l-8 8l-16 8l-16 8l-16 8l-16 8l-16 8h-224v-296zM144 376h240l16 8l16 8l8 8l8 8l8 8l8 8l8 8l8 16l8 16v80 l-8 16l-8 16l-8 8l-8 8l-8 8l-8 8l-8 8l-16 8l-16 8h-240v-256z" />
<glyph unicode="C" horiz-adv-x="640" d="M0 208v256l8 16l8 16l8 16l8 16l8 16l8 16l8 16l16 16l16 16l16 16l16 16l16 8l16 8l16 8l16 8l16 8h144l16 -8l16 -8l16 -8l16 -8l16 -8l16 -16l16 -16l16 -16h8v64l8 16h32l8 -16v-224l-8 -16h-32l-8 16v64l-8 16l-8 16l-8 16l-8 16l-8 8l-8 8l-8 8l-8 8l-8 8l-16 8 l-16 8l-16 8l-16 8l-16 8h-112l-16 -8l-16 -8l-16 -8l-16 -8l-16 -8l-8 -8h-2l-6 -8l-8 -8h-2l-6 -8l-8 -8l-8 -16l-8 -16l-8 -16l-8 -16l-8 -16l-8 -16v-256l8 -16l8 -16l8 -16l8 -16l8 -16l8 -16l8 -8v-2l8 -6l8 -8v-2l8 -6l8 -8l16 -8l16 -8l16 -8l16 -8l16 -8h112l16 8 l16 8l16 8l16 8l16 8l8 8l8 8l8 8l8 8l8 8l8 16l8 16l8 16v16l16 8h16l16 -8v-16l-8 -16l-8 -16l-8 -16l-8 -16l-16 -16l-16 -16l-16 -16l-16 -16l-16 -8l-16 -8l-16 -8l-16 -8l-16 -8h-144l-16 8l-16 8l-16 8l-16 8l-16 8l-16 16l-16 16l-16 16l-16 16l-8 16l-8 16l-8 16 l-8 16l-8 16l-8 16z" />
<glyph unicode="D" horiz-adv-x="664" d="M0 8v24l16 8h80v592h-80l-16 8v24l16 8h352l16 -8l16 -8l16 -8l16 -8l16 -16l16 -16l16 -16l16 -16l8 -16l8 -16l8 -16l8 -16l8 -16l8 -16l8 -16v-256l-8 -16l-8 -16l-8 -16l-8 -16l-8 -16l-8 -16l-8 -16l-16 -16l-16 -16l-16 -16l-16 -16l-16 -8l-16 -8l-16 -8l-16 -8 h-352zM144 40h208l16 8l16 8l16 8l16 8l8 8l8 8l8 8l8 8l8 8l8 16l8 16l8 16l8 16l8 16l8 16v256l-8 16l-8 16l-8 16l-8 16l-8 16l-8 16l-8 8l-8 8l-8 8l-8 8l-8 8l-16 8l-16 8l-16 8l-16 8h-208v-592z" />
<glyph unicode="E" horiz-adv-x="656" d="M0 8v24l16 8h80v592h-80l-16 8v24l16 8h512q6 0 10 -6q6 -4 6 -10v-224l-8 -16h-32l-8 16v200h-352v-256h152v72l8 16h32l8 -16v-192l-8 -16h-32l-8 16v80h-152v-296h352v200l8 16h32l8 -16v-224q0 -8 -6 -12q-4 -4 -10 -4h-512z" />
<glyph unicode="F" horiz-adv-x="656" d="M0 8v24l16 8h80v592h-80l-16 8v24l16 8h512q6 0 10 -6q6 -4 6 -10v-224l-8 -16h-32l-8 16v200h-352v-256h152v72l8 16h32l8 -16v-192l-8 -16h-32l-8 16v80h-152v-296h80l16 -8v-24l-16 -8h-208z" />
<glyph unicode="G" horiz-adv-x="728" d="M0 208v256l8 16l8 16l8 16l8 16l8 16l8 16l8 16l16 16l16 16l16 16l16 16l16 8l16 8l16 8l16 8l16 8h144l16 -8l16 -8l16 -8l16 -8l16 -8l16 -16l16 -16l16 -16h8v64l8 16h32l8 -16v-224l-8 -16h-24l-8 16v48l-8 16l-8 16l-8 16l-8 16l-8 16l-8 8l-8 8l-8 8l-8 8l-8 8 l-16 8l-16 8l-16 8l-16 8l-16 8h-112l-16 -8l-16 -8l-16 -8l-16 -8l-16 -8l-8 -8h-2l-6 -8l-8 -8h-2l-6 -8l-8 -8l-8 -16l-8 -16l-8 -16l-8 -16l-8 -16l-8 -16v-256l8 -16l8 -16l8 -16l8 -16l8 -16l8 -16l8 -8v-2l8 -6l8 -8v-2l8 -6l8 -8l16 -8l16 -8l16 -8l16 -8l16 -8h112 l16 8l16 8l16 8l16 8l16 8l8 8l8 8l8 8l8 8l8 8l8 16l8 16l8 16l8 16v48h-72l-16 8v24l16 8h192l16 -8v-24l-16 -8h-72v-208l-8 -16h-32l-8 16v64h-8l-16 -16l-16 -16l-16 -16l-16 -8l-16 -8l-16 -8l-16 -8l-16 -8h-144l-16 8l-16 8l-16 8l-16 8l-16 8l-16 16l-16 16l-16 16 l-16 16l-8 16l-8 16l-8 16l-8 16l-8 16l-8 16z" />
<glyph unicode="H" horiz-adv-x="704" d="M0 8v24l16 8h80v592h-80l-16 8v24l16 8h208l16 -8v-24l-16 -8h-80v-256h304v256h-80l-16 8v24l16 8h208l16 -8v-24l-16 -8h-80v-592h80l16 -8v-24l-16 -8h-208l-16 8v24l16 8h80v296h-304v-296h80l16 -8v-24l-16 -8h-208z" />
<glyph unicode="I" horiz-adv-x="544" d="M0 8v24l16 8h176v592h-176l-16 8v24l16 8h400l16 -8v-24l-16 -8h-176v-592h176l16 -8v-24l-16 -8h-400z" />
<glyph unicode="J" horiz-adv-x="672" d="M0 144v48l8 16l8 16l16 8l16 8h16l16 -8l16 -8l8 -16l8 -16v-16l-8 -16l-8 -16l-16 -8l-16 -8v-16l8 -16l8 -8v-2l8 -6l8 -8v-2l8 -6l8 -8l16 -8l16 -8l16 -8h96l16 8l16 8l16 8l8 8l8 8l8 8l8 8l8 8l8 16l8 16l8 16l8 16v472h-120l-16 8v24l16 8h288l16 -8v-24l-16 -8 h-120v-472l-8 -16l-8 -16l-8 -16l-8 -16l-8 -16l-16 -16l-16 -16l-16 -16l-16 -16l-16 -8l-16 -8l-16 -8h-128l-16 8l-16 8l-16 8l-16 16l-16 16l-16 16l-16 16l-8 16l-8 16l-8 16z" />
<glyph unicode="K" horiz-adv-x="688" d="M0 8v24l16 8h80v592h-80l-16 8v24l16 8h208l16 -8v-24l-16 -8h-80v-256l8 8l8 8l8 8l8 8l8 8l8 8l8 8l8 8l8 8l8 8l8 8l8 8l8 8l8 8l8 8l8 8l8 8l8 8l8 8l8 8l8 8l8 8l8 8l8 8l8 8l8 8l8 8l8 8l8 8l8 8l8 8l8 8h-80l-16 8v24l16 8h208l16 -8v-24l-16 -8h-72l-8 -8 l-16 -16l-16 -16l-16 -16l-16 -16l-16 -16l-16 -16l-16 -16l-16 -16l-16 -16l-16 -16l-16 -16l8 -16l8 -16l8 -16l8 -16l8 -16l8 -16l8 -16l8 -16l8 -16l8 -16l8 -16l8 -16l8 -16l8 -16l8 -16l8 -16l8 -16l8 -16l8 -16l8 -16l8 -16l8 -16l8 -16l8 -16l8 -16l4 -8h84l16 -8 v-24l-16 -8h-224l-16 8v24l16 8h92l-4 8l-8 16l-8 16l-8 16l-8 16l-8 16l-8 16l-8 16l-8 16l-8 16l-8 16l-8 16l-8 16l-8 16l-8 16l-8 16l-8 16l-8 16l-8 16l-8 16l-8 16l-8 16l-8 16l-8 16l-16 -16l-16 -16l-16 -16l-16 -16l-16 -16l-16 -16v-280h80l16 -8v-24l-16 -8h-208 z" />
<glyph unicode="L" horiz-adv-x="656" d="M0 8v24l16 8h80v592h-80l-16 8v24l16 8h208l16 -8v-24l-16 -8h-80v-592h360v200l8 16h24l8 -16v-224q0 -8 -6 -12q-4 -4 -10 -4h-512z" />
<glyph unicode="M" horiz-adv-x="784" d="M0 8v24l16 8h80v592h-80l-16 8v24l16 8h144l8 -16l8 -16l8 -16l8 -16l8 -16l8 -16l8 -16l8 -16l8 -16l8 -16l8 -16l8 -16l8 -16l8 -16l8 -16l8 -16l8 -16l8 -16l8 -16l8 -16l8 -16l8 -16l8 16l8 16l8 16l8 16l8 16l8 16l8 16l8 16l8 16l8 16l8 16l8 16l8 16l8 16l8 16 l8 16l8 16l8 16l8 16l8 16l8 16l8 16h144l16 -8v-24l-16 -8h-80v-592h80l16 -8v-24l-16 -8h-208l-16 8v24l16 8h80v568l-8 -16l-8 -16l-8 -16l-8 -16l-8 -16l-8 -16l-8 -16l-8 -16l-8 -16l-8 -16l-8 -16l-8 -16l-8 -16l-8 -16l-8 -16l-8 -16l-8 -16l-8 -16l-8 -16l-8 -16 l-8 -16l-8 -16h-32l-8 16l-8 16l-8 16l-8 16l-8 16l-8 16l-8 16l-8 16l-8 16l-8 16l-8 16l-8 16l-8 16l-8 16l-8 16l-8 16l-8 16l-8 16l-8 16l-8 16l-8 16l-8 16v-568h80l16 -8v-24l-16 -8h-208z" />
<glyph unicode="N" horiz-adv-x="704" d="M0 8v24l16 8h80v592h-80l-16 8v24l16 8h144l8 -16l8 -16l8 -16l8 -16l8 -16l8 -16l8 -16l8 -16l8 -16l8 -16l8 -16l8 -16l8 -16l8 -16l8 -16l8 -16l8 -16l8 -16l8 -16l8 -16l8 -16l8 -16l8 -16l8 -16l8 -16l8 -16l8 -16l8 -16l8 -16l8 -16l8 -16l8 -16l8 -16l8 -16l8 -16 l8 -16v536h-80l-16 8v24l16 8h208l16 -8v-24l-16 -8h-80v-616l-8 -16h-40l-8 16l-8 16l-8 16l-8 16l-8 16l-8 16l-8 16l-8 16l-8 16l-8 16l-8 16l-8 16l-8 16l-8 16l-8 16l-8 16l-8 16l-8 16l-8 16l-8 16l-8 16l-8 16l-8 16l-8 16l-8 16l-8 16l-8 16l-8 16l-8 16l-8 16 l-8 16l-8 16l-8 16l-8 16l-8 16l-8 16l-8 16l-8 16v-568h80l16 -8v-24l-16 -8h-208z" />
<glyph unicode="O" horiz-adv-x="656" d="M0 208v256l8 16l8 16l8 16l8 16l8 16l8 16l8 16l16 16l16 16l16 16l16 16l16 8l16 8l16 8l16 8l16 8h144l16 -8l16 -8l16 -8l16 -8l16 -8l16 -16l16 -16l16 -16l16 -16l8 -16l8 -16l8 -16l8 -16l8 -16l8 -16l8 -16v-256l-8 -16l-8 -16l-8 -16l-8 -16l-8 -16l-8 -16 l-8 -16l-16 -16l-16 -16l-16 -16l-16 -16l-16 -8l-16 -8l-16 -8l-16 -8l-16 -8h-144l-16 8l-16 8l-16 8l-16 8l-16 8l-16 16l-16 16l-16 16l-16 16l-8 16l-8 16l-8 16l-8 16l-8 16l-8 16zM48 208l8 -16l8 -16l8 -16l8 -16l8 -16l8 -16l8 -8v-2l8 -6l8 -8v-2l8 -6l8 -8l16 -8 l16 -8l16 -8l16 -8l16 -8h112l16 8l16 8l16 8l16 8l16 8l8 8l8 8l8 8l8 8l8 8l8 16l8 16l8 16l8 16l8 16l8 16v256l-8 16l-8 16l-8 16l-8 16l-8 16l-8 16l-8 8l-8 8l-8 8l-8 8l-8 8l-16 8l-16 8l-16 8l-16 8l-16 8h-112l-16 -8l-16 -8l-16 -8l-16 -8l-16 -8l-8 -8h-2l-6 -8 l-8 -8h-2l-6 -8l-8 -8l-8 -16l-8 -16l-8 -16l-8 -16l-8 -16l-8 -16v-256z" />
<glyph unicode="P" horiz-adv-x="632" d="M0 8v24l16 8h80v592h-80l-16 8v24l16 8h368l16 -8l16 -8l16 -8l16 -8l16 -16l16 -16l16 -16l8 -16l8 -16l8 -16v-80l-8 -16l-8 -16l-8 -16l-16 -16l-16 -16l-16 -16l-16 -8l-16 -8l-16 -8l-16 -8h-240v-296h80l16 -8v-24l-16 -8h-208zM144 376h240l16 8l16 8l8 8l8 8l8 8 l8 8l8 8l8 16l8 16v80l-8 16l-8 16l-8 8l-8 8l-8 8l-8 8l-8 8l-16 8l-16 8h-240v-256z" />
<glyph unicode="Q" horiz-adv-x="712" d="M0 208v256l8 16l8 16l8 16l8 16l8 16l8 16l8 16l16 16l16 16l16 16l16 16l16 8l16 8l16 8l16 8l16 8h144l16 -8l16 -8l16 -8l16 -8l16 -8l16 -16l16 -16l16 -16l16 -16l8 -16l8 -16l8 -16l8 -16l8 -16l8 -16l8 -16v-256l-8 -16l-8 -16l-8 -16l-8 -16l-8 -16l-8 -16 l-8 -16l-16 -16l-8 -8v-104l8 -16l16 -16l16 -8h32l16 8l16 16l8 16v32l8 16h24l8 -16v-32l-8 -16l-8 -16l-16 -16l-16 -16l-16 -8l-16 -8h-32l-16 8l-16 8l-16 16l-16 16l-8 16l-8 16l-8 16v44l-8 -4l-16 -8l-16 -8l-16 -8l-16 -8h-144l-16 8l-16 8l-16 8l-16 8l-16 8 l-16 16l-16 16l-16 16l-16 16l-8 16l-8 16l-8 16l-8 16l-8 16l-8 16zM48 208l8 -16l8 -16l8 -16l8 -16l8 -16l8 16l8 16l8 16l8 16l16 16l16 16l16 16l16 8l16 8l16 8l16 8h80l16 -8l16 -8l16 -8l16 -8l16 -16l16 -16l16 -16l8 -16l8 -16l8 -16l8 -16l8 16l8 16l8 16l8 16 l8 16v256l-8 16l-8 16l-8 16l-8 16l-8 16l-8 16l-8 8l-8 8l-8 8l-8 8l-8 8l-16 8l-16 8l-16 8l-16 8l-16 8h-112l-16 -8l-16 -8l-16 -8l-16 -8l-16 -8l-8 -8h-2l-6 -8l-8 -8h-2l-6 -8l-8 -8l-8 -16l-8 -16l-8 -16l-8 -16l-8 -16l-8 -16v-256zM128 80l8 -8l16 -8l16 -8l16 -8 l16 -8l16 -8h112l16 8l16 8l16 8l16 8l16 8l8 4v36l-8 16l-8 16l-8 16l-8 16l-8 8l-8 8l-8 8l-16 8l-16 8l-16 8l-16 8h-48l-16 -8l-16 -8l-16 -8l-16 -8l-8 -8h-2l-6 -8l-8 -8l-8 -16l-8 -16l-8 -16l-8 -16v-32z" />
<glyph unicode="R" horiz-adv-x="688" d="M0 8v24l16 8h72v592h-72l-16 8v24l16 8h368l16 -8l16 -8l16 -8l16 -8l16 -16l16 -16l16 -16l8 -16l8 -16l8 -16v-80l-8 -16l-8 -16l-8 -16l-16 -16l-16 -16l-16 -16l-16 -8l-16 -8l-16 -8l-16 -8h-16l16 -16l16 -16l16 -16l8 -16l8 -16l8 -16l8 -16l8 -16l8 -16l8 -16 l8 -16v-120h80l16 -8v-24l-16 -8h-112q-8 0 -12 4t-4 12v144l-8 16l-8 16l-8 16l-8 16l-8 16l-8 16l-8 16l-8 8l-8 8l-8 8l-8 8l-8 8l-8 8l-8 8l-8 8h-176v-296h88l16 -8v-24l-16 -8h-208zM136 376h248l16 8l16 8l8 8l8 8l8 8l8 8l8 8l8 16l8 16v80l-8 16l-8 16l-8 8l-8 8 l-8 8l-8 8l-8 8l-16 8l-16 8h-248v-256z" />
<glyph unicode="S" horiz-adv-x="592" d="M0 464v80l8 16l8 16l8 16l8 16l16 16l16 16l16 16l16 8l16 8l16 8h176l16 -8l16 -8l16 -8l16 -16l16 -16h8v32l8 16h32l8 -16v-192l-8 -16h-32l-8 16v64l-8 16l-8 16l-8 16l-8 16l-8 8l-8 8l-8 8l-16 8l-16 8l-16 8h-144l-16 -8l-16 -8l-16 -8l-8 -8h-2l-6 -8l-8 -8 l-8 -16l-8 -16l-8 -16v-80l8 -16l8 -16l8 -16l8 -8v-2l8 -6l8 -8l16 -8l16 -8l16 -8h192l16 -8l16 -8l16 -8l16 -8l16 -16l16 -16l16 -16l8 -16l8 -16l8 -16l8 -16v-96l-8 -16l-8 -16l-8 -16l-8 -16l-16 -16l-16 -16l-16 -16l-16 -8l-16 -8l-16 -8h-176l-16 8l-16 8l-16 8 l-16 16l-16 16h-8v-32l-8 -16h-32l-8 16v192l8 16h32l8 -16v-64l8 -16l8 -16l8 -16l8 -16l8 -8v-2l8 -6l8 -8l16 -8l16 -8l16 -8h144l16 8l16 8l16 8l8 8l8 8l8 8l8 16l8 16l8 16v96l-8 16l-8 16l-8 16l-8 8l-8 8l-8 8l-16 8l-16 8l-16 8l-16 8h-192l-16 8l-16 8l-16 8 l-16 16l-16 16l-16 16l-8 16l-8 16l-8 16z" />
<glyph unicode="T" horiz-adv-x="672" d="M0 432v224q0 6 4 10q4 6 12 6h528q6 0 10 -6q6 -4 6 -10v-224l-8 -16h-32l-8 16v200h-208v-592h176l16 -8v-24l-16 -8h-400l-16 8v24l16 8h176v592h-208v-200l-8 -16h-32z" />
<glyph unicode="U" horiz-adv-x="752" d="M0 640v24l16 8h208l16 -8v-24l-16 -8h-80v-488l8 -16l8 -16l8 -16l8 -8v-2l8 -6l8 -8v-2l8 -6l8 -8l16 -8l16 -8l16 -8h128l16 8l16 8l16 8l8 8l8 8l8 8l8 8l8 8l8 16l8 16l8 16v488h-80l-16 8v24l16 8h208l16 -8v-24l-16 -8h-80v-488l-8 -16l-8 -16l-8 -16l-8 -16 l-16 -16l-16 -16l-16 -16l-16 -16l-16 -8l-16 -8l-16 -8h-160l-16 8l-16 8l-16 8l-16 16l-16 16l-16 16l-16 16l-8 16l-8 16l-8 16l-8 16v488h-80z" />
<glyph unicode="V" horiz-adv-x="912" d="M0 640v24l16 8h176l16 -8v-24l-16 -8h-76l4 -8l8 -16l8 -16l8 -16l8 -16l8 -16l8 -16l8 -16l8 -16l8 -16l8 -16l8 -16l8 -16l8 -16l8 -16l8 -16l8 -16l8 -16l8 -16l8 -16l8 -16l8 -16l8 -16l8 -16l8 -16l8 -16l8 -16l8 -16l8 -16l8 -16l8 -16l8 -16l8 -16l8 -16l8 -16 l8 -16l8 16l8 16l8 16l8 16l8 16l8 16l8 16l8 16l8 16l8 16l8 16l8 16l8 16l8 16l8 16l8 16l8 16l8 16l8 16l8 16l8 16l8 16l8 16l8 16l8 16l8 16l8 16l8 16l8 16l8 16l8 16l8 16l8 16l8 16l8 16l4 8h-60l-16 8v24l16 8h160l16 -8v-24l-16 -8h-52l-4 -8l-8 -16l-8 -16 l-8 -16l-8 -16l-8 -16l-8 -16l-8 -16l-8 -16l-8 -16l-8 -16l-8 -16l-8 -16l-8 -16l-8 -16l-8 -16l-8 -16l-8 -16l-8 -16l-8 -16l-8 -16l-8 -16l-8 -16l-8 -16l-8 -16l-8 -16l-8 -16l-8 -16l-8 -16l-8 -16l-8 -16l-8 -16l-8 -16l-8 -16l-8 -16l-8 -16l-8 -16l-8 -16l-8 -16 l-8 -16h-32l-8 16l-8 16l-8 16l-8 16l-8 16l-8 16l-8 16l-8 16l-8 16l-8 16l-8 16l-8 16l-8 16l-8 16l-8 16l-8 16l-8 16l-8 16l-8 16l-8 16l-8 16l-8 16l-8 16l-8 16l-8 16l-8 16l-8 16l-8 16l-8 16l-8 16l-8 16l-8 16l-8 16l-8 16l-8 16l-8 16l-8 16l-8 16l-8 16l-4 8h-52 z" />
<glyph unicode="W" horiz-adv-x="1168" d="M0 640v24l16 8h160l16 -8v-24l-16 -8h-60l4 -8l8 -16l8 -16l8 -16l8 -16l8 -16l8 -16l8 -16l8 -16l8 -16l8 -16l8 -16l8 -16l8 -16l8 -16l8 -16l8 -16l8 -16l8 -16l8 -16l8 -16l8 -16l8 -16l8 -16l8 -16l8 -16l8 -16l8 -16l8 -16l8 -16l8 -16l8 -16l8 -16l8 -16l8 16 l8 16l8 16l8 16l8 16l8 16l8 16l8 16l8 16l8 16l8 16l8 16l8 16l8 16l8 16l8 16h32l8 -16l8 -16l8 -16l8 -16l8 -16l8 -16l8 -16l8 -16l8 -16l8 -16l8 -16l8 -16l8 -16l8 -16l8 -16l8 -16l8 16l8 16l8 16l8 16l8 16l8 16l8 16l8 16l8 16l8 16l8 16l8 16l8 16l8 16l8 16l8 16 l8 16l8 16l8 16l8 16l8 16l8 16l8 16l8 16l8 16l8 16l8 16l8 16l8 16l8 16l8 16l8 16l8 16l4 8h-60l-16 8v24l16 8h160l16 -8v-24l-16 -8h-52l-4 -8l-8 -16l-8 -16l-8 -16l-8 -16l-8 -16l-8 -16l-8 -16l-8 -16l-8 -16l-8 -16l-8 -16l-8 -16l-8 -16l-8 -16l-8 -16l-8 -16 l-8 -16l-8 -16l-8 -16l-8 -16l-8 -16l-8 -16l-8 -16l-8 -16l-8 -16l-8 -16l-8 -16l-8 -16l-8 -16l-8 -16l-8 -16l-8 -16l-8 -16l-8 -16l-8 -16l-8 -16l-8 -16l-8 -16l-8 -16l-8 16l-8 16l-8 16l-8 16l-8 16l-8 16l-8 16l-8 16l-8 16l-8 16l-8 16l-8 16l-8 16l-8 16l-8 16 l-8 16l-8 16l-8 16l-8 -16l-8 -16l-8 -16l-8 -16l-8 -16l-8 -16l-8 -16l-8 -16l-8 -16l-8 -16l-8 -16l-8 -16l-8 -16l-8 -16l-8 -16l-8 -16l-8 -16l-8 -16l-8 16l-8 16l-8 16l-8 16l-8 16l-8 16l-8 16l-8 16l-8 16l-8 16l-8 16l-8 16l-8 16l-8 16l-8 16l-8 16l-8 16l-8 16 l-8 16l-8 16l-8 16l-8 16l-8 16l-8 16l-8 16l-8 16l-8 16l-8 16l-8 16l-8 16l-8 16l-8 16l-8 16l-8 16l-8 16l-8 16l-8 16l-8 16l-8 16l-4 8h-52z" />
<glyph unicode="X" horiz-adv-x="656" d="M0 8v24l16 8h68l4 8l8 16l8 16l8 16l8 16l8 16l8 16l8 16l8 16l8 16l8 16l8 16l8 16l8 16l8 16l8 16l8 16l8 16l8 16l8 16l-8 16l-8 16l-8 16l-8 16l-8 16l-8 16l-8 16l-8 16l-8 16l-8 16l-8 16l-8 16l-8 16l-8 16l-8 16l-8 16l-8 16l-4 8h-68l-16 8v24l16 8h192l16 -8 v-24l-16 -8h-76l4 -8l8 -16l8 -16l8 -16l8 -16l8 -16l8 -16l8 -16l8 -16l8 -16l8 -16l8 -16l8 -16l8 -16l8 -16l8 16l8 16l8 16l8 16l8 16l8 16l8 16l8 16l8 16l8 16l8 16l8 16l8 16l8 16l4 8h-76l-16 8v24l16 8h192l16 -8v-24l-16 -8h-68l-4 -8l-8 -16l-8 -16l-8 -16 l-8 -16l-8 -16l-8 -16l-8 -16l-8 -16l-8 -16l-8 -16l-8 -16l-8 -16l-8 -16l-8 -16l-8 -16l-8 -16l-8 -16l8 -16l8 -16l8 -16l8 -16l8 -16l8 -16l8 -16l8 -16l8 -16l8 -16l8 -16l8 -16l8 -16l8 -16l8 -16l8 -16l8 -16l8 -16l8 -16l4 -8h84l16 -8v-24l-16 -8h-208l-16 8v24 l16 8h76l-4 8l-8 16l-8 16l-8 16l-8 16l-8 16l-8 16l-8 16l-8 16l-8 16l-8 16l-8 16l-8 16l-8 16l-8 16l-8 16l-8 16l-8 -16l-8 -16l-8 -16l-8 -16l-8 -16l-8 -16l-8 -16l-8 -16l-8 -16l-8 -16l-8 -16l-8 -16l-8 -16l-8 -16l-8 -16l-8 -16l-4 -8h92l16 -8v-24l-16 -8h-208z " />
<glyph unicode="Y" horiz-adv-x="608" d="M0 640v24l16 8h192l16 -8v-24l-16 -8h-76l4 -8l8 -16l8 -16l8 -16l8 -16l8 -16l8 -16l8 -16l8 -16l8 -16l8 -16l8 -16l8 -16l8 -16l8 -16l8 16l8 16l8 16l8 16l8 16l8 16l8 16l8 16l8 16l8 16l8 16l8 16l8 16l8 16l4 8h-76l-16 8v24l16 8h192l16 -8v-24l-16 -8h-68l-4 -8 l-8 -16l-8 -16l-8 -16l-8 -16l-8 -16l-8 -16l-8 -16l-8 -16l-8 -16l-8 -16l-8 -16l-8 -16l-8 -16l-8 -16l-8 -16l-8 -16l-8 -16v-312h176l16 -8v-24l-16 -8h-400l-16 8v24l16 8h176v312l-8 16l-8 16l-8 16l-8 16l-8 16l-8 16l-8 16l-8 16l-8 16l-8 16l-8 16l-8 16l-8 16 l-8 16l-8 16l-8 16l-8 16l-4 8h-68z" />
<glyph unicode="Z" horiz-adv-x="480" d="M0 16v16l8 16l8 16l8 16l8 16l8 16l8 16l8 16l8 16l8 16l8 16l8 16l8 16l8 16l8 16l8 16l8 16l8 16l8 16l8 16l8 16l8 16l8 16l8 16l8 16l8 16l8 16l8 16l8 16l8 16l8 16l8 16l8 16l8 16l8 16l8 16l8 16l8 16l4 8h-252v-168l-8 -16h-32l-8 16v192q0 6 4 10q4 6 12 6h320 q6 0 10 -6q6 -4 6 -10v-16l-8 -16l-8 -16l-8 -16l-8 -16l-8 -16l-8 -16l-8 -16l-8 -16l-8 -16l-8 -16l-8 -16l-8 -16l-8 -16l-8 -16l-8 -16l-8 -16l-8 -16l-8 -16l-8 -16l-8 -16l-8 -16l-8 -16l-8 -16l-8 -16l-8 -16l-8 -16l-8 -16l-8 -16l-8 -16l-8 -16l-8 -16l-8 -16 l-8 -16l-8 -16l-8 -16l-8 -16l-8 -16l-4 -8h268v168l8 16h32l8 -16v-192q0 -8 -6 -12q-4 -4 -10 -4h-336q-8 0 -12 4t-4 12z" />
<glyph unicode="[" horiz-adv-x="304" d="M0 -112v896q0 6 4 10q4 6 12 6h160l16 -8v-24l-16 -8h-128v-848h128l16 -8v-24l-16 -8h-160q-8 0 -12 6q-4 4 -4 10z" />
<glyph unicode="\" horiz-adv-x="464" d="M0 656l8 16h24l8 -8v-2l8 -6l8 -16l8 -16l8 -16l8 -16l8 -16l8 -16l8 -16l8 -16l8 -16l8 -16l8 -16l8 -16l8 -16l8 -16l8 -16l8 -16l8 -16l8 -16l8 -16l8 -16l8 -16l8 -16l8 -16l8 -16l8 -16l8 -16l8 -16l8 -16l8 -16l8 -16l8 -16l8 -16l8 -16l8 -16l8 -16l8 -16l8 -16 l8 -16l8 -16l8 -16l-8 -16h-24l-8 8l-8 8l-8 16l-8 16l-8 16l-8 16l-8 16l-8 16l-8 16l-8 16l-8 16l-8 16l-8 16l-8 16l-8 16l-8 16l-8 16l-8 16l-8 16l-8 16l-8 16l-8 16l-8 16l-8 16l-8 16l-8 16l-8 16l-8 16l-8 16l-8 16l-8 16l-8 16l-8 16l-8 16l-8 16l-8 16l-8 16 l-8 16l-8 16l-8 16l-8 16z" />
<glyph unicode="]" horiz-adv-x="304" d="M0 -96l16 8h128v848h-128l-16 8v24l16 8h160q6 0 10 -6q6 -4 6 -10v-896q0 -6 -6 -10q-4 -6 -10 -6h-160l-16 8v24z" />
<glyph unicode="^" horiz-adv-x="496" d="M0 688v8l8 8l8 8l8 8l8 8l8 8l8 8l8 8l8 8l8 8l8 8l8 8l8 8l8 8l8 8l8 8l8 8l8 8l8 8l8 8l8 8l8 8l8 8l8 8h16l8 -8v-2l8 -6l8 -8v-2l8 -6l8 -8v-2l8 -6l8 -8v-2l8 -6l8 -8v-2l8 -6l8 -8v-2l8 -6l8 -8v-2l8 -6l8 -8v-2l8 -6l8 -8v-2l8 -6l8 -8v-2l8 -6l8 -8v-2l8 -6l8 -8 v-8h-48l-16 16l-16 16l-16 16l-16 16l-16 16l-16 16l-16 16l-16 16l-16 16l-16 -16l-16 -16l-16 -16l-16 -16l-16 -16l-16 -16l-16 -16l-16 -16l-16 -16h-48z" />
<glyph unicode="_" horiz-adv-x="576" d="M0 -24l16 8h432l16 -8v-24l-16 -8h-432l-16 8v24z" />
<glyph unicode="`" horiz-adv-x="312" d="M0 864l8 16l14 6v2h2v-2l8 -6l8 -8v-2l8 -6l8 -8v-2l8 -6l8 -8v-2l8 -6l8 -8v-2l8 -6l8 -8v-2l8 -6l8 -8v-2l8 -6l8 -8v-2l8 -6l8 -8v-2l8 -6l8 -8v-2l8 -6l8 -8v-2l8 -6l8 -8v-8l-16 -16h-16l-16 16l-16 16l-16 16l-16 16l-16 16l-16 16l-16 16l-16 16l-16 16l-16 16z " />
<glyph unicode="a" horiz-adv-x="592" d="M0 96v64l8 16l8 16l16 16l16 16l16 16l16 8l16 8l16 8l16 8l16 8h144l16 8l8 16l8 16v48l-8 16l-8 16l-16 16l-16 8l-16 8l-16 8h-96l-16 -8l-16 -8v-8l8 -16l8 -16v-16l-8 -16l-8 -16l-16 -8l-16 -8h-16l-16 8l-16 8l-8 16l-8 16v16l8 16l8 16l16 16l16 16l16 8l16 8 l16 8l16 8h128l16 -8l16 -8l16 -8l16 -8l16 -16l16 -16l8 -16l8 -16v-304l8 -16l8 -16l16 -16h16l16 16v16l8 16h32l8 -16v-16l-8 -16l-8 -16l-16 -8l-16 -8h-64l-16 8l-16 8l-8 16l-8 16l-16 -16l-16 -16l-16 -8l-16 -8l-16 -8h-112l-16 8l-16 8l-16 8l-16 8l-16 8l-16 16 l-16 16l-8 16zM48 112l8 -16l8 -16l16 -16l16 -16l16 -8l16 -8h96l16 8l16 8l16 16l16 16l8 16l8 16l8 16l8 16v72l-16 8l-16 8l-16 8h-112l-16 -8l-16 -8l-16 -8l-16 -8l-16 -16l-16 -16l-8 -16l-8 -16v-32z" />
<glyph unicode="b" horiz-adv-x="520" d="M-96 640v24l16 8h112q6 0 10 -6q6 -4 6 -10v-272l16 16l16 16l16 16l16 16l16 8l16 8l16 8h112l16 -8l16 -8l16 -8l16 -16l16 -16l16 -16l16 -16l8 -16l8 -16l8 -16l8 -16l8 -16v-144l-8 -16l-8 -16l-8 -16l-8 -16l-8 -16l-16 -16l-16 -16l-16 -16l-16 -16l-16 -8l-16 -8 l-16 -8h-112l-16 8l-16 8l-16 8l-16 16l-16 16l-16 16l-16 16v-64l-8 -16h-32l-8 16v616h-80zM48 176l8 -16l8 -16l8 -16l8 -16l16 -16l16 -16l16 -16l16 -16l16 -8l16 -8h80l16 8l16 8l16 16l16 16l16 16l16 16l8 16l8 16l8 16v144l-8 16l-8 16l-8 16l-16 16l-16 16l-16 16 l-16 16l-16 8l-16 8h-80l-16 -8l-16 -8l-16 -16l-16 -16l-16 -16l-16 -16l-8 -16l-8 -16l-8 -16l-8 -16v-112z" />
<glyph unicode="c" horiz-adv-x="536" d="M0 176v112l8 16l8 16l8 16l8 16l8 16l16 16l16 16l16 16l16 16l16 8l16 8l16 8l16 8l16 8h112l16 -8l16 -8l16 -8l16 -8l16 -8l16 -16l16 -16l8 -16l8 -16v-16l-8 -16l-8 -16l-16 -8l-16 -8h-16l-16 8l-16 8l-8 16l-8 16v16l8 16l8 16v8l-16 8l-16 8l-16 8h-80l-16 -8 l-16 -8l-16 -8l-16 -8l-16 -16l-16 -16l-16 -16l-16 -16l-8 -16l-8 -16l-8 -16v-112l8 -16l8 -16l8 -16l16 -16l16 -16l16 -16l16 -16l16 -8l16 -8l16 -8l16 -8h112l16 8l16 8l16 8l16 8l16 16h16l16 -16v-16l-16 -16l-16 -8l-16 -8l-16 -8l-16 -8l-16 -8h-144l-16 8l-16 8 l-16 8l-16 8l-16 8l-16 16l-16 16l-16 16l-16 16l-8 16l-8 16l-8 16l-8 16z" />
<glyph unicode="d" horiz-adv-x="632" d="M0 160v144l8 16l8 16l8 16l8 16l8 16l16 16l16 16l16 16l16 16l16 8l16 8l16 8h112l16 -8l16 -8l16 -8l16 -16l16 -16l16 -16l16 -16v248h-80l-16 8v24l16 8h112q6 0 10 -6q6 -4 6 -10v-616h80l16 -8v-24l-16 -8h-120l-8 16v64l-16 -16l-16 -16l-16 -16l-16 -16l-16 -8 l-16 -8l-16 -8h-112l-16 8l-16 8l-16 8l-16 16l-16 16l-16 16l-16 16l-8 16l-8 16l-8 16l-8 16zM48 160l8 -16l8 -16l8 -16l16 -16l16 -16l16 -16l16 -16l16 -8l16 -8h80l16 8l16 8l16 16l16 16l16 16l16 16l8 16l8 16l8 16l8 16v112l-8 16l-8 16l-8 16l-8 16l-16 16l-16 16 l-16 16l-16 16l-16 8l-16 8h-80l-16 -8l-16 -8l-16 -16l-16 -16l-16 -16l-16 -16l-8 -16l-8 -16l-8 -16v-144z" />
<glyph unicode="e" horiz-adv-x="560" d="M0 176v112l8 16l8 16l8 16l8 16l8 16l16 16l16 16l16 16l16 16l16 8l16 8l16 8l16 8l16 8h80l16 -8l16 -8l16 -8l16 -8l16 -8l16 -16l16 -16l16 -16l16 -16l8 -16l8 -16l8 -16l8 -16l8 -16v-48h-2l-6 -8h-392v-56l8 -16l8 -16l8 -16l16 -16l16 -16l16 -16l16 -16l16 -8 l16 -8l16 -8l16 -8h112l16 8l16 8l16 8l16 8l16 16h16l16 -16v-16l-16 -16l-16 -8l-16 -8l-16 -8l-16 -8l-16 -8h-144l-16 8l-16 8l-16 8l-16 8l-16 8l-16 16l-16 16l-16 16l-16 16l-8 16l-8 16l-8 16l-8 16zM48 272h352v16l-8 16l-8 16l-8 16l-16 16l-16 16l-16 16l-16 16 l-16 8l-16 8l-16 8l-16 8h-48l-16 -8l-16 -8l-16 -8l-16 -8l-16 -16l-16 -16l-16 -16l-16 -16l-8 -16l-8 -16l-8 -16v-16z" />
<glyph unicode="f" horiz-adv-x="448" d="M0 8v24l16 8h80v384h-80l-16 8v24l16 8h80v80l8 16l8 16l8 16l8 16l16 16l16 16l16 8l16 8l16 8l16 8h96l16 -8l16 -8l16 -8l16 -8l16 -16l16 -16l8 -16l8 -16v-16l-8 -16l-8 -16l-16 -8l-16 -8h-16l-16 8l-16 8l-8 16l-8 16v16l8 16l8 16v8l-16 8l-16 8h-64l-16 -8 l-16 -8l-16 -8l-16 -16l-8 -16l-8 -16l-8 -16l-8 -16v-64h80l16 -8v-24l-16 -8h-80v-384h80l16 -8v-24l-16 -8h-208z" />
<glyph unicode="g" horiz-adv-x="576" d="M0 -96l8 16l8 16l8 16l8 16l16 16l16 16l16 8l-16 8l-16 16l-16 16l-8 16l-8 16v32l8 16l8 16l16 16l16 16l8 8l-8 6v2l-8 16l-8 16l-8 16l-8 16v80l8 16l8 16l8 16l8 16l16 16l16 16l16 8l16 8l16 8l16 8l16 8h48l16 -8l16 -8l16 -8l16 -8l16 -8v-2l8 -6l6 8h2l16 16 l16 8l16 8h48l16 -8l16 -8l8 -16l8 -16v-16l-8 -16l-8 -16l-16 -8l-16 -8h-16l-16 8l-16 8l-8 16l-8 16l-12 -12l4 -4l8 -16l8 -16l8 -16v-80l-8 -16l-8 -16l-8 -16l-8 -16l-16 -16l-16 -16l-16 -8l-16 -8l-16 -8l-16 -8l-16 -8h-48l-16 8l-16 8l-16 8l-16 8l-6 2l-10 -10 l-16 -16l-8 -16l-8 -16v-16l8 -16l8 -16l16 -16l4 -6l12 6h224l16 -8l16 -8l16 -8l16 -8l16 -16l16 -16l8 -16l8 -16l8 -16l8 -16v-48l-8 -16l-8 -16l-8 -16l-8 -16l-16 -16l-16 -16l-16 -8l-16 -8l-16 -8l-16 -8h-208l-16 8l-16 8l-16 8l-16 8l-16 16l-16 16l-8 16l-8 16 l-8 16l-8 16v48zM48 -96v-48l8 -16l8 -16l16 -16l16 -16l16 -8l16 -8l16 -8h176l16 8l16 8l16 8l16 16l16 16l8 16l8 16v48l-8 16l-8 16l-16 16l-16 16l-16 8l-16 8l-16 8h-176l-16 -8l-16 -8l-16 -8l-16 -16l-16 -16l-8 -16zM80 256l8 -16l8 -16l16 -16l16 -16l16 -16 l16 -8l16 -8h48l16 8l16 8l16 16l16 16l16 16l8 16l8 16v80l-8 16l-8 16l-16 16l-16 16l-16 16l-16 8l-16 8h-48l-16 -8l-16 -8l-16 -16l-16 -16l-16 -16l-8 -16l-8 -16v-80z" />
<glyph unicode="h" d="M0 8v24l16 8h48v592h-48l-16 8v24l16 8h80q6 0 10 -6q6 -4 6 -10v-280l8 8l8 8l8 8l8 8l8 8l8 8l16 8l16 8l16 8l16 8l16 8l16 8h80l16 -8l16 -8l16 -8l16 -16l16 -16l8 -16l8 -16l8 -16l8 -16v-312h48l16 -8v-24l-16 -8h-144l-16 8v24l16 8h48v312l-8 16l-8 16l-16 16 l-16 16l-16 8l-16 8h-64l-16 -8l-16 -8l-16 -8l-8 -8h-2l-6 -8l-8 -8h-2l-6 -8l-8 -8h-2l-6 -8l-8 -8h-2l-6 -8l-8 -8l-8 -16l-8 -16l-8 -16v-248h48l16 -8v-24l-16 -8h-144z" />
<glyph unicode="i" horiz-adv-x="416" d="M0 8v24l16 8h112v384h-112l-16 8v24l16 8h144q6 0 10 -6q6 -4 6 -10v-408h112l16 -8v-24l-16 -8h-272zM96 560v16l8 16l8 16l16 8l16 8h16l16 -8l16 -8l8 -16l8 -16v-16l-8 -16l-8 -16l-16 -8l-16 -8h-16l-16 8l-16 8l-8 16z" />
<glyph unicode="j" horiz-adv-x="304" d="M-208 -80l8 16l8 16l16 8l16 8h16l16 -8l16 -8l8 -16l8 -16v-16l-8 -16l-8 -16l-16 -8l-16 -8h-8l8 -16l16 -16l16 -16l16 -8l16 -8l16 -8h80l16 8l16 8l16 8l16 16l16 16l8 16l8 16l8 16l8 16v520h-112l-16 8v24l16 8h144q6 0 10 -6q6 -4 6 -10v-544l-8 -16l-8 -16 l-8 -16l-8 -16l-8 -16l-8 -16l-16 -16l-16 -16l-16 -8l-16 -8l-16 -8l-16 -8h-112l-16 8l-16 8l-16 8l-16 8l-16 16l-16 16l-8 16l-8 16l-8 16l-8 16v48zM80 560v16l8 16l8 16l16 8l16 8h16l16 -8l16 -8l8 -16l8 -16v-16l-8 -16l-8 -16l-16 -8l-16 -8h-16l-16 8l-16 8l-8 16 z" />
<glyph unicode="k" horiz-adv-x="544" d="M-16 8v24l16 8h48v592h-48l-16 8v24l16 8h80q6 0 10 -6q6 -4 6 -10v-392l8 8l8 8l8 8l8 8l8 8l8 8l8 8l8 8l8 8l8 8l8 8l8 8l8 8l8 8l8 8l8 8l8 8l8 8l8 8l8 8h-48l-16 8v24l16 8h160l16 -8v-24l-16 -8h-56l-8 -8l-16 -16l-16 -16l-16 -16l-16 -16l-16 -16l8 -16l8 -16 l8 -16l8 -16l8 -16l8 -16l8 -16l8 -16l8 -16l8 -16l8 -16l8 -16l8 -16l8 -16l8 -16l8 -16l8 -16l8 -16l4 -8h44l16 -8v-24l-16 -8h-144l-16 8v24l16 8h48v8l-8 16l-8 16l-8 16l-8 16l-8 16l-8 16l-8 16l-8 16l-8 16l-8 16l-8 16l-8 16l-8 16l-8 16l-8 16l-8 16l-16 -16 l-16 -16l-16 -16l-16 -16l-16 -16l-16 -16v-168h48l16 -8v-24l-16 -8h-144z" />
<glyph unicode="l" horiz-adv-x="448" d="M-32 8v24l16 8h144v592h-144l-16 8v24l16 8h176q6 0 10 -6q6 -4 6 -10v-616h144l16 -8v-24l-16 -8h-336z" />
<glyph unicode="m" horiz-adv-x="800" d="M0 8v24l16 8h48v384h-48l-16 8v24l16 8h80q6 0 10 -6q6 -4 6 -10v-40l8 8l8 8l8 8l8 8l16 8l16 8l16 8l16 8h48l16 -8l16 -8l16 -8l16 -16l16 -16l8 -16l8 -16l8 16l8 8l8 8l8 8l8 8l8 8l16 8l16 8l16 8l16 8h48l16 -8l16 -8l16 -8l16 -16l16 -16l8 -16l8 -16l8 -16 l8 -16v-312h48l16 -8v-24l-16 -8h-144l-16 8v24l16 8h48v312l-8 16l-8 16l-16 16l-16 16l-16 8l-16 8h-32l-16 -8l-8 -8h-2l-6 -8l-8 -8h-2l-6 -8l-8 -8h-2l-6 -8l-8 -8l-8 -16l-8 -16l-8 -16v-280h48l16 -8v-24l-16 -8h-144l-16 8v24l16 8h48v312l-8 16l-8 16l-16 16 l-16 16l-16 8l-16 8h-32l-16 -8l-8 -8h-2l-6 -8l-8 -8h-2l-6 -8l-8 -8h-2l-6 -8l-8 -8l-8 -16l-8 -16l-8 -16v-280h48l16 -8v-24l-16 -8h-144z" />
<glyph unicode="n" d="M0 8v24l16 8h48v384h-48l-16 8v24l16 8h80q6 0 10 -6q6 -4 6 -10v-72l8 8l8 8l8 8l8 8l8 8l8 8l16 8l16 8l16 8l16 8l16 8l16 8h80l16 -8l16 -8l16 -8l16 -16l16 -16l8 -16l8 -16l8 -16l8 -16v-312h48l16 -8v-24l-16 -8h-144l-16 8v24l16 8h48v312l-8 16l-8 16l-16 16 l-16 16l-16 8l-16 8h-64l-16 -8l-16 -8l-16 -8l-8 -8h-2l-6 -8l-8 -8h-2l-6 -8l-8 -8h-2l-6 -8l-8 -8h-2l-6 -8l-8 -8l-8 -16l-8 -16l-8 -16v-248h48l16 -8v-24l-16 -8h-144z" />
<glyph unicode="o" horiz-adv-x="592" d="M0 176v112l8 16l8 16l8 16l8 16l8 16l16 16l16 16l16 16l16 16l16 8l16 8l16 8l16 8l16 8h112l16 -8l16 -8l16 -8l16 -8l16 -8l16 -16l16 -16l16 -16l16 -16l8 -16l8 -16l8 -16l8 -16l8 -16v-112l-8 -16l-8 -16l-8 -16l-8 -16l-8 -16l-16 -16l-16 -16l-16 -16l-16 -16 l-16 -8l-16 -8l-16 -8l-16 -8l-16 -8h-112l-16 8l-16 8l-16 8l-16 8l-16 8l-16 16l-16 16l-16 16l-16 16l-8 16l-8 16l-8 16l-8 16zM48 176l8 -16l8 -16l8 -16l16 -16l16 -16l16 -16l16 -16l16 -8l16 -8l16 -8l16 -8h80l16 8l16 8l16 8l16 8l16 16l16 16l16 16l16 16l8 16 l8 16l8 16v112l-8 16l-8 16l-8 16l-16 16l-16 16l-16 16l-16 16l-16 8l-16 8l-16 8l-16 8h-80l-16 -8l-16 -8l-16 -8l-16 -8l-16 -16l-16 -16l-16 -16l-16 -16l-8 -16l-8 -16l-8 -16v-112z" />
<glyph unicode="p" horiz-adv-x="568" d="M-64 -208l16 8h80v624h-80l-16 8v24l16 8h112q6 0 10 -6q6 -4 6 -10v-64l16 16l16 16l16 16l16 16l16 8l16 8l16 8h112l16 -8l16 -8l16 -8l16 -16l16 -16l16 -16l16 -16l8 -16l8 -16l8 -16l8 -16l8 -16v-144l-8 -16l-8 -16l-8 -16l-8 -16l-8 -16l-16 -16l-16 -16l-16 -16 l-16 -16l-16 -8l-16 -8l-16 -8h-112l-16 8l-16 8l-16 8l-16 16l-16 16l-16 16l-16 16v-280h80l16 -8v-24l-16 -8h-208l-16 8v24zM80 176l8 -16l8 -16l8 -16l8 -16l16 -16l16 -16l16 -16l16 -16l16 -8l16 -8h80l16 8l16 8l16 16l16 16l16 16l16 16l8 16l8 16l8 16v144l-8 16 l-8 16l-8 16l-16 16l-16 16l-16 16l-16 16l-16 8l-16 8h-80l-16 -8l-16 -8l-16 -16l-16 -16l-16 -16l-16 -16l-8 -16l-8 -16l-8 -16l-8 -16v-112z" />
<glyph unicode="q" horiz-adv-x="568" d="M0 160v144l8 16l8 16l8 16l8 16l8 16l16 16l16 16l16 16l16 16l16 8l16 8l16 8h112l16 -8l16 -8l16 -8l16 -16l16 -16l16 -16l16 -16v64l8 16h32l8 -16v-648h80l16 -8v-24l-16 -8h-208l-16 8v24l16 8h80v280l-16 -16l-16 -16l-16 -16l-16 -16l-16 -8l-16 -8l-16 -8h-112 l-16 8l-16 8l-16 8l-16 16l-16 16l-16 16l-16 16l-8 16l-8 16l-8 16l-8 16zM48 160l8 -16l8 -16l8 -16l16 -16l16 -16l16 -16l16 -16l16 -8l16 -8h80l16 8l16 8l16 16l16 16l16 16l16 16l8 16l8 16l8 16l8 16v112l-8 16l-8 16l-8 16l-8 16l-16 16l-16 16l-16 16l-16 16 l-16 8l-16 8h-80l-16 -8l-16 -8l-16 -16l-16 -16l-16 -16l-16 -16l-8 -16l-8 -16l-8 -16v-144z" />
<glyph unicode="r" horiz-adv-x="576" d="M0 8v24l16 8h80v384h-80l-16 8v24l16 8h112q6 0 10 -6q6 -4 6 -10v-72l8 8l8 8l8 8l8 8l8 8l8 8l16 8l16 8l16 8l16 8l16 8l16 8h112l16 -8l16 -8l16 -8l8 -16l8 -16v-16l-8 -16l-8 -16l-16 -8l-16 -8h-16l-16 8l-16 8l-8 16l-8 16v16l8 16h-72l-16 -8l-16 -8l-16 -8 l-8 -8h-2l-6 -8l-8 -8h-2l-6 -8l-8 -8h-2l-6 -8l-8 -8h-2l-6 -8l-8 -8l-8 -16l-8 -16l-8 -16v-248h80l16 -8v-24l-16 -8h-208z" />
<glyph unicode="s" horiz-adv-x="480" d="M0 320v48l8 16l8 16l8 16l16 16l16 16l16 8l16 8l16 8h144l16 -8l16 -8l16 -8l8 16h32l8 -16v-80l-8 -16h-32l-8 16l-8 16l-8 16l-16 16l-16 8l-16 8h-112l-16 -8l-16 -8l-16 -16l-8 -16l-8 -16l-8 -16v-16l8 -16l8 -16l8 -16l16 -16l16 -8h160l16 -8l16 -8l16 -8l16 -16 l16 -16l8 -16l8 -16l8 -16v-64l-8 -16l-8 -16l-8 -16l-16 -16l-16 -16l-16 -8l-16 -8l-16 -8h-160l-16 8l-16 8l-16 8l-8 -16h-32l-8 16v80l8 16h32l8 -16l8 -16l8 -16l16 -16l16 -8l16 -8h128l16 8l16 8l16 16l8 16l8 16l8 16v32l-8 16l-8 16l-8 16l-16 16l-16 8h-160 l-16 8l-16 8l-16 8l-16 16l-16 16l-8 16l-8 16z" />
<glyph unicode="t" horiz-adv-x="528" d="M0 432v24l16 8h96v192q0 6 4 10q4 6 12 6h16q6 0 10 -6q6 -4 6 -10v-192h128l16 -8v-24l-16 -8h-128v-312l8 -16l8 -16l16 -16l16 -16l16 -8l16 -8h48l16 8l16 8l16 16l16 16l8 16l8 16v48q0 6 4 10q4 6 12 6h16q6 0 10 -6q6 -4 6 -10v-64l-8 -16l-8 -16l-16 -16l-16 -16 l-16 -16l-16 -8l-16 -8l-16 -8h-80l-16 8l-16 8l-16 8l-16 16l-16 16l-16 16l-8 16l-8 16v328h-96z" />
<glyph unicode="u" d="M0 432v24l16 8h144l16 -8v-24l-16 -8h-48v-312l8 -16l8 -16l16 -16l16 -16l16 -8l16 -8h64l16 8l16 8l16 8l8 8l8 8l8 8l8 8l8 8l8 8l8 8l8 8l8 8l8 16l8 16l8 16v248h-48l-16 8v24l16 8h144l16 -8v-24l-16 -8h-48v-384h48l16 -8v-24l-16 -8h-80q-8 0 -12 4t-4 12v72 l-8 -8h-2l-6 -8l-8 -8h-2l-6 -8l-8 -8h-2l-6 -8l-16 -8l-16 -8l-16 -8l-16 -8l-16 -8l-16 -8h-80l-16 8l-16 8l-16 8l-16 16l-16 16l-8 16l-8 16l-8 16l-8 16v312h-48z" />
<glyph unicode="v" horiz-adv-x="672" d="M-16 432v24l16 8h128l16 -8v-24l-16 -8h-36l4 -8l8 -16l8 -16l8 -16l8 -16l8 -16l8 -16l8 -16l8 -16l8 -16l8 -16l8 -16l8 -16l8 -16l8 -16l8 -16l8 -16l8 -16l8 -16l8 -16l8 -16l8 -16l8 -16l8 16l8 16l8 16l8 16l8 16l8 16l8 16l8 16l8 16l8 16l8 16l8 16l8 16l8 16 l8 16l8 16l8 16l8 16l8 16l8 16l8 16l8 16l4 8h-36l-16 8v24l16 8h128l16 -8v-24l-16 -8h-44l-4 -8l-8 -16l-8 -16l-8 -16l-8 -16l-8 -16l-8 -16l-8 -16l-8 -16l-8 -16l-8 -16l-8 -16l-8 -16l-8 -16l-8 -16l-8 -16l-8 -16l-8 -16l-8 -16l-8 -16l-8 -16l-8 -16l-8 -16l-8 -16 l-8 -16l-8 -16l-8 -16h-32l-8 16l-8 16l-8 16l-8 16l-8 16l-8 16l-8 16l-8 16l-8 16l-8 16l-8 16l-8 16l-8 16l-8 16l-8 16l-8 16l-8 16l-8 16l-8 16l-8 16l-8 16l-8 16l-8 16l-8 16l-8 16l-8 16l-4 8h-44z" />
<glyph unicode="w" horiz-adv-x="832" d="M-16 432v24l16 8h128l16 -8v-24l-16 -8h-36l4 -8l8 -16l8 -16l8 -16l8 -16l8 -16l8 -16l8 -16l8 -16l8 -16l8 -16l8 -16l8 -16l8 -16l8 -16l8 -16l8 -16l8 -16l8 -16l8 -16l8 -16l8 16l8 16l8 16l8 16l8 16l8 16l8 16l8 16l8 16l8 16l8 16h16l8 -16l8 -16l8 -16l8 -16 l8 -16l8 -16l8 -16l8 -16l8 -16l8 -16l8 -16l8 16l8 16l8 16l8 16l8 16l8 16l8 16l8 16l8 16l8 16l8 16l8 16l8 16l8 16l8 16l8 16l8 16l8 16l8 16l8 16l4 8h-36l-16 8v24l16 8h128l16 -8v-24l-16 -8h-44l-4 -8l-8 -16l-8 -16l-8 -16l-8 -16l-8 -16l-8 -16l-8 -16l-8 -16 l-8 -16l-8 -16l-8 -16l-8 -16l-8 -16l-8 -16l-8 -16l-8 -16l-8 -16l-8 -16l-8 -16l-8 -16l-8 -16l-8 -16l-8 -16l-8 -16l-8 -16l-8 -16l-8 16l-8 16l-8 16l-8 16l-8 16l-8 16l-8 16l-8 16l-8 16l-8 16l-8 16l-8 16l-8 -16l-8 -16l-8 -16l-8 -16l-8 -16l-8 -16l-8 -16l-8 -16 l-8 -16l-8 -16l-8 -16l-8 -16l-8 16l-8 16l-8 16l-8 16l-8 16l-8 16l-8 16l-8 16l-8 16l-8 16l-8 16l-8 16l-8 16l-8 16l-8 16l-8 16l-8 16l-8 16l-8 16l-8 16l-8 16l-8 16l-8 16l-8 16l-8 16l-8 16l-4 8h-44z" />
<glyph unicode="x" horiz-adv-x="480" d="M0 8v24l16 8h44l4 8l8 16l8 16l8 16l8 16l8 16l8 16l8 16l8 16l8 16l8 16l8 16l8 16l-8 16l-8 16l-8 16l-8 16l-8 16l-8 16l-8 16l-8 16l-8 16l-8 16l-8 16l-4 8h-36l-16 8v24l16 8h128l16 -8v-24l-16 -8h-44l4 -8l8 -16l8 -16l8 -16l8 -16l8 -16l8 -16l8 -16l8 -16l8 16 l8 16l8 16l8 16l8 16l8 16l8 16l8 16l4 8h-44l-16 8v24l16 8h128l16 -8v-24l-16 -8h-36l-4 -8l-8 -16l-8 -16l-8 -16l-8 -16l-8 -16l-8 -16l-8 -16l-8 -16l-8 -16l-8 -16l-8 -16l8 -16l8 -16l8 -16l8 -16l8 -16l8 -16l8 -16l8 -16l8 -16l8 -16l8 -16l8 -16l4 -8h44l16 -8 v-24l-16 -8h-128l-16 8v24l16 8h36l-4 8l-8 16l-8 16l-8 16l-8 16l-8 16l-8 16l-8 16l-8 16l-8 16l-8 -16l-8 -16l-8 -16l-8 -16l-8 -16l-8 -16l-8 -16l-8 -16l-8 -16l-4 -8h52l16 -8v-24l-16 -8h-144z" />
<glyph unicode="y" horiz-adv-x="688" d="M-48 -160l8 16l8 16l16 8l16 8h16l16 -8l16 -8l8 -16l8 -16v-16l-8 -16l-8 -16l16 -8h32l16 8l16 8l8 8l8 8l8 8l8 16l8 16l8 16l8 16l8 16l8 16l8 16l8 16l8 16l8 16l8 16l8 16l-8 16l-8 16l-8 16l-8 16l-8 16l-8 16l-8 16l-8 16l-8 16l-8 16l-8 16l-8 16l-8 16l-8 16 l-8 16l-8 16l-8 16l-8 16l-8 16l-8 16l-8 16l-8 16l-8 16l-8 16l-8 16l-4 8h-60l-16 8v24l16 8h160l16 -8v-24l-16 -8h-52l4 -8l8 -16l8 -16l8 -16l8 -16l8 -16l8 -16l8 -16l8 -16l8 -16l8 -16l8 -16l8 -16l8 -16l8 -16l8 -16l8 -16l8 -16l8 -16l8 -16l8 -16l8 -16l8 -16 l8 16l8 16l8 16l8 16l8 16l8 16l8 16l8 16l8 16l8 16l8 16l8 16l8 16l8 16l8 16l8 16l8 16l8 16l8 16l8 16l8 16l8 16l4 8h-52l-16 8v24l16 8h160l16 -8v-24l-16 -8h-60l-4 -8l-8 -16l-8 -16l-8 -16l-8 -16l-8 -16l-8 -16l-8 -16l-8 -16l-8 -16l-8 -16l-8 -16l-8 -16l-8 -16 l-8 -16l-8 -16l-8 -16l-8 -16l-8 -16l-8 -16l-8 -16l-8 -16l-8 -16l-8 -16l-8 -16l-8 -16l-8 -16l-8 -16l-8 -16l-8 -16l-8 -16l-8 -16l-8 -16l-8 -16l-8 -16l-8 -16l-8 -16l-8 -16l-8 -16l-16 -16l-16 -16l-16 -8l-16 -8l-16 -8l-16 -8h-48l-16 8l-16 8l-16 8l-16 8l-16 16 l-8 16l-8 16v16z" />
<glyph unicode="z" horiz-adv-x="392" d="M0 0l8 16l8 16l8 16l8 16l8 16l8 16l8 16l8 16l8 16l8 16l8 16l8 16l8 16l8 16l8 16l8 16l8 16l8 16l8 16l8 16l8 16l8 16l8 16l8 16l8 16l8 16l4 8h-156v-72l-8 -16h-32l-8 16v96q0 6 4 10q4 6 12 6h256l-8 -16l-8 -16l-8 -16l-8 -16l-8 -16l-8 -16l-8 -16l-8 -16 l-8 -16l-8 -16l-8 -16l-8 -16l-8 -16l-8 -16l-8 -16l-8 -16l-8 -16l-8 -16l-8 -16l-8 -16l-8 -16l-8 -16l-8 -16l-8 -16l-8 -16l-8 -16l-4 -8h164v72l8 16h32l8 -16v-96q0 -8 -6 -12q-4 -4 -10 -4h-264z" />
<glyph unicode="{" horiz-adv-x="304" d="M-64 328v16l16 8l16 8l16 8l16 16l16 16l8 16l8 16l8 16l8 16v80l-8 16l-8 16l-8 16l-8 16l-8 16l-8 16v48l8 16l8 16l8 16l8 8l8 8l8 8l8 8l8 8l16 8l16 8l16 8h64l16 -8v-24l-16 -8h-64l-16 -8l-16 -8l-8 -8l-8 -16l-8 -16l-8 -16v-48l8 -16l8 -16l8 -16l8 -16l8 -16 l8 -16v-80l-8 -16l-8 -16l-8 -16l-8 -16l-8 -16h-2l-6 -8l-8 -8h-2l-6 -8l-8 -8h-2l-6 -8l-8 -8l8 -8v-2l8 -6l8 -8v-2l8 -6l8 -8v-2l8 -6l8 -16l8 -16l8 -16l8 -16l8 -16v-80l-8 -16l-8 -16l-8 -16l-8 -16l-8 -16l-8 -16v-48l8 -16l8 -16l8 -16l8 -8l16 -8l16 -8h64l16 -8 v-24l-16 -8h-64l-16 8l-16 8l-16 8v2l-8 6l-8 8v2l-8 6l-8 8v2l-8 6l-8 16l-8 16l-8 16v48l8 16l8 16l8 16l8 16l8 16l8 16v80l-8 16l-8 16l-8 16l-8 16l-16 16l-16 16l-16 8l-16 8z" />
<glyph unicode="|" horiz-adv-x="160" d="M0 -32v736l8 16h32l8 -16v-736l-8 -16h-32z" />
<glyph unicode="}" horiz-adv-x="368" d="M0 -96l16 8h64l16 8l16 8l8 8l8 16l8 16l8 16v48l-8 16l-8 16l-8 16l-8 16l-8 16l-8 16v80l8 16l8 16l8 16l8 16l8 16l8 8l8 8l8 8l8 8l8 8l8 8l-8 8l-8 8l-8 8l-8 8l-8 8l-8 8l-8 16l-8 16l-8 16l-8 16l-8 16v80l8 16l8 16l8 16l8 16l8 16l8 16v48l-8 16l-8 16l-8 16 l-8 8l-16 8l-16 8h-64l-16 8v24l16 8h64l16 -8l16 -8l16 -8v-2l8 -6l8 -8v-2l8 -6l8 -8v-2l8 -6l8 -16l8 -16l8 -16v-48l-8 -16l-8 -16l-8 -16l-8 -16l-8 -16l-8 -16v-80l8 -16l8 -16l8 -16l8 -16l16 -16l16 -16l16 -8l16 -8l16 -8v-16l-16 -8l-16 -8l-16 -8l-16 -16 l-16 -16l-8 -16l-8 -16l-8 -16l-8 -16v-80l8 -16l8 -16l8 -16l8 -16l8 -16l8 -16v-48l-8 -16l-8 -16l-8 -16h-2l-6 -8l-8 -8h-2l-6 -8l-8 -8h-2l-6 -8l-16 -8l-16 -8l-16 -8h-64l-16 8v24z" />
<glyph unicode="~" horiz-adv-x="528" d="M0 720l8 16l8 16l8 16l16 16l16 16l16 8l16 8h80l16 -8l16 -8l16 -16l16 -16l16 -16l16 -16l16 -8h48l16 8l16 8l8 8l8 16l8 16l8 16h32l8 -16l-8 -16l-8 -16l-8 -16l-16 -16l-16 -16l-16 -8l-16 -8h-64l-16 8l-16 8l-16 8l-8 8l-8 8l-8 8l-8 8l-8 8l-8 8l-16 8l-16 8 h-48l-16 -8l-16 -8l-8 -8l-8 -16l-8 -16l-8 -16h-32z" />
<glyph unicode="&#xa1;" horiz-adv-x="224" d="M0 352v16l8 16l8 16l16 8l16 8h16l16 -8l16 -8l8 -16l8 -16v-16l-8 -16l-8 -16l-16 -8l-16 -8h-16l-16 8l-16 8l-8 16zM32 -240v480l8 16h32l8 -16v-480q0 -6 -6 -10q-4 -6 -10 -6h-16q-8 0 -12 6q-4 4 -4 10z" />
<glyph unicode="&#xa2;" horiz-adv-x="440" d="M0 160v112l8 16l8 16l8 16l8 16l16 16l16 16l16 16l16 16l16 8l16 8l16 8l16 8l16 8h80l2 -2l6 10l8 8l16 8h16l8 -16l-8 -16l-8 -14l8 -2l16 -16l8 -16l-8 -16h-32l-8 16l-8 -16l-8 -16l-8 -16l-8 -16l-8 -16l-8 -16l-8 -16l-8 -16l-8 -16l-8 -16l-8 -16l-8 -16l-8 -16 l-8 -16l-8 -16l-8 -16l-8 -16l-8 -16l-8 -16l-4 -8h4l16 -8h64l16 8l16 8l16 16h16q6 0 10 -6q6 -4 6 -10l-16 -16l-16 -16l-16 -8l-16 -8l-16 -8h-64l-16 8l-16 8h-4l-4 -8l-8 -16l-16 -16h-24l-8 16l8 16l8 16l6 12l-6 4l-16 16l-16 16l-8 16l-8 16l-8 16zM48 160l8 -16 l8 -16l8 -16l8 -8v-2l8 -6l8 16l8 16l8 16l8 16l8 16l8 16l8 16l8 16l8 16l8 16l8 16l8 16l8 16l8 16l8 16l8 16l8 16l8 16l8 16h-64l-16 -8l-16 -8l-16 -8l-8 -8h-2l-6 -8l-8 -8h-2l-6 -8l-8 -8h-2l-6 -8l-8 -8l-8 -16l-8 -16l-8 -16v-112z" />
<glyph unicode="&#xa3;" horiz-adv-x="512" d="M0 -8v40l16 16l16 16l16 16l16 16l16 16l8 16l8 16l8 16l8 16v136h-64l-16 8v24l16 8h64v208l8 16l8 16l8 16l8 8l8 8l8 8l8 8l8 8l16 8l16 8l16 8h64l16 -8l16 -8l16 -8l16 -8l8 -16l8 -16v-16l-8 -16l-8 -16l-16 -8l-16 -8h-16l-16 8l-16 8l-8 16l-8 16v16l8 16l4 8 h-44l-16 -8l-16 -8l-8 -8l-8 -16l-8 -16l-8 -16v-208h64l16 -8v-24l-16 -8h-64v-136l-8 -16l-8 -16l-8 -16l-8 -16l-8 -16h-2l-6 -8l-8 -8h-2l-6 -8l-8 -8h-2l-6 -8l-8 -8h-2l-6 -8l-8 -8h-2l-6 -8l16 8l16 8l16 8l16 8l16 8h80l16 -8l16 -8l16 -8l16 -8h64l16 8l16 8l16 8 l16 -8v-16l-16 -16l-16 -16l-16 -8h-80l-16 8l-16 8l-16 8l-16 8h-80l-16 -8l-16 -8l-16 -8l-16 -8h-64z" />
<glyph unicode="&#xa4;" horiz-adv-x="368" d="M0 224v16l16 16l16 16l8 16l-8 16v64l8 16l-8 16l-16 16l-16 16v16l16 16h16l16 -16l16 -16l16 -8l16 8h64l16 -8l16 8l16 16l16 16h16l16 -16v-16l-16 -16l-16 -16l-8 -16l8 -16v-64l-8 -16l8 -16l16 -16l16 -16v-16l-16 -16h-16l-16 16l-16 16l-16 8l-16 -8h-64l-16 8 l-16 -8l-16 -16l-16 -16h-16zM80 304l8 -16l8 -8l16 -8h32l16 8l8 8l8 16v64l-8 16l-8 8l-16 8h-32l-16 -8l-8 -8l-8 -16v-64z" />
<glyph unicode="&#xa5;" horiz-adv-x="608" d="M0 640v24l16 8h192l16 -8v-24l-16 -8h-76l4 -8l8 -16l8 -16l8 -16l8 -16l8 -16l8 -16l8 -16l8 -16l8 -16l8 -16l8 -16l8 -16l8 -16l8 -16l8 16l8 16l8 16l8 16l8 16l8 16l8 16l8 16l8 16l8 16l8 16l8 16l8 16l8 16l4 8h-76l-16 8v24l16 8h192l16 -8v-24l-16 -8h-68l-4 -8 l-8 -16l-8 -16l-8 -16l-8 -16l-8 -16l-8 -16l-8 -16l-8 -16l-8 -16l-8 -16l-8 -16l-8 -16l-8 -16l-8 -16l-8 -16l-8 -16l-8 -16v-16h64l16 -8v-24l-16 -8h-64v-56h64l16 -8v-24l-16 -8h-64v-160h176l16 -8v-24l-16 -8h-400l-16 8v24l16 8h176v160h-64l-16 8v24l16 8h64v56 h-64l-16 8v24l16 8h64v16l-8 16l-8 16l-8 16l-8 16l-8 16l-8 16l-8 16l-8 16l-8 16l-8 16l-8 16l-8 16l-8 16l-8 16l-8 16l-8 16l-8 16l-4 8h-68z" />
<glyph unicode="&#xa6;" horiz-adv-x="160" d="M0 16v288l8 16h32l8 -16v-288l-8 -16h-32zM0 368v288l8 16h32l8 -16v-288l-8 -16h-32z" />
<glyph unicode="&#xa7;" horiz-adv-x="448" d="M-16 320v48l8 16l8 16l-8 16l-8 16v48l8 16l8 16l8 16l16 16l16 16l16 8l16 8l16 8h144l16 -8l16 -8l16 -8l8 16h32l8 -16v-80l-8 -16h-32l-8 16l-8 16l-8 16l-16 16l-16 8l-16 8h-112l-16 -8l-16 -8l-16 -16l-8 -16l-8 -16l-8 -16v-16l8 -16l8 -16l8 -16l16 -16l16 -8 h160l16 -8l16 -8l16 -8l16 -16l16 -16l8 -16l8 -16l8 -16v-64l-8 -16l-4 -8l4 -8l8 -16v-64l-8 -16l-8 -16l-8 -16l-16 -16l-16 -16l-16 -8l-16 -8l-16 -8h-160l-16 8l-16 8l-16 8l-8 -16h-32l-8 16v80l8 16h32l8 -16l8 -16l8 -16l16 -16l16 -8l16 -8h128l16 8l16 8l16 16 l8 16l8 16l8 16v32l-8 16l-8 16l-8 16l-16 16l-16 8h-160l-16 8l-16 8l-16 8l-16 16l-16 16l-8 16l-8 16zM32 336l8 -16l8 -16l8 -16l16 -16l16 -8h160l16 -8l16 -8l16 -8l8 -8v24l-8 16l-8 16l-8 16l-16 16l-16 8h-160l-16 8l-16 8l-16 8l-8 8v-24z" />
<glyph unicode="&#xa8;" horiz-adv-x="448" d="M0 736v16l8 16l8 16l16 8l16 8h16l16 -8l16 -8l8 -16l8 -16v-16l-8 -16l-8 -16l-16 -8l-16 -8h-16l-16 8l-16 8l-8 16zM224 736v16l8 16l8 16l16 8l16 8h16l16 -8l16 -8l8 -16l8 -16v-16l-8 -16l-8 -16l-16 -8l-16 -8h-16l-16 8l-16 8l-8 16z" />
<glyph unicode="&#xa9;" horiz-adv-x="640" d="M-16 208v160l8 16l8 16l8 16l8 16l8 16l8 16l8 16l16 16l16 16l16 16l16 16l16 8l16 8l16 8l16 8l16 8h144l16 -8l16 -8l16 -8l16 -8l16 -8l16 -16l16 -16l16 -16l16 -16l8 -16l8 -16l8 -16l8 -16l8 -16l8 -16l8 -16v-160l-8 -16l-8 -16l-8 -16l-8 -16l-8 -16l-8 -16 l-8 -16l-16 -16l-16 -16l-16 -16l-16 -16l-16 -8l-16 -8l-16 -8l-16 -8l-16 -8h-144l-16 8l-16 8l-16 8l-16 8l-16 8l-16 16l-16 16l-16 16l-16 16l-8 16l-8 16l-8 16l-8 16l-8 16l-8 16zM32 208l8 -16l8 -16l8 -16l8 -16l8 -16l8 -16l8 -8v-2l8 -6l8 -8v-2l8 -6l8 -8l16 -8 l16 -8l16 -8l16 -8l16 -8h112l16 8l16 8l16 8l16 8l16 8l8 8l8 8l8 8l8 8l8 8l8 16l8 16l8 16l8 16l8 16l8 16v160l-8 16l-8 16l-8 16l-8 16l-8 16l-8 16l-8 8l-8 8l-8 8l-8 8l-8 8l-16 8l-16 8l-16 8l-16 8l-16 8h-112l-16 -8l-16 -8l-16 -8l-16 -8l-16 -8l-8 -8h-2l-6 -8 l-8 -8h-2l-6 -8l-8 -8l-8 -16l-8 -16l-8 -16l-8 -16l-8 -16l-8 -16v-160zM64 240v96l8 16l8 16l8 16l8 16l8 16l16 16l16 16l16 16l16 8l16 8l16 8l16 8l16 8h64l16 -8l16 -8l16 -8l16 -16l16 -16l8 -16l8 -16v-16l-8 -16l-8 -16l-16 -8l-16 -8h-16l-16 8l-16 8l-8 16l-8 16 v16l8 16l8 16v8l-16 8h-32l-16 -8l-16 -8l-16 -8l-16 -8l-16 -16l-16 -16l-16 -16l-8 -16l-8 -16l-8 -16v-96l8 -16l8 -16l8 -16l16 -16l16 -16l16 -16l16 -8l16 -8l16 -8l16 -8h48l16 8l16 8l16 16h16l16 -16v-16l-16 -16l-16 -8l-16 -8l-16 -8h-80l-16 8l-16 8l-16 8 l-16 8l-16 8l-16 16l-16 16l-16 16l-8 16l-8 16l-8 16l-8 16z" />
<glyph unicode="&#xaa;" horiz-adv-x="368" d="M0 416v48l8 16l8 16l16 16l16 8l16 8l16 8l16 8h80v48l-8 16l-8 8l-16 8h-64l-8 -4l8 -12v-16l-8 -16h-2l-6 -8l-16 -8h-16l-16 8l-8 8l-8 16v16l8 16l8 8l16 8l16 8l16 8h80l16 -8l16 -8l16 -16l8 -16l8 -16v-192q0 -8 4 -12t12 -4q6 0 10 4q6 4 6 12h16v-16l-8 -16h-2 l-6 -8l-16 -8h-16l-16 8l-8 8l-8 16l-16 -16l-16 -8l-16 -8h-48l-16 8l-16 8l-16 8l-8 8l-8 8l-8 8zM32 432l8 -16l8 -8v-2l8 -6l8 -8l16 -8h48l16 8l8 8l8 8l8 8l8 16v72l-16 8h-64l-16 -8l-16 -8l-16 -8l-8 -8l-8 -16v-32z" />
<glyph unicode="&#xab;" horiz-adv-x="424" d="M0 336l8 16l16 16l16 16l16 16l16 16l16 16l16 16l16 16l16 16l16 16l16 8l16 -8v-32l-16 -16l-16 -16l-16 -16l-16 -16l-16 -16l-16 -16l-16 -16l-16 -16l16 -16l16 -16l16 -16l16 -16l16 -16l16 -16l16 -16l16 -16v-32l-16 -8l-16 8l-16 16l-16 16l-16 16l-16 16 l-16 16l-16 16l-16 16l-16 16l-16 16zM128 336l8 16l16 16l16 16l16 16l16 16l16 16l16 16l16 16l16 16l16 16l16 8l16 -8v-32l-16 -16l-16 -16l-16 -16l-16 -16l-16 -16l-16 -16l-16 -16l-16 -16l16 -16l16 -16l16 -16l16 -16l16 -16l16 -16l16 -16l16 -16v-32l-16 -8 l-16 8l-16 16l-16 16l-16 16l-16 16l-16 16l-16 16l-16 16l-16 16l-16 16z" />
<glyph unicode="&#xac;" horiz-adv-x="496" d="M0 320v24l16 8h352q6 0 10 -6q6 -4 6 -10v-96l-8 -16h-32l-8 16v72h-320z" />
<glyph unicode="&#xad;" horiz-adv-x="336" d="M0 320v24l16 8h192l16 -8v-24l-16 -8h-192z" />
<glyph unicode="&#xae;" horiz-adv-x="640" d="M-16 208v160l8 16l8 16l8 16l8 16l8 16l8 16l8 16l16 16l16 16l16 16l16 16l16 8l16 8l16 8l16 8l16 8h144l16 -8l16 -8l16 -8l16 -8l16 -8l16 -16l16 -16l16 -16l16 -16l8 -16l8 -16l8 -16l8 -16l8 -16l8 -16l8 -16v-160l-8 -16l-8 -16l-8 -16l-8 -16l-8 -16l-8 -16 l-8 -16l-16 -16l-16 -16l-16 -16l-16 -16l-16 -8l-16 -8l-16 -8l-16 -8l-16 -8h-144l-16 8l-16 8l-16 8l-16 8l-16 8l-16 16l-16 16l-16 16l-16 16l-8 16l-8 16l-8 16l-8 16l-8 16l-8 16zM32 208l8 -16l8 -16l8 -16l8 -16l8 -16l8 -16l8 -8v-2l8 -6l8 -8v-2l8 -6l8 -8l16 -8 l16 -8l16 -8l16 -8l16 -8h112l16 8l16 8l16 8l16 8l16 8l8 8l8 8l8 8l8 8l8 8l8 16l8 16l8 16l8 16l8 16l8 16v160l-8 16l-8 16l-8 16l-8 16l-8 16l-8 16l-8 8l-8 8l-8 8l-8 8l-8 8l-16 8l-16 8l-16 8l-16 8l-16 8h-112l-16 -8l-16 -8l-16 -8l-16 -8l-16 -8l-8 -8h-2l-6 -8 l-8 -8h-2l-6 -8l-8 -8l-8 -16l-8 -16l-8 -16l-8 -16l-8 -16l-8 -16v-160zM104 104v24l16 8h32v304h-32l-16 8v24l16 8h224l16 -8l16 -8l16 -16l8 -16l8 -16v-48l-8 -16l-8 -16l-16 -16l-16 -8l-16 -8h-16l16 -16l8 -16l8 -16l8 -16l8 -16v-88h16l16 -8v-24l-16 -8h-48 q-8 0 -12 4t-4 12v112l-8 16l-8 16l-8 16l-8 8l-8 8l-8 8l-8 8h-72v-168h16l16 -8v-24l-16 -8h-96zM200 344h144l8 8l8 16v48l-8 16l-8 8h-144v-96z" />
<glyph unicode="&#xaf;" horiz-adv-x="448" d="M0 696v24l16 8h304l16 -8v-24l-16 -8h-304z" />
<glyph unicode="&#xb0;" horiz-adv-x="304" d="M0 560v48l8 16l8 16l16 16l16 8l16 8h64l16 -8l16 -8l16 -16l8 -16l8 -16v-48l-8 -16l-8 -16l-16 -16l-16 -8l-16 -8h-64l-16 8l-16 8l-16 16l-8 16zM48 560l8 -16l8 -8l16 -8h32l16 8l8 8l8 16v48l-8 16l-8 8l-16 8h-32l-16 -8l-8 -8l-8 -16v-48z" />
<glyph unicode="&#xb1;" horiz-adv-x="448" d="M0 144v24l16 8h304l16 -8v-24l-16 -8h-304zM0 368v24l16 8h128v128l8 16h32l8 -16v-128h128l16 -8v-24l-16 -8h-128v-120l-8 -16h-32l-8 16v120h-128z" />
<glyph unicode="&#xb2;" horiz-adv-x="328" d="M0 592l8 16l8 16l8 8l8 8l8 8l16 8l16 8l16 8h32l16 -8l16 -8l16 -8v-2l8 -6l8 -8v-2l8 -6l8 -16l8 -16v-32l-8 -16l-8 -16h-2l-6 -8l-8 -8h-2l-6 -8l-16 -8l-16 -8l-16 -8l-16 -8l-16 -8l-16 -16l-16 -16l-8 -16l-8 -16v-16h160l16 -8v-16l-16 -8h-176q-8 0 -12 4t-4 12 v32l8 16l8 16l8 16l8 8l8 8l8 8l8 8l8 8l16 8l16 8l16 8l16 8l16 8l16 16l8 16v32l-8 16l-16 16l-16 8l-16 8h-32l-16 -8l-16 -8l-16 -16l-8 -16h-2l-6 -8l-8 -8h-8z" />
<glyph unicode="&#xb3;" horiz-adv-x="304" d="M0 432l8 16l16 -8v-2l8 -6l8 -16l16 -16l16 -8l16 -8h32l16 8l16 8l16 16l8 16v32l-8 16l-16 8l-16 8l-16 8v16l16 8l16 8l16 8l8 16v32l-8 16l-16 16l-16 8l-16 8h-32l-16 -8l-16 -8l-16 -16l-8 -16h-2l-6 -8l-8 -8h-8l-8 16l8 16l8 16l8 8l8 8l8 8l16 8l16 8l16 8h32 l16 -8l16 -8l16 -8v-2l8 -6l8 -8v-2l8 -6l8 -16l8 -16v-32l-8 -16l-8 -16h-2l-6 -8l-16 -8l16 -8v-2l8 -6l8 -16l8 -16v-32l-8 -16l-8 -16h-2l-6 -8l-8 -8h-2l-6 -8l-16 -8l-16 -8l-16 -8h-32l-16 8l-16 8l-16 8l-8 8l-8 8l-8 8l-8 16z" />
<glyph unicode="&#xb4;" horiz-adv-x="312" d="M0 704v8l8 8l8 8l8 8l8 8l8 8l8 8l8 8l8 8l8 8l8 8l8 8l8 8l8 8l8 8l8 8l8 8l8 8l8 8l8 8l8 8l8 8l8 8l16 -8l8 -16l-8 -16l-16 -16l-16 -16l-16 -16l-16 -16l-16 -16l-16 -16l-16 -16l-16 -16l-16 -16l-16 -16h-16z" />
<glyph unicode="&#xb5;" d="M0 -208l16 8h48v624h-48l-16 8v24l16 8h144l16 -8v-24l-16 -8h-48v-312l8 -16l8 -16l16 -16l16 -16l16 -8l16 -8h64l16 8l16 8l16 8l8 8l8 8l8 8l8 8l8 8l8 8l8 8l8 8l8 8l8 16l8 16l8 16v248h-48l-16 8v24l16 8h144l16 -8v-24l-16 -8h-48v-384h48l16 -8v-24l-16 -8h-80 q-8 0 -12 4t-4 12v72l-8 -8h-2l-6 -8l-8 -8h-2l-6 -8l-8 -8h-2l-6 -8l-16 -8l-16 -8l-16 -8l-16 -8l-16 -8l-16 -8h-80l-16 8l-16 8l-16 8l-16 16v-232h48l16 -8v-24l-16 -8h-144l-16 8v24z" />
<glyph unicode="&#xb6;" horiz-adv-x="416" d="M0 480v112l8 16l8 16l16 16l16 8l16 8h224q6 0 10 -6q6 -4 6 -10v-672l-8 -16h-40v672h-48v-672h-40l-8 16v416h-48l-16 8l-16 8l-16 8l-16 8l-16 16l-16 16l-8 16zM48 480l8 -16l8 -16l16 -8l16 -8l16 -8h48v192h-80l-16 -8l-8 -16l-8 -16v-96z" />
<glyph unicode="&#xb7;" horiz-adv-x="224" d="M0 336v16l8 16l8 16l16 8l16 8h16l16 -8l16 -8l8 -16l8 -16v-16l-8 -16l-8 -16l-16 -8l-16 -8h-16l-16 8l-16 8l-8 16z" />
<glyph unicode="&#xb8;" horiz-adv-x="296" d="M0 -192l8 16h16l16 -8l8 -8l8 -8l16 -8h32l16 8l8 8l8 16v80l-8 16l-8 8l-16 8h-16q-8 0 -12 6q-4 4 -4 10v48h48v-32l16 -8l16 -8l16 -16l8 -16l8 -16v-80l-8 -16l-8 -16l-16 -16l-16 -8l-16 -8h-64l-16 8l-16 8l-16 16z" />
<glyph unicode="&#xb9;" horiz-adv-x="336" d="M0 360v16l16 8h80v256l-16 -8l-16 -8l-16 -8l-16 -8l-16 -8l-16 8l8 16l8 8l16 8l16 8l16 8l16 8l16 8h16q6 0 10 -6q6 -4 6 -10v-272h80l16 -8v-16l-16 -8h-192z" />
<glyph unicode="&#xba;" horiz-adv-x="352" d="M0 432v144l8 16l8 16l16 16l16 16l16 8l16 8h80l16 -8l16 -8l16 -16l16 -16l8 -16l8 -16v-144l-8 -16l-8 -16l-16 -16l-16 -16l-16 -8l-16 -8h-80l-16 8l-16 8l-16 16l-16 16l-8 16zM32 448l8 -16l8 -16l16 -16l16 -8l16 -8h48l16 8l16 8l16 16l8 16l8 16v112l-8 16 l-8 16l-16 16l-16 8l-16 8h-48l-16 -8l-16 -8l-16 -16l-8 -16l-8 -16v-112z" />
<glyph unicode="&#xbb;" horiz-adv-x="408" d="M0 176v32l16 16l16 16l16 16l16 16l16 16l16 16l16 16l16 16l-16 16l-16 16l-16 16l-16 16l-16 16l-16 16l-16 16l-16 16v32l16 8l16 -8l16 -16l16 -16l16 -16l16 -16l16 -16l16 -16l16 -16l16 -16l16 -16l8 -16l-8 -16l-16 -16l-16 -16l-16 -16l-16 -16l-16 -16l-16 -16 l-16 -16l-16 -16l-16 -16l-16 -8zM128 176v32l16 16l16 16l16 16l16 16l16 16l16 16l16 16l16 16l-16 16l-16 16l-16 16l-16 16l-16 16l-16 16l-16 16l-16 16v32l16 8l16 -8l16 -16l16 -16l16 -16l16 -16l16 -16l16 -16l16 -16l16 -16l16 -16l8 -16l-8 -16l-16 -16l-16 -16 l-16 -16l-16 -16l-16 -16l-16 -16l-16 -16l-16 -16l-16 -16l-16 -8z" />
<glyph unicode="&#xbc;" horiz-adv-x="608" d="M0 360v16l16 8h80v256l-16 -8l-16 -8l-16 -8l-16 -8l-16 -8l-16 8l8 16l8 8l16 8l16 8l16 8l16 8l16 8h16q6 0 10 -6q6 -4 6 -10v-272h80l16 -8v-16l-16 -8h-192zM64 0l8 16l8 16l8 16l8 16l8 16l8 16l8 16l8 16l8 16l8 16l8 16l8 16l8 16l8 16l8 16l8 16l8 16l8 16l8 16 l8 16l8 16l8 16l8 16l8 16l8 16l8 16l8 16l8 16l8 16l8 16l8 16l8 16l8 16l8 16l8 16l8 16l8 16l8 16l8 16l8 16l8 16l8 16h32l-8 -16l-8 -16l-8 -16l-8 -16l-8 -16l-8 -16l-8 -16l-8 -16l-8 -16l-8 -16l-8 -16l-8 -16l-8 -16l-8 -16l-8 -16l-8 -16l-8 -16l-8 -16l-8 -16 l-8 -16l-8 -16l-8 -16l-8 -16l-8 -16l-8 -16l-8 -16l-8 -16l-8 -16l-8 -16l-8 -16l-8 -16l-8 -16l-8 -16l-8 -16l-8 -16l-8 -16l-8 -16l-8 -16l-8 -16l-8 -16l-8 -16l-8 -16h-32zM296 64l8 16l8 16l8 16l8 16l8 16v112l-8 16l-8 16l-8 16v16h24l8 -16l8 -16l8 -16l8 -16 v-112l-8 -16l-8 -16l-8 -16l-8 -16h80v128l8 16h16l8 -16v-128h32l16 -8v-16l-16 -8h-32v-32l-8 -16h-16l-8 16v32h-112z" />
<glyph unicode="&#xbd;" horiz-adv-x="608" d="M0 360v16l16 8h80v256l-16 -8l-16 -8l-16 -8l-16 -8l-16 -8l-16 8l8 16l8 8l16 8l16 8l16 8l16 8l16 8h16q6 0 10 -6q6 -4 6 -10v-272h80l16 -8v-16l-16 -8h-192zM64 0l8 16l8 16l8 16l8 16l8 16l8 16l8 16l8 16l8 16l8 16l8 16l8 16l8 16l8 16l8 16l8 16l8 16l8 16l8 16 l8 16l8 16l8 16l8 16l8 16l8 16l8 16l8 16l8 16l8 16l8 16l8 16l8 16l8 16l8 16l8 16l8 16l8 16l8 16l8 16l8 16l8 16l8 16h32l-8 -16l-8 -16l-8 -16l-8 -16l-8 -16l-8 -16l-8 -16l-8 -16l-8 -16l-8 -16l-8 -16l-8 -16l-8 -16l-8 -16l-8 -16l-8 -16l-8 -16l-8 -16l-8 -16 l-8 -16l-8 -16l-8 -16l-8 -16l-8 -16l-8 -16l-8 -16l-8 -16l-8 -16l-8 -16l-8 -16l-8 -16l-8 -16l-8 -16l-8 -16l-8 -16l-8 -16l-8 -16l-8 -16l-8 -16l-8 -16l-8 -16l-8 -16h-32zM280 240l8 16l8 16l8 8l8 8l8 8l16 8l16 8l16 8h32l16 -8l16 -8l16 -8v-2l8 -6l8 -8v-2l8 -6 l8 -16l8 -16v-32l-8 -16l-8 -16h-2l-6 -8l-8 -8h-2l-6 -8l-16 -8l-16 -8l-16 -8l-16 -8l-16 -8l-16 -16l-16 -16l-8 -16l-8 -16v-16h160l16 -8v-16l-16 -8h-176q-8 0 -12 4t-4 12v32l8 16l8 16l8 16l8 8l8 8l8 8l8 8l8 8l16 8l16 8l16 8l16 8l16 8l16 16l8 16v32l-8 16 l-16 16l-16 8l-16 8h-32l-16 -8l-16 -8l-16 -16l-8 -16h-2l-6 -8l-8 -8h-8z" />
<glyph unicode="&#xbe;" horiz-adv-x="600" d="M0 432l8 16l16 -8v-2l8 -6l8 -16l16 -16l16 -8l16 -8h32l16 8l16 8l16 16l8 16v32l-8 16l-16 8l-16 8l-16 8v16l16 8l16 8l16 8l8 16v32l-8 16l-16 16l-16 8l-16 8h-32l-16 -8l-16 -8l-16 -16l-8 -16h-2l-6 -8l-8 -8h-8l-8 16l8 16l8 16l8 8l8 8l8 8l16 8l16 8l16 8h32 l16 -8l16 -8l16 -8v-2l8 -6l8 -8v-2l8 -6l8 -16l8 -16v-32l-8 -16l-8 -16h-2l-6 -8l-16 -8l16 -8v-2l8 -6l8 -16l8 -16v-32l-8 -16l-8 -16h-2l-6 -8l-8 -8h-2l-6 -8l-16 -8l-16 -8l-16 -8h-32l-16 8l-16 8l-16 8l-8 8l-8 8l-8 8l-8 16zM56 0l8 16l8 16l8 16l8 16l8 16l8 16 l8 16l8 16l8 16l8 16l8 16l8 16l8 16l8 16l8 16l8 16l8 16l8 16l8 16l8 16l8 16l8 16l8 16l8 16l8 16l8 16l8 16l8 16l8 16l8 16l8 16l8 16l8 16l8 16l8 16l8 16l8 16l8 16l8 16l8 16l8 16l8 16h32l-8 -16l-8 -16l-8 -16l-8 -16l-8 -16l-8 -16l-8 -16l-8 -16l-8 -16l-8 -16 l-8 -16l-8 -16l-8 -16l-8 -16l-8 -16l-8 -16l-8 -16l-8 -16l-8 -16l-8 -16l-8 -16l-8 -16l-8 -16l-8 -16l-8 -16l-8 -16l-8 -16l-8 -16l-8 -16l-8 -16l-8 -16l-8 -16l-8 -16l-8 -16l-8 -16l-8 -16l-8 -16l-8 -16l-8 -16l-8 -16l-8 -16l-8 -16h-32zM288 64l8 16l8 16l8 16 l8 16l8 16v112l-8 16l-8 16l-8 16v16h24l8 -16l8 -16l8 -16l8 -16v-112l-8 -16l-8 -16l-8 -16l-8 -16h80v128l8 16h16l8 -16v-128h32l16 -8v-16l-16 -8h-32v-32l-8 -16h-16l-8 16v32h-112z" />
<glyph unicode="&#xbf;" horiz-adv-x="512" d="M32 -48l8 16l8 16l8 16l8 16l16 16l16 16l16 8l16 8l16 8l16 8l16 16l8 16l8 16v112l8 16h32l8 -16v-128l-8 -16l-8 -16l-16 -16l-16 -8l-16 -8l-16 -8l-16 -8l-16 -16l-16 -16l-16 -16l-8 -16l-8 -16v-80l8 -16l8 -16l16 -16l16 -16l16 -16l16 -8l16 -8h96l16 8l16 8 l16 8l-16 8l-8 16l-8 16v16l8 16l8 16l16 8l16 8h16l16 -8l16 -8l8 -16l8 -16v-16l-8 -16l-8 -16l-16 -16l-16 -16l-16 -8l-16 -8l-16 -8l-16 -8l-16 -8h-96l-16 8l-16 8l-16 8l-16 8l-16 8l-16 16l-16 16l-8 16l-8 16l-8 16l-8 16v80zM160 352v16l8 16l8 16l16 8l16 8h16 l16 -8l16 -8l8 -16l8 -16v-16l-8 -16l-8 -16l-16 -8l-16 -8h-16l-16 8l-16 8l-8 16z" />
<glyph unicode="&#xc0;" horiz-adv-x="944" d="M0 8v24l16 8h68l4 8l8 16l8 16l8 16l8 16l8 16l8 16l8 16l8 16l8 16l8 16l8 16l8 16l8 16l8 16l8 16l8 16l8 16l8 16l8 16l8 16l8 16l8 16l8 16l8 16l8 16l8 16l8 16l8 16l8 16l8 16l8 16l8 16l8 16l8 16l8 16l8 16l8 16l8 16l8 8l16 8l16 -8v-2l8 -6l8 -16l8 -16l8 -16 l8 -16l8 -16l8 -16l8 -16l8 -16l8 -16l8 -16l8 -16l8 -16l8 -16l8 -16l8 -16l8 -16l8 -16l8 -16l8 -16l8 -16l8 -16l8 -16l8 -16l8 -16l8 -16l8 -16l8 -16l8 -16l8 -16l8 -16l8 -16l8 -16l8 -16l8 -16l8 -16l8 -16l8 -16l8 -16l4 -8h68l16 -8v-24l-16 -8h-192l-16 8v24l16 8 h76l-4 8l-8 16l-8 16l-8 16l-8 16l-8 16l-8 16l-8 16h-448l-8 -16l-8 -16l-8 -16l-8 -16l-8 -16l-8 -16l-8 -16l-4 -8h76l16 -8v-24l-16 -8h-192zM212 200h408l-4 8l-8 16l-8 16l-8 16l-8 16l-8 16l-8 16l-8 16l-8 16l-8 16l-8 16l-8 16l-8 16l-8 16l-8 16l-8 16l-8 16 l-8 16l-8 16l-8 16l-8 16l-8 16l-8 16l-8 16l-8 16l-8 16l-8 -16l-8 -16l-8 -16l-8 -16l-8 -16l-8 -16l-8 -16l-8 -16l-8 -16l-8 -16l-8 -16l-8 -16l-8 -16l-8 -16l-8 -16l-8 -16l-8 -16l-8 -16l-8 -16l-8 -16l-8 -16l-8 -16l-8 -16l-8 -16l-8 -16zM328 864l8 16l14 6v2h2 v-2l8 -6l8 -8v-2l8 -6l8 -8v-2l8 -6l8 -8v-2l8 -6l8 -8v-2l8 -6l8 -8v-2l8 -6l8 -8v-2l8 -6l8 -8v-2l8 -6l8 -8v-2l8 -6l8 -8v-2l8 -6l8 -8v-2l8 -6l8 -8v-8l-16 -16h-16l-16 16l-16 16l-16 16l-16 16l-16 16l-16 16l-16 16l-16 16l-16 16l-16 16z" />
<glyph unicode="&#xc1;" horiz-adv-x="944" d="M0 8v24l16 8h68l4 8l8 16l8 16l8 16l8 16l8 16l8 16l8 16l8 16l8 16l8 16l8 16l8 16l8 16l8 16l8 16l8 16l8 16l8 16l8 16l8 16l8 16l8 16l8 16l8 16l8 16l8 16l8 16l8 16l8 16l8 16l8 16l8 16l8 16l8 16l8 16l8 16l8 16l8 16l8 8l16 8l16 -8v-2l8 -6l8 -16l8 -16l8 -16 l8 -16l8 -16l8 -16l8 -16l8 -16l8 -16l8 -16l8 -16l8 -16l8 -16l8 -16l8 -16l8 -16l8 -16l8 -16l8 -16l8 -16l8 -16l8 -16l8 -16l8 -16l8 -16l8 -16l8 -16l8 -16l8 -16l8 -16l8 -16l8 -16l8 -16l8 -16l8 -16l8 -16l8 -16l8 -16l4 -8h68l16 -8v-24l-16 -8h-192l-16 8v24l16 8 h76l-4 8l-8 16l-8 16l-8 16l-8 16l-8 16l-8 16l-8 16h-448l-8 -16l-8 -16l-8 -16l-8 -16l-8 -16l-8 -16l-8 -16l-4 -8h76l16 -8v-24l-16 -8h-192zM212 200h408l-4 8l-8 16l-8 16l-8 16l-8 16l-8 16l-8 16l-8 16l-8 16l-8 16l-8 16l-8 16l-8 16l-8 16l-8 16l-8 16l-8 16 l-8 16l-8 16l-8 16l-8 16l-8 16l-8 16l-8 16l-8 16l-8 16l-8 -16l-8 -16l-8 -16l-8 -16l-8 -16l-8 -16l-8 -16l-8 -16l-8 -16l-8 -16l-8 -16l-8 -16l-8 -16l-8 -16l-8 -16l-8 -16l-8 -16l-8 -16l-8 -16l-8 -16l-8 -16l-8 -16l-8 -16l-8 -16l-8 -16zM304 704v8l8 8l8 8l8 8 l8 8l8 8l8 8l8 8l8 8l8 8l8 8l8 8l8 8l8 8l8 8l8 8l8 8l8 8l8 8l8 8l8 8l8 8l8 8l16 -8l8 -16l-8 -16l-16 -16l-16 -16l-16 -16l-16 -16l-16 -16l-16 -16l-16 -16l-16 -16l-16 -16l-16 -16h-16z" />
<glyph unicode="&#xc2;" horiz-adv-x="944" d="M0 8v24l16 8h68l4 8l8 16l8 16l8 16l8 16l8 16l8 16l8 16l8 16l8 16l8 16l8 16l8 16l8 16l8 16l8 16l8 16l8 16l8 16l8 16l8 16l8 16l8 16l8 16l8 16l8 16l8 16l8 16l8 16l8 16l8 16l8 16l8 16l8 16l8 16l8 16l8 16l8 16l8 16l8 8l16 8l16 -8v-2l8 -6l8 -16l8 -16l8 -16 l8 -16l8 -16l8 -16l8 -16l8 -16l8 -16l8 -16l8 -16l8 -16l8 -16l8 -16l8 -16l8 -16l8 -16l8 -16l8 -16l8 -16l8 -16l8 -16l8 -16l8 -16l8 -16l8 -16l8 -16l8 -16l8 -16l8 -16l8 -16l8 -16l8 -16l8 -16l8 -16l8 -16l8 -16l8 -16l4 -8h68l16 -8v-24l-16 -8h-192l-16 8v24l16 8 h76l-4 8l-8 16l-8 16l-8 16l-8 16l-8 16l-8 16l-8 16h-448l-8 -16l-8 -16l-8 -16l-8 -16l-8 -16l-8 -16l-8 -16l-4 -8h76l16 -8v-24l-16 -8h-192zM212 200h408l-4 8l-8 16l-8 16l-8 16l-8 16l-8 16l-8 16l-8 16l-8 16l-8 16l-8 16l-8 16l-8 16l-8 16l-8 16l-8 16l-8 16 l-8 16l-8 16l-8 16l-8 16l-8 16l-8 16l-8 16l-8 16l-8 16l-8 -16l-8 -16l-8 -16l-8 -16l-8 -16l-8 -16l-8 -16l-8 -16l-8 -16l-8 -16l-8 -16l-8 -16l-8 -16l-8 -16l-8 -16l-8 -16l-8 -16l-8 -16l-8 -16l-8 -16l-8 -16l-8 -16l-8 -16l-8 -16l-8 -16zM224 688v8l8 8l8 8l8 8 l8 8l8 8l8 8l8 8l8 8l8 8l8 8l8 8l8 8l8 8l8 8l8 8l8 8l8 8l8 8l8 8l8 8l8 8l8 8l8 8h16l8 -8v-2l8 -6l8 -8v-2l8 -6l8 -8v-2l8 -6l8 -8v-2l8 -6l8 -8v-2l8 -6l8 -8v-2l8 -6l8 -8v-2l8 -6l8 -8v-2l8 -6l8 -8v-2l8 -6l8 -8v-2l8 -6l8 -8v-2l8 -6l8 -8v-8h-48l-16 16l-16 16 l-16 16l-16 16l-16 16l-16 16l-16 16l-16 16l-16 16l-16 -16l-16 -16l-16 -16l-16 -16l-16 -16l-16 -16l-16 -16l-16 -16l-16 -16h-48z" />
<glyph unicode="&#xc3;" horiz-adv-x="944" d="M0 8v24l16 8h68l4 8l8 16l8 16l8 16l8 16l8 16l8 16l8 16l8 16l8 16l8 16l8 16l8 16l8 16l8 16l8 16l8 16l8 16l8 16l8 16l8 16l8 16l8 16l8 16l8 16l8 16l8 16l8 16l8 16l8 16l8 16l8 16l8 16l8 16l8 16l8 16l8 16l8 16l8 16l8 8l16 8l16 -8v-2l8 -6l8 -16l8 -16l8 -16 l8 -16l8 -16l8 -16l8 -16l8 -16l8 -16l8 -16l8 -16l8 -16l8 -16l8 -16l8 -16l8 -16l8 -16l8 -16l8 -16l8 -16l8 -16l8 -16l8 -16l8 -16l8 -16l8 -16l8 -16l8 -16l8 -16l8 -16l8 -16l8 -16l8 -16l8 -16l8 -16l8 -16l8 -16l8 -16l4 -8h68l16 -8v-24l-16 -8h-192l-16 8v24l16 8 h76l-4 8l-8 16l-8 16l-8 16l-8 16l-8 16l-8 16l-8 16h-448l-8 -16l-8 -16l-8 -16l-8 -16l-8 -16l-8 -16l-8 -16l-4 -8h76l16 -8v-24l-16 -8h-192zM200 720l8 16l8 16l8 16l16 16l16 16l16 8l16 8h80l16 -8l16 -8l16 -16l16 -16l16 -16l16 -16l16 -8h48l16 8l16 8l8 8l8 16 l8 16l8 16h32l8 -16l-8 -16l-8 -16l-8 -16l-16 -16l-16 -16l-16 -8l-16 -8h-64l-16 8l-16 8l-16 8l-8 8l-8 8l-8 8l-8 8l-8 8l-8 8l-16 8l-16 8h-48l-16 -8l-16 -8l-8 -8l-8 -16l-8 -16l-8 -16h-32zM212 200h408l-4 8l-8 16l-8 16l-8 16l-8 16l-8 16l-8 16l-8 16l-8 16 l-8 16l-8 16l-8 16l-8 16l-8 16l-8 16l-8 16l-8 16l-8 16l-8 16l-8 16l-8 16l-8 16l-8 16l-8 16l-8 16l-8 16l-8 -16l-8 -16l-8 -16l-8 -16l-8 -16l-8 -16l-8 -16l-8 -16l-8 -16l-8 -16l-8 -16l-8 -16l-8 -16l-8 -16l-8 -16l-8 -16l-8 -16l-8 -16l-8 -16l-8 -16l-8 -16 l-8 -16l-8 -16l-8 -16l-8 -16z" />
<glyph unicode="&#xc4;" horiz-adv-x="944" d="M0 8v24l16 8h68l4 8l8 16l8 16l8 16l8 16l8 16l8 16l8 16l8 16l8 16l8 16l8 16l8 16l8 16l8 16l8 16l8 16l8 16l8 16l8 16l8 16l8 16l8 16l8 16l8 16l8 16l8 16l8 16l8 16l8 16l8 16l8 16l8 16l8 16l8 16l8 16l8 16l8 16l8 16l8 8l16 8l16 -8v-2l8 -6l8 -16l8 -16l8 -16 l8 -16l8 -16l8 -16l8 -16l8 -16l8 -16l8 -16l8 -16l8 -16l8 -16l8 -16l8 -16l8 -16l8 -16l8 -16l8 -16l8 -16l8 -16l8 -16l8 -16l8 -16l8 -16l8 -16l8 -16l8 -16l8 -16l8 -16l8 -16l8 -16l8 -16l8 -16l8 -16l8 -16l8 -16l8 -16l4 -8h68l16 -8v-24l-16 -8h-192l-16 8v24l16 8 h76l-4 8l-8 16l-8 16l-8 16l-8 16l-8 16l-8 16l-8 16h-448l-8 -16l-8 -16l-8 -16l-8 -16l-8 -16l-8 -16l-8 -16l-4 -8h76l16 -8v-24l-16 -8h-192zM212 200h408l-4 8l-8 16l-8 16l-8 16l-8 16l-8 16l-8 16l-8 16l-8 16l-8 16l-8 16l-8 16l-8 16l-8 16l-8 16l-8 16l-8 16 l-8 16l-8 16l-8 16l-8 16l-8 16l-8 16l-8 16l-8 16l-8 16l-8 -16l-8 -16l-8 -16l-8 -16l-8 -16l-8 -16l-8 -16l-8 -16l-8 -16l-8 -16l-8 -16l-8 -16l-8 -16l-8 -16l-8 -16l-8 -16l-8 -16l-8 -16l-8 -16l-8 -16l-8 -16l-8 -16l-8 -16l-8 -16l-8 -16zM240 736v16l8 16l8 16 l16 8l16 8h16l16 -8l16 -8l8 -16l8 -16v-16l-8 -16l-8 -16l-16 -8l-16 -8h-16l-16 8l-16 8l-8 16zM480 736v16l8 16l8 16l16 8l16 8h16l16 -8l16 -8l8 -16l8 -16v-16l-8 -16l-8 -16l-16 -8l-16 -8h-16l-16 8l-16 8l-8 16z" />
<glyph unicode="&#xc5;" horiz-adv-x="944" d="M0 8v24l16 8h68l4 8l8 16l8 16l8 16l8 16l8 16l8 16l8 16l8 16l8 16l8 16l8 16l8 16l8 16l8 16l8 16l8 16l8 16l8 16l8 16l8 16l8 16l8 16l8 16l8 16l8 16l8 16l8 16l8 16l8 16l8 16l8 16l8 16l8 16l8 16l8 16l8 16l8 16l8 16l8 8l16 8l16 -8v-2l8 -6l8 -16l8 -16l8 -16 l8 -16l8 -16l8 -16l8 -16l8 -16l8 -16l8 -16l8 -16l8 -16l8 -16l8 -16l8 -16l8 -16l8 -16l8 -16l8 -16l8 -16l8 -16l8 -16l8 -16l8 -16l8 -16l8 -16l8 -16l8 -16l8 -16l8 -16l8 -16l8 -16l8 -16l8 -16l8 -16l8 -16l8 -16l8 -16l4 -8h68l16 -8v-24l-16 -8h-192l-16 8v24l16 8 h76l-4 8l-8 16l-8 16l-8 16l-8 16l-8 16l-8 16l-8 16h-448l-8 -16l-8 -16l-8 -16l-8 -16l-8 -16l-8 -16l-8 -16l-4 -8h76l16 -8v-24l-16 -8h-192zM212 200h408l-4 8l-8 16l-8 16l-8 16l-8 16l-8 16l-8 16l-8 16l-8 16l-8 16l-8 16l-8 16l-8 16l-8 16l-8 16l-8 16l-8 16 l-8 16l-8 16l-8 16l-8 16l-8 16l-8 16l-8 16l-8 16l-8 16l-8 -16l-8 -16l-8 -16l-8 -16l-8 -16l-8 -16l-8 -16l-8 -16l-8 -16l-8 -16l-8 -16l-8 -16l-8 -16l-8 -16l-8 -16l-8 -16l-8 -16l-8 -16l-8 -16l-8 -16l-8 -16l-8 -16l-8 -16l-8 -16l-8 -16zM320 752v80l8 16l8 16 l16 16l16 8l16 8h64l16 -8l16 -8l16 -16l8 -16l8 -16v-80l-8 -16l-8 -16l-16 -16l-16 -8l-16 -8h-64l-16 8l-16 8l-16 16l-8 16zM368 752l8 -16l8 -8l16 -8h32l16 8l8 8l8 16v80l-8 16l-8 8l-16 8h-32l-16 -8l-8 -8l-8 -16v-80z" />
<glyph unicode="&#xc6;" horiz-adv-x="976" d="M0 8v24l16 8h68l4 8l8 16l8 16l8 16l8 16l8 16l8 16l8 16l8 16l8 16l8 16l8 16l8 16l8 16l8 16l8 16l8 16l8 16l8 16l8 16l8 16l8 16l8 16l8 16l8 16l8 16l8 16l8 16l8 16l8 16l8 16l8 16l8 16l8 16l8 16l8 16l8 16l4 8h-44l-16 8v24l16 8h512q6 0 10 -6q6 -4 6 -10v-224 l-8 -16h-32l-8 16v200h-352v-256h152v72l8 16h32l8 -16v-192l-8 -16h-32l-8 16v80h-152v-296h352v200l8 16h32l8 -16v-224q0 -8 -6 -12q-4 -4 -10 -4h-512l-16 8v24l16 8h80v120h-224l-8 -16l-8 -16l-8 -16l-8 -16l-8 -16l-8 -16l-8 -16l-4 -8h76l16 -8v-24l-16 -8h-192z M212 200h204v408l-8 -16l-8 -16l-8 -16l-8 -16l-8 -16l-8 -16l-8 -16l-8 -16l-8 -16l-8 -16l-8 -16l-8 -16l-8 -16l-8 -16l-8 -16l-8 -16l-8 -16l-8 -16l-8 -16l-8 -16l-8 -16l-8 -16l-8 -16l-8 -16l-8 -16z" />
<glyph unicode="&#xc7;" horiz-adv-x="608" d="M-16 208v256l8 16l8 16l8 16l8 16l8 16l8 16l8 16l16 16l16 16l16 16l16 16l16 8l16 8l16 8l16 8l16 8h144l16 -8l16 -8l16 -8l16 -8l16 -8l16 -16l16 -16l16 -16h8v64l8 16h32l8 -16v-224l-8 -16h-32l-8 16v64l-8 16l-8 16l-8 16l-8 16l-8 8l-8 8l-8 8l-8 8l-8 8l-16 8 l-16 8l-16 8l-16 8l-16 8h-112l-16 -8l-16 -8l-16 -8l-16 -8l-16 -8l-8 -8h-2l-6 -8l-8 -8h-2l-6 -8l-8 -8l-8 -16l-8 -16l-8 -16l-8 -16l-8 -16l-8 -16v-256l8 -16l8 -16l8 -16l8 -16l8 -16l8 -16l8 -8v-2l8 -6l8 -8v-2l8 -6l8 -8l16 -8l16 -8l16 -8l16 -8l16 -8h112l16 8 l16 8l16 8l16 8l16 8l8 8l8 8l8 8l8 8l8 8l8 16l8 16l8 16v16l16 8h16l16 -8v-16l-8 -16l-8 -16l-8 -16l-8 -16l-16 -16l-16 -16l-16 -16l-16 -16l-16 -8l-16 -8l-16 -8l-16 -8l-16 -8h-48v-24l16 -8l16 -8l16 -16l8 -16l8 -16v-80l-8 -16l-8 -16l-16 -16l-16 -8l-16 -8h-64 l-16 8l-16 8l-16 16l-8 16l8 16h16l16 -8l8 -8l8 -8l16 -8h32l16 8l8 8l8 16v80l-8 16l-8 8l-16 8h-16q-8 0 -12 6q-4 4 -4 10v40h-48l-16 8l-16 8l-16 8l-16 8l-16 8l-16 16l-16 16l-16 16l-16 16l-8 16l-8 16l-8 16l-8 16l-8 16l-8 16z" />
<glyph unicode="&#xc8;" horiz-adv-x="656" d="M0 8v24l16 8h80v592h-80l-16 8v24l16 8h512q6 0 10 -6q6 -4 6 -10v-224l-8 -16h-32l-8 16v200h-352v-256h152v72l8 16h32l8 -16v-192l-8 -16h-32l-8 16v80h-152v-296h352v200l8 16h32l8 -16v-224q0 -8 -6 -12q-4 -4 -10 -4h-512zM184 864l8 16l14 6v2h2v-2l8 -6l8 -8v-2 l8 -6l8 -8v-2l8 -6l8 -8v-2l8 -6l8 -8v-2l8 -6l8 -8v-2l8 -6l8 -8v-2l8 -6l8 -8v-2l8 -6l8 -8v-2l8 -6l8 -8v-2l8 -6l8 -8v-2l8 -6l8 -8v-8l-16 -16h-16l-16 16l-16 16l-16 16l-16 16l-16 16l-16 16l-16 16l-16 16l-16 16l-16 16z" />
<glyph unicode="&#xc9;" horiz-adv-x="656" d="M0 8v24l16 8h80v592h-80l-16 8v24l16 8h512q6 0 10 -6q6 -4 6 -10v-224l-8 -16h-32l-8 16v200h-352v-256h152v72l8 16h32l8 -16v-192l-8 -16h-32l-8 16v80h-152v-296h352v200l8 16h32l8 -16v-224q0 -8 -6 -12q-4 -4 -10 -4h-512zM208 704v8l8 8l8 8l8 8l8 8l8 8l8 8l8 8 l8 8l8 8l8 8l8 8l8 8l8 8l8 8l8 8l8 8l8 8l8 8l8 8l8 8l8 8l8 8l16 -8l8 -16l-8 -16l-16 -16l-16 -16l-16 -16l-16 -16l-16 -16l-16 -16l-16 -16l-16 -16l-16 -16l-16 -16h-16z" />
<glyph unicode="&#xca;" horiz-adv-x="656" d="M0 8v24l16 8h80v592h-80l-16 8v24l16 8h512q6 0 10 -6q6 -4 6 -10v-224l-8 -16h-32l-8 16v200h-352v-256h152v72l8 16h32l8 -16v-192l-8 -16h-32l-8 16v80h-152v-296h352v200l8 16h32l8 -16v-224q0 -8 -6 -12q-4 -4 -10 -4h-512zM112 688v8l8 8l8 8l8 8l8 8l8 8l8 8l8 8 l8 8l8 8l8 8l8 8l8 8l8 8l8 8l8 8l8 8l8 8l8 8l8 8l8 8l8 8l8 8l8 8h16l8 -8v-2l8 -6l8 -8v-2l8 -6l8 -8v-2l8 -6l8 -8v-2l8 -6l8 -8v-2l8 -6l8 -8v-2l8 -6l8 -8v-2l8 -6l8 -8v-2l8 -6l8 -8v-2l8 -6l8 -8v-2l8 -6l8 -8v-2l8 -6l8 -8v-8h-48l-16 16l-16 16l-16 16l-16 16 l-16 16l-16 16l-16 16l-16 16l-16 16l-16 -16l-16 -16l-16 -16l-16 -16l-16 -16l-16 -16l-16 -16l-16 -16l-16 -16h-48z" />
<glyph unicode="&#xcb;" horiz-adv-x="656" d="M0 8v24l16 8h80v592h-80l-16 8v24l16 8h512q6 0 10 -6q6 -4 6 -10v-224l-8 -16h-32l-8 16v200h-352v-256h152v72l8 16h32l8 -16v-192l-8 -16h-32l-8 16v80h-152v-296h352v200l8 16h32l8 -16v-224q0 -8 -6 -12q-4 -4 -10 -4h-512zM128 736v16l8 16l8 16l16 8l16 8h16 l16 -8l16 -8l8 -16l8 -16v-16l-8 -16l-8 -16l-16 -8l-16 -8h-16l-16 8l-16 8l-8 16zM368 736v16l8 16l8 16l16 8l16 8h16l16 -8l16 -8l8 -16l8 -16v-16l-8 -16l-8 -16l-16 -8l-16 -8h-16l-16 8l-16 8l-8 16z" />
<glyph unicode="&#xcc;" horiz-adv-x="544" d="M0 8v24l16 8h176v592h-176l-16 8v24l16 8h400l16 -8v-24l-16 -8h-176v-592h176l16 -8v-24l-16 -8h-400zM136 864l8 16l14 6v2h2v-2l8 -6l8 -8v-2l8 -6l8 -8v-2l8 -6l8 -8v-2l8 -6l8 -8v-2l8 -6l8 -8v-2l8 -6l8 -8v-2l8 -6l8 -8v-2l8 -6l8 -8v-2l8 -6l8 -8v-2l8 -6l8 -8 v-2l8 -6l8 -8v-8l-16 -16h-16l-16 16l-16 16l-16 16l-16 16l-16 16l-16 16l-16 16l-16 16l-16 16l-16 16z" />
<glyph unicode="&#xcd;" horiz-adv-x="544" d="M0 8v24l16 8h176v592h-176l-16 8v24l16 8h400l16 -8v-24l-16 -8h-176v-592h176l16 -8v-24l-16 -8h-400zM96 704v8l8 8l8 8l8 8l8 8l8 8l8 8l8 8l8 8l8 8l8 8l8 8l8 8l8 8l8 8l8 8l8 8l8 8l8 8l8 8l8 8l8 8l8 8l16 -8l8 -16l-8 -16l-16 -16l-16 -16l-16 -16l-16 -16 l-16 -16l-16 -16l-16 -16l-16 -16l-16 -16l-16 -16h-16z" />
<glyph unicode="&#xce;" horiz-adv-x="544" d="M0 8v24l16 8h176v592h-176l-16 8v24l16 8h400l16 -8v-24l-16 -8h-176v-592h176l16 -8v-24l-16 -8h-400zM32 688v8l8 8l8 8l8 8l8 8l8 8l8 8l8 8l8 8l8 8l8 8l8 8l8 8l8 8l8 8l8 8l8 8l8 8l8 8l8 8l8 8l8 8l8 8l8 8h16l8 -8v-2l8 -6l8 -8v-2l8 -6l8 -8v-2l8 -6l8 -8v-2 l8 -6l8 -8v-2l8 -6l8 -8v-2l8 -6l8 -8v-2l8 -6l8 -8v-2l8 -6l8 -8v-2l8 -6l8 -8v-2l8 -6l8 -8v-2l8 -6l8 -8v-8h-48l-16 16l-16 16l-16 16l-16 16l-16 16l-16 16l-16 16l-16 16l-16 16l-16 -16l-16 -16l-16 -16l-16 -16l-16 -16l-16 -16l-16 -16l-16 -16l-16 -16h-48z" />
<glyph unicode="&#xcf;" horiz-adv-x="544" d="M0 8v24l16 8h176v592h-176l-16 8v24l16 8h400l16 -8v-24l-16 -8h-176v-592h176l16 -8v-24l-16 -8h-400zM48 736v16l8 16l8 16l16 8l16 8h16l16 -8l16 -8l8 -16l8 -16v-16l-8 -16l-8 -16l-16 -8l-16 -8h-16l-16 8l-16 8l-8 16zM288 736v16l8 16l8 16l16 8l16 8h16l16 -8 l16 -8l8 -16l8 -16v-16l-8 -16l-8 -16l-16 -8l-16 -8h-16l-16 8l-16 8l-8 16z" />
<glyph unicode="&#xd0;" horiz-adv-x="648" d="M0 8v24l16 8h80v272h-64l-16 8v24l16 8h64v280h-80l-16 8v24l16 8h352l16 -8l16 -8l16 -8l16 -8l16 -16l16 -16l16 -16l16 -16l8 -16l8 -16l8 -16l8 -16l8 -16l8 -16l8 -16v-256l-8 -16l-8 -16l-8 -16l-8 -16l-8 -16l-8 -16l-8 -16l-16 -16l-16 -16l-16 -16l-16 -16 l-16 -8l-16 -8l-16 -8l-16 -8h-352zM144 40h208l16 8l16 8l16 8l16 8l8 8l8 8l8 8l8 8l8 8l8 16l8 16l8 16l8 16l8 16l8 16v256l-8 16l-8 16l-8 16l-8 16l-8 16l-8 16l-8 8l-8 8l-8 8l-8 8l-8 8l-16 8l-16 8l-16 8l-16 8h-208v-280h96l16 -8v-24l-16 -8h-96v-272z" />
<glyph unicode="&#xd1;" horiz-adv-x="704" d="M0 8v24l16 8h80v592h-80l-16 8v24l16 8h144l8 -16l8 -16l8 -16l8 -16l8 -16l8 -16l8 -16l8 -16l8 -16l8 -16l8 -16l8 -16l8 -16l8 -16l8 -16l8 -16l8 -16l8 -16l8 -16l8 -16l8 -16l8 -16l8 -16l8 -16l8 -16l8 -16l8 -16l8 -16l8 -16l8 -16l8 -16l8 -16l8 -16l8 -16l8 -16 l8 -16v536h-80l-16 8v24l16 8h208l16 -8v-24l-16 -8h-80v-616l-8 -16h-40l-8 16l-8 16l-8 16l-8 16l-8 16l-8 16l-8 16l-8 16l-8 16l-8 16l-8 16l-8 16l-8 16l-8 16l-8 16l-8 16l-8 16l-8 16l-8 16l-8 16l-8 16l-8 16l-8 16l-8 16l-8 16l-8 16l-8 16l-8 16l-8 16l-8 16 l-8 16l-8 16l-8 16l-8 16l-8 16l-8 16l-8 16l-8 16v-568h80l16 -8v-24l-16 -8h-208zM72 720l8 16l8 16l8 16l16 16l16 16l16 8l16 8h80l16 -8l16 -8l16 -16l16 -16l16 -16l16 -16l16 -8h48l16 8l16 8l8 8l8 16l8 16l8 16h32l8 -16l-8 -16l-8 -16l-8 -16l-16 -16l-16 -16 l-16 -8l-16 -8h-64l-16 8l-16 8l-16 8l-8 8l-8 8l-8 8l-8 8l-8 8l-8 8l-16 8l-16 8h-48l-16 -8l-16 -8l-8 -8l-8 -16l-8 -16l-8 -16h-32z" />
<glyph unicode="&#xd2;" d="M-16 208v256l8 16l8 16l8 16l8 16l8 16l8 16l8 16l16 16l16 16l16 16l16 16l16 8l16 8l16 8l16 8l16 8h144l16 -8l16 -8l16 -8l16 -8l16 -8l16 -16l16 -16l16 -16l16 -16l8 -16l8 -16l8 -16l8 -16l8 -16l8 -16l8 -16v-256l-8 -16l-8 -16l-8 -16l-8 -16l-8 -16l-8 -16 l-8 -16l-16 -16l-16 -16l-16 -16l-16 -16l-16 -8l-16 -8l-16 -8l-16 -8l-16 -8h-144l-16 8l-16 8l-16 8l-16 8l-16 8l-16 16l-16 16l-16 16l-16 16l-8 16l-8 16l-8 16l-8 16l-8 16l-8 16zM32 208l8 -16l8 -16l8 -16l8 -16l8 -16l8 -16l8 -8v-2l8 -6l8 -8v-2l8 -6l8 -8l16 -8 l16 -8l16 -8l16 -8l16 -8h112l16 8l16 8l16 8l16 8l16 8l8 8l8 8l8 8l8 8l8 8l8 16l8 16l8 16l8 16l8 16l8 16v256l-8 16l-8 16l-8 16l-8 16l-8 16l-8 16l-8 8l-8 8l-8 8l-8 8l-8 8l-16 8l-16 8l-16 8l-16 8l-16 8h-112l-16 -8l-16 -8l-16 -8l-16 -8l-16 -8l-8 -8h-2l-6 -8 l-8 -8h-2l-6 -8l-8 -8l-8 -16l-8 -16l-8 -16l-8 -16l-8 -16l-8 -16v-256zM160 864l8 16l14 6v2h2v-2l8 -6l8 -8v-2l8 -6l8 -8v-2l8 -6l8 -8v-2l8 -6l8 -8v-2l8 -6l8 -8v-2l8 -6l8 -8v-2l8 -6l8 -8v-2l8 -6l8 -8v-2l8 -6l8 -8v-2l8 -6l8 -8v-2l8 -6l8 -8v-8l-16 -16h-16 l-16 16l-16 16l-16 16l-16 16l-16 16l-16 16l-16 16l-16 16l-16 16l-16 16z" />
<glyph unicode="&#xd3;" d="M-16 208v256l8 16l8 16l8 16l8 16l8 16l8 16l8 16l16 16l16 16l16 16l16 16l16 8l16 8l16 8l16 8l16 8h144l16 -8l16 -8l16 -8l16 -8l16 -8l16 -16l16 -16l16 -16l16 -16l8 -16l8 -16l8 -16l8 -16l8 -16l8 -16l8 -16v-256l-8 -16l-8 -16l-8 -16l-8 -16l-8 -16l-8 -16 l-8 -16l-16 -16l-16 -16l-16 -16l-16 -16l-16 -8l-16 -8l-16 -8l-16 -8l-16 -8h-144l-16 8l-16 8l-16 8l-16 8l-16 8l-16 16l-16 16l-16 16l-16 16l-8 16l-8 16l-8 16l-8 16l-8 16l-8 16zM32 208l8 -16l8 -16l8 -16l8 -16l8 -16l8 -16l8 -8v-2l8 -6l8 -8v-2l8 -6l8 -8l16 -8 l16 -8l16 -8l16 -8l16 -8h112l16 8l16 8l16 8l16 8l16 8l8 8l8 8l8 8l8 8l8 8l8 16l8 16l8 16l8 16l8 16l8 16v256l-8 16l-8 16l-8 16l-8 16l-8 16l-8 16l-8 8l-8 8l-8 8l-8 8l-8 8l-16 8l-16 8l-16 8l-16 8l-16 8h-112l-16 -8l-16 -8l-16 -8l-16 -8l-16 -8l-8 -8h-2l-6 -8 l-8 -8h-2l-6 -8l-8 -8l-8 -16l-8 -16l-8 -16l-8 -16l-8 -16l-8 -16v-256zM152 704v8l8 8l8 8l8 8l8 8l8 8l8 8l8 8l8 8l8 8l8 8l8 8l8 8l8 8l8 8l8 8l8 8l8 8l8 8l8 8l8 8l8 8l8 8l16 -8l8 -16l-8 -16l-16 -16l-16 -16l-16 -16l-16 -16l-16 -16l-16 -16l-16 -16l-16 -16 l-16 -16l-16 -16h-16z" />
<glyph unicode="&#xd4;" d="M-16 208v256l8 16l8 16l8 16l8 16l8 16l8 16l8 16l16 16l16 16l16 16l16 16l16 8l16 8l16 8l16 8l16 8h144l16 -8l16 -8l16 -8l16 -8l16 -8l16 -16l16 -16l16 -16l16 -16l8 -16l8 -16l8 -16l8 -16l8 -16l8 -16l8 -16v-256l-8 -16l-8 -16l-8 -16l-8 -16l-8 -16l-8 -16 l-8 -16l-16 -16l-16 -16l-16 -16l-16 -16l-16 -8l-16 -8l-16 -8l-16 -8l-16 -8h-144l-16 8l-16 8l-16 8l-16 8l-16 8l-16 16l-16 16l-16 16l-16 16l-8 16l-8 16l-8 16l-8 16l-8 16l-8 16zM32 208l8 -16l8 -16l8 -16l8 -16l8 -16l8 -16l8 -8v-2l8 -6l8 -8v-2l8 -6l8 -8l16 -8 l16 -8l16 -8l16 -8l16 -8h112l16 8l16 8l16 8l16 8l16 8l8 8l8 8l8 8l8 8l8 8l8 16l8 16l8 16l8 16l8 16l8 16v256l-8 16l-8 16l-8 16l-8 16l-8 16l-8 16l-8 8l-8 8l-8 8l-8 8l-8 8l-16 8l-16 8l-16 8l-16 8l-16 8h-112l-16 -8l-16 -8l-16 -8l-16 -8l-16 -8l-8 -8h-2l-6 -8 l-8 -8h-2l-6 -8l-8 -8l-8 -16l-8 -16l-8 -16l-8 -16l-8 -16l-8 -16v-256zM56 688v8l8 8l8 8l8 8l8 8l8 8l8 8l8 8l8 8l8 8l8 8l8 8l8 8l8 8l8 8l8 8l8 8l8 8l8 8l8 8l8 8l8 8l8 8l8 8h16l8 -8v-2l8 -6l8 -8v-2l8 -6l8 -8v-2l8 -6l8 -8v-2l8 -6l8 -8v-2l8 -6l8 -8v-2l8 -6 l8 -8v-2l8 -6l8 -8v-2l8 -6l8 -8v-2l8 -6l8 -8v-2l8 -6l8 -8v-2l8 -6l8 -8v-8h-48l-16 16l-16 16l-16 16l-16 16l-16 16l-16 16l-16 16l-16 16l-16 16l-16 -16l-16 -16l-16 -16l-16 -16l-16 -16l-16 -16l-16 -16l-16 -16l-16 -16h-48z" />
<glyph unicode="&#xd5;" d="M-16 208v256l8 16l8 16l8 16l8 16l8 16l8 16l8 16l16 16l16 16l16 16l16 16l16 8l16 8l16 8l16 8l16 8h144l16 -8l16 -8l16 -8l16 -8l16 -8l16 -16l16 -16l16 -16l16 -16l8 -16l8 -16l8 -16l8 -16l8 -16l8 -16l8 -16v-256l-8 -16l-8 -16l-8 -16l-8 -16l-8 -16l-8 -16 l-8 -16l-16 -16l-16 -16l-16 -16l-16 -16l-16 -8l-16 -8l-16 -8l-16 -8l-16 -8h-144l-16 8l-16 8l-16 8l-16 8l-16 8l-16 16l-16 16l-16 16l-16 16l-8 16l-8 16l-8 16l-8 16l-8 16l-8 16zM32 208l8 -16l8 -16l8 -16l8 -16l8 -16l8 -16l8 -8v-2l8 -6l8 -8v-2l8 -6l8 -8l16 -8 l16 -8l16 -8l16 -8l16 -8h112l16 8l16 8l16 8l16 8l16 8l8 8l8 8l8 8l8 8l8 8l8 16l8 16l8 16l8 16l8 16l8 16v256l-8 16l-8 16l-8 16l-8 16l-8 16l-8 16l-8 8l-8 8l-8 8l-8 8l-8 8l-16 8l-16 8l-16 8l-16 8l-16 8h-112l-16 -8l-16 -8l-16 -8l-16 -8l-16 -8l-8 -8h-2l-6 -8 l-8 -8h-2l-6 -8l-8 -8l-8 -16l-8 -16l-8 -16l-8 -16l-8 -16l-8 -16v-256zM48 720l8 16l8 16l8 16l16 16l16 16l16 8l16 8h80l16 -8l16 -8l16 -16l16 -16l16 -16l16 -16l16 -8h48l16 8l16 8l8 8l8 16l8 16l8 16h32l8 -16l-8 -16l-8 -16l-8 -16l-16 -16l-16 -16l-16 -8l-16 -8 h-64l-16 8l-16 8l-16 8l-8 8l-8 8l-8 8l-8 8l-8 8l-8 8l-16 8l-16 8h-48l-16 -8l-16 -8l-8 -8l-8 -16l-8 -16l-8 -16h-32z" />
<glyph unicode="&#xd6;" d="M-16 208v256l8 16l8 16l8 16l8 16l8 16l8 16l8 16l16 16l16 16l16 16l16 16l16 8l16 8l16 8l16 8l16 8h144l16 -8l16 -8l16 -8l16 -8l16 -8l16 -16l16 -16l16 -16l16 -16l8 -16l8 -16l8 -16l8 -16l8 -16l8 -16l8 -16v-256l-8 -16l-8 -16l-8 -16l-8 -16l-8 -16l-8 -16 l-8 -16l-16 -16l-16 -16l-16 -16l-16 -16l-16 -8l-16 -8l-16 -8l-16 -8l-16 -8h-144l-16 8l-16 8l-16 8l-16 8l-16 8l-16 16l-16 16l-16 16l-16 16l-8 16l-8 16l-8 16l-8 16l-8 16l-8 16zM32 208l8 -16l8 -16l8 -16l8 -16l8 -16l8 -16l8 -8v-2l8 -6l8 -8v-2l8 -6l8 -8l16 -8 l16 -8l16 -8l16 -8l16 -8h112l16 8l16 8l16 8l16 8l16 8l8 8l8 8l8 8l8 8l8 8l8 16l8 16l8 16l8 16l8 16l8 16v256l-8 16l-8 16l-8 16l-8 16l-8 16l-8 16l-8 8l-8 8l-8 8l-8 8l-8 8l-16 8l-16 8l-16 8l-16 8l-16 8h-112l-16 -8l-16 -8l-16 -8l-16 -8l-16 -8l-8 -8h-2l-6 -8 l-8 -8h-2l-6 -8l-8 -8l-8 -16l-8 -16l-8 -16l-8 -16l-8 -16l-8 -16v-256zM72 736v16l8 16l8 16l16 8l16 8h16l16 -8l16 -8l8 -16l8 -16v-16l-8 -16l-8 -16l-16 -8l-16 -8h-16l-16 8l-16 8l-8 16zM328 736v16l8 16l8 16l16 8l16 8h16l16 -8l16 -8l8 -16l8 -16v-16l-8 -16 l-8 -16l-16 -8l-16 -8h-16l-16 8l-16 8l-8 16z" />
<glyph unicode="&#xd7;" horiz-adv-x="464" d="M0 176v16l16 16l16 16l16 16l16 16l16 16l16 16l16 16l16 16l16 16l-16 16l-16 16l-16 16l-16 16l-16 16l-16 16l-16 16l-16 16l-16 16v16l16 16h16l16 -16l16 -16l16 -16l16 -16l16 -16l16 -16l16 -16l16 -16l16 -16l16 16l16 16l16 16l16 16l16 16l16 16l16 16l16 16 l16 16h16l16 -16v-16l-16 -16l-16 -16l-16 -16l-16 -16l-16 -16l-16 -16l-16 -16l-16 -16l-16 -16l16 -16l16 -16l16 -16l16 -16l16 -16l16 -16l16 -16l16 -16l16 -16v-16l-16 -16h-16l-16 16l-16 16l-16 16l-16 16l-16 16l-16 16l-16 16l-16 16l-16 16l-16 -16l-16 -16 l-16 -16l-16 -16l-16 -16l-16 -16l-16 -16l-16 -16l-16 -16h-16z" />
<glyph unicode="&#xd8;" d="M-16 208v256l8 16l8 16l8 16l8 16l8 16l8 16l8 16l16 16l16 16l16 16l16 16l16 8l16 8l16 8l16 8l16 8h144l16 -8l16 -8l16 -8l6 -4l2 4l8 8l8 8h24l8 -16l-8 -16l-6 -12l6 -4l16 -16l16 -16l16 -16l8 -16l8 -16l8 -16l8 -16l8 -16l8 -16l8 -16v-256l-8 -16l-8 -16 l-8 -16l-8 -16l-8 -16l-8 -16l-8 -16l-16 -16l-16 -16l-16 -16l-16 -16l-16 -8l-16 -8l-16 -8l-16 -8l-16 -8h-144l-16 8l-16 8l-16 8l-16 8h-4l-4 -8h-2l-6 -8l-8 -8h-24l-8 16l8 16l8 16l2 4l-10 12l-16 16l-16 16l-8 16l-8 16l-8 16l-8 16l-8 16l-8 16zM32 208l8 -16 l8 -16l8 -16l8 -16l8 -16l8 -16l8 -8v-2l8 -6l4 -6l4 6l8 16l8 16l8 16l8 16l8 16l8 16l8 16l8 16l8 16l8 16l8 16l8 16l8 16l8 16l8 16l8 16l8 16l8 16l8 16l8 16l8 16l8 16l8 16l8 16l8 16l8 16l8 16l8 16l8 16l8 16l8 16l8 16l2 6l-2 2l-16 8l-16 8l-16 8h-112l-16 -8 l-16 -8l-16 -8l-16 -8l-16 -8l-8 -8h-2l-6 -8l-8 -8h-2l-6 -8l-8 -8l-8 -16l-8 -16l-8 -16l-8 -16l-8 -16l-8 -16v-256zM136 64l16 -8l16 -8l16 -8l16 -8h112l16 8l16 8l16 8l16 8l16 8l8 8l8 8l8 8l8 8l8 8l8 16l8 16l8 16l8 16l8 16l8 16v256l-8 16l-8 16l-8 16l-8 16 l-8 16l-8 16l-8 8l-8 8l-8 8l-8 8l-8 -16l-8 -16l-8 -16l-8 -16l-8 -16l-8 -16l-8 -16l-8 -16l-8 -16l-8 -16l-8 -16l-8 -16l-8 -16l-8 -16l-8 -16l-8 -16l-8 -16l-8 -16l-8 -16l-8 -16l-8 -16l-8 -16l-8 -16l-8 -16l-8 -16l-8 -16l-8 -16l-8 -16l-8 -16l-8 -16l-8 -16 l-8 -16z" />
<glyph unicode="&#xd9;" horiz-adv-x="752" d="M0 640v24l16 8h208l16 -8v-24l-16 -8h-80v-488l8 -16l8 -16l8 -16l8 -8v-2l8 -6l8 -8v-2l8 -6l8 -8l16 -8l16 -8l16 -8h128l16 8l16 8l16 8l8 8l8 8l8 8l8 8l8 8l8 16l8 16l8 16v488h-80l-16 8v24l16 8h208l16 -8v-24l-16 -8h-80v-488l-8 -16l-8 -16l-8 -16l-8 -16 l-16 -16l-16 -16l-16 -16l-16 -16l-16 -8l-16 -8l-16 -8h-160l-16 8l-16 8l-16 8l-16 16l-16 16l-16 16l-16 16l-8 16l-8 16l-8 16l-8 16v488h-80zM216 864l8 16l14 6v2h2v-2l8 -6l8 -8v-2l8 -6l8 -8v-2l8 -6l8 -8v-2l8 -6l8 -8v-2l8 -6l8 -8v-2l8 -6l8 -8v-2l8 -6l8 -8v-2 l8 -6l8 -8v-2l8 -6l8 -8v-2l8 -6l8 -8v-2l8 -6l8 -8v-8l-16 -16h-16l-16 16l-16 16l-16 16l-16 16l-16 16l-16 16l-16 16l-16 16l-16 16l-16 16z" />
<glyph unicode="&#xda;" horiz-adv-x="752" d="M0 640v24l16 8h208l16 -8v-24l-16 -8h-80v-488l8 -16l8 -16l8 -16l8 -8v-2l8 -6l8 -8v-2l8 -6l8 -8l16 -8l16 -8l16 -8h128l16 8l16 8l16 8l8 8l8 8l8 8l8 8l8 8l8 16l8 16l8 16v488h-80l-16 8v24l16 8h208l16 -8v-24l-16 -8h-80v-488l-8 -16l-8 -16l-8 -16l-8 -16 l-16 -16l-16 -16l-16 -16l-16 -16l-16 -8l-16 -8l-16 -8h-160l-16 8l-16 8l-16 8l-16 16l-16 16l-16 16l-16 16l-8 16l-8 16l-8 16l-8 16v488h-80zM208 704v8l8 8l8 8l8 8l8 8l8 8l8 8l8 8l8 8l8 8l8 8l8 8l8 8l8 8l8 8l8 8l8 8l8 8l8 8l8 8l8 8l8 8l8 8l16 -8l8 -16l-8 -16 l-16 -16l-16 -16l-16 -16l-16 -16l-16 -16l-16 -16l-16 -16l-16 -16l-16 -16l-16 -16h-16z" />
<glyph unicode="&#xdb;" horiz-adv-x="752" d="M0 640v24l16 8h208l16 -8v-24l-16 -8h-80v-488l8 -16l8 -16l8 -16l8 -8v-2l8 -6l8 -8v-2l8 -6l8 -8l16 -8l16 -8l16 -8h128l16 8l16 8l16 8l8 8l8 8l8 8l8 8l8 8l8 16l8 16l8 16v488h-80l-16 8v24l16 8h208l16 -8v-24l-16 -8h-80v-488l-8 -16l-8 -16l-8 -16l-8 -16 l-16 -16l-16 -16l-16 -16l-16 -16l-16 -8l-16 -8l-16 -8h-160l-16 8l-16 8l-16 8l-16 16l-16 16l-16 16l-16 16l-8 16l-8 16l-8 16l-8 16v488h-80zM128 688v8l8 8l8 8l8 8l8 8l8 8l8 8l8 8l8 8l8 8l8 8l8 8l8 8l8 8l8 8l8 8l8 8l8 8l8 8l8 8l8 8l8 8l8 8l8 8h16l8 -8v-2 l8 -6l8 -8v-2l8 -6l8 -8v-2l8 -6l8 -8v-2l8 -6l8 -8v-2l8 -6l8 -8v-2l8 -6l8 -8v-2l8 -6l8 -8v-2l8 -6l8 -8v-2l8 -6l8 -8v-2l8 -6l8 -8v-2l8 -6l8 -8v-8h-48l-16 16l-16 16l-16 16l-16 16l-16 16l-16 16l-16 16l-16 16l-16 16l-16 -16l-16 -16l-16 -16l-16 -16l-16 -16 l-16 -16l-16 -16l-16 -16l-16 -16h-48z" />
<glyph unicode="&#xdc;" horiz-adv-x="752" d="M0 640v24l16 8h208l16 -8v-24l-16 -8h-80v-488l8 -16l8 -16l8 -16l8 -8v-2l8 -6l8 -8v-2l8 -6l8 -8l16 -8l16 -8l16 -8h128l16 8l16 8l16 8l8 8l8 8l8 8l8 8l8 8l8 16l8 16l8 16v488h-80l-16 8v24l16 8h208l16 -8v-24l-16 -8h-80v-488l-8 -16l-8 -16l-8 -16l-8 -16 l-16 -16l-16 -16l-16 -16l-16 -16l-16 -8l-16 -8l-16 -8h-160l-16 8l-16 8l-16 8l-16 16l-16 16l-16 16l-16 16l-8 16l-8 16l-8 16l-8 16v488h-80zM144 736v16l8 16l8 16l16 8l16 8h16l16 -8l16 -8l8 -16l8 -16v-16l-8 -16l-8 -16l-16 -8l-16 -8h-16l-16 8l-16 8l-8 16z M384 736v16l8 16l8 16l16 8l16 8h16l16 -8l16 -8l8 -16l8 -16v-16l-8 -16l-8 -16l-16 -8l-16 -8h-16l-16 8l-16 8l-8 16z" />
<glyph unicode="&#xdd;" horiz-adv-x="608" d="M0 640v24l16 8h192l16 -8v-24l-16 -8h-76l4 -8l8 -16l8 -16l8 -16l8 -16l8 -16l8 -16l8 -16l8 -16l8 -16l8 -16l8 -16l8 -16l8 -16l8 -16l8 16l8 16l8 16l8 16l8 16l8 16l8 16l8 16l8 16l8 16l8 16l8 16l8 16l8 16l4 8h-76l-16 8v24l16 8h192l16 -8v-24l-16 -8h-68l-4 -8 l-8 -16l-8 -16l-8 -16l-8 -16l-8 -16l-8 -16l-8 -16l-8 -16l-8 -16l-8 -16l-8 -16l-8 -16l-8 -16l-8 -16l-8 -16l-8 -16l-8 -16v-312h176l16 -8v-24l-16 -8h-400l-16 8v24l16 8h176v312l-8 16l-8 16l-8 16l-8 16l-8 16l-8 16l-8 16l-8 16l-8 16l-8 16l-8 16l-8 16l-8 16 l-8 16l-8 16l-8 16l-8 16l-4 8h-68zM144 704v8l8 8l8 8l8 8l8 8l8 8l8 8l8 8l8 8l8 8l8 8l8 8l8 8l8 8l8 8l8 8l8 8l8 8l8 8l8 8l8 8l8 8l8 8l16 -8l8 -16l-8 -16l-16 -16l-16 -16l-16 -16l-16 -16l-16 -16l-16 -16l-16 -16l-16 -16l-16 -16l-16 -16h-16z" />
<glyph unicode="&#xde;" horiz-adv-x="568" d="M-48 8v24l16 8h80v592h-80l-16 8v24l16 8h112q6 0 10 -6q6 -4 6 -10v-128l16 8l16 8l16 8l16 8l16 8h144l16 -8l16 -8l16 -8l16 -16l16 -16l16 -16l16 -16l8 -16l8 -16l8 -16l8 -16l8 -16v-128l-8 -16l-8 -16l-8 -16l-8 -16l-8 -16l-16 -16l-16 -16l-16 -16l-16 -16 l-16 -8l-16 -8l-16 -8h-144l-16 8l-16 8l-16 8l-16 8l-16 8v-128q0 -8 -6 -12q-4 -4 -10 -4h-112zM96 192l16 -8l16 -8l16 -8l16 -8l16 -8l16 -8h112l16 8l16 8l16 16l16 16l16 16l16 16l8 16l8 16l8 16v128l-8 16l-8 16l-8 16l-16 16l-16 16l-16 16l-16 16l-16 8l-16 8 h-112l-16 -8l-16 -8l-16 -8l-16 -8l-16 -8l-16 -8v-288z" />
<glyph unicode="&#xdf;" horiz-adv-x="576" d="M0 8v24l16 8h80v488l8 16l8 16l8 16l8 8l8 8l8 8l8 8l8 8l16 8l16 8l16 8l16 8h64l16 -8l16 -8l16 -8l16 -8v-2l8 -6l8 -8v-2l8 -6l8 -8v-2l8 -6l8 -16v-48l-8 -16l-8 -16l-8 -16l-8 -16l-8 -16v-16l8 -16l16 -16l16 -16l16 -16l8 -16l8 -16l8 -16l8 -16l8 -16l8 -16v-96 l-8 -16l-8 -16l-8 -16l-8 -16l-8 -16h-2l-6 -8l-8 -8h-2l-6 -8l-8 -8h-2l-6 -8l-8 -8h-2l-6 -8l-16 -8l-16 -8l-16 -8l-16 -8h-48l-16 8l-16 8l-16 8l-16 8l-8 8v16l8 8h16l16 -8l16 -8l16 -8h48l16 8l16 8l16 16l16 16l16 16l8 16l8 16l8 16l8 16v96l-8 16l-8 16l-8 16 l-8 16l-16 16l-16 16l-16 16l-8 16l-8 16l-8 16v16l8 16l8 16l8 16l8 16l8 16v32l-8 16l-8 16l-16 16l-16 8l-16 8h-64l-16 -8l-16 -8l-16 -16l-16 -16l-8 -16l-8 -16v-512q0 -8 -6 -12q-4 -4 -10 -4h-112z" />
<glyph unicode="&#xe0;" horiz-adv-x="592" d="M0 96v64l8 16l8 16l16 16l16 16l16 16l16 8l16 8l16 8l16 8l16 8h144l16 8l8 16l8 16v48l-8 16l-8 16l-16 16l-16 8l-16 8l-16 8h-96l-16 -8l-16 -8v-8l8 -16l8 -16v-16l-8 -16l-8 -16l-16 -8l-16 -8h-16l-16 8l-16 8l-8 16l-8 16v16l8 16l8 16l16 16l16 16l16 8l16 8 l16 8l16 8h128l16 -8l16 -8l16 -8l16 -8l16 -16l16 -16l8 -16l8 -16v-304l8 -16l8 -16l16 -16h16l16 16v16l8 16h32l8 -16v-16l-8 -16l-8 -16l-16 -8l-16 -8h-64l-16 8l-16 8l-8 16l-8 16l-16 -16l-16 -16l-16 -8l-16 -8l-16 -8h-112l-16 8l-16 8l-16 8l-16 8l-16 8l-16 16 l-16 16l-8 16zM48 112l8 -16l8 -16l16 -16l16 -16l16 -8l16 -8h96l16 8l16 8l16 16l16 16l8 16l8 16l8 16l8 16v72l-16 8l-16 8l-16 8h-112l-16 -8l-16 -8l-16 -8l-16 -8l-16 -16l-16 -16l-8 -16l-8 -16v-32zM104 672l8 16l14 6v2h2v-2l8 -6l8 -8v-2l8 -6l8 -8v-2l8 -6l8 -8 v-2l8 -6l8 -8v-2l8 -6l8 -8v-2l8 -6l8 -8v-2l8 -6l8 -8v-2l8 -6l8 -8v-2l8 -6l8 -8v-2l8 -6l8 -8v-2l8 -6l8 -8v-8l-16 -16h-16l-16 16l-16 16l-16 16l-16 16l-16 16l-16 16l-16 16l-16 16l-16 16l-16 16z" />
<glyph unicode="&#xe1;" horiz-adv-x="592" d="M0 96v64l8 16l8 16l16 16l16 16l16 16l16 8l16 8l16 8l16 8l16 8h144l16 8l8 16l8 16v48l-8 16l-8 16l-16 16l-16 8l-16 8l-16 8h-96l-16 -8l-16 -8v-8l8 -16l8 -16v-16l-8 -16l-8 -16l-16 -8l-16 -8h-16l-16 8l-16 8l-8 16l-8 16v16l8 16l8 16l16 16l16 16l16 8l16 8 l16 8l16 8h128l16 -8l16 -8l16 -8l16 -8l16 -16l16 -16l8 -16l8 -16v-304l8 -16l8 -16l16 -16h16l16 16v16l8 16h32l8 -16v-16l-8 -16l-8 -16l-16 -8l-16 -8h-64l-16 8l-16 8l-8 16l-8 16l-16 -16l-16 -16l-16 -8l-16 -8l-16 -8h-112l-16 8l-16 8l-16 8l-16 8l-16 8l-16 16 l-16 16l-8 16zM48 112l8 -16l8 -16l16 -16l16 -16l16 -8l16 -8h96l16 8l16 8l16 16l16 16l8 16l8 16l8 16l8 16v72l-16 8l-16 8l-16 8h-112l-16 -8l-16 -8l-16 -8l-16 -8l-16 -16l-16 -16l-8 -16l-8 -16v-32zM96 512v8l8 8l8 8l8 8l8 8l8 8l8 8l8 8l8 8l8 8l8 8l8 8l8 8l8 8 l8 8l8 8l8 8l8 8l8 8l8 8l8 8l8 8l8 8l16 -8l8 -16l-8 -16l-16 -16l-16 -16l-16 -16l-16 -16l-16 -16l-16 -16l-16 -16l-16 -16l-16 -16l-16 -16h-16z" />
<glyph unicode="&#xe2;" horiz-adv-x="592" d="M0 96v64l8 16l8 16l16 16l16 16l16 16l16 8l16 8l16 8l16 8l16 8h144l16 8l8 16l8 16v48l-8 16l-8 16l-16 16l-16 8l-16 8l-16 8h-96l-16 -8l-16 -8v-8l8 -16l8 -16v-16l-8 -16l-8 -16l-16 -8l-16 -8h-16l-16 8l-16 8l-8 16l-8 16v16l8 16l8 16l16 16l16 16l16 8l16 8 l16 8l16 8h128l16 -8l16 -8l16 -8l16 -8l16 -16l16 -16l8 -16l8 -16v-304l8 -16l8 -16l16 -16h16l16 16v16l8 16h32l8 -16v-16l-8 -16l-8 -16l-16 -8l-16 -8h-64l-16 8l-16 8l-8 16l-8 16l-16 -16l-16 -16l-16 -8l-16 -8l-16 -8h-112l-16 8l-16 8l-16 8l-16 8l-16 8l-16 16 l-16 16l-8 16zM16 496v8l8 8l8 8l8 8l8 8l8 8l8 8l8 8l8 8l8 8l8 8l8 8l8 8l8 8l8 8l8 8l8 8l8 8l8 8l8 8l8 8l8 8l8 8l8 8h16l8 -8v-2l8 -6l8 -8v-2l8 -6l8 -8v-2l8 -6l8 -8v-2l8 -6l8 -8v-2l8 -6l8 -8v-2l8 -6l8 -8v-2l8 -6l8 -8v-2l8 -6l8 -8v-2l8 -6l8 -8v-2l8 -6l8 -8 v-2l8 -6l8 -8v-8h-48l-16 16l-16 16l-16 16l-16 16l-16 16l-16 16l-16 16l-16 16l-16 16l-16 -16l-16 -16l-16 -16l-16 -16l-16 -16l-16 -16l-16 -16l-16 -16l-16 -16h-48zM48 112l8 -16l8 -16l16 -16l16 -16l16 -8l16 -8h96l16 8l16 8l16 16l16 16l8 16l8 16l8 16l8 16v72 l-16 8l-16 8l-16 8h-112l-16 -8l-16 -8l-16 -8l-16 -8l-16 -16l-16 -16l-8 -16l-8 -16v-32z" />
<glyph unicode="&#xe3;" horiz-adv-x="592" d="M0 96v64l8 16l8 16l16 16l16 16l16 16l16 8l16 8l16 8l16 8l16 8h144l16 8l8 16l8 16v48l-8 16l-8 16l-16 16l-16 8l-16 8l-16 8h-96l-16 -8l-16 -8v-8l8 -16l8 -16v-16l-8 -16l-8 -16l-16 -8l-16 -8h-16l-16 8l-16 8l-8 16l-8 16v16l8 16l8 16l16 16l16 16l16 8l16 8 l16 8l16 8h128l16 -8l16 -8l16 -8l16 -8l16 -16l16 -16l8 -16l8 -16v-304l8 -16l8 -16l16 -16h16l16 16v16l8 16h32l8 -16v-16l-8 -16l-8 -16l-16 -8l-16 -8h-64l-16 8l-16 8l-8 16l-8 16l-16 -16l-16 -16l-16 -8l-16 -8l-16 -8h-112l-16 8l-16 8l-16 8l-16 8l-16 8l-16 16 l-16 16l-8 16zM24 528l8 16l8 16l8 16l16 16l16 16l16 8l16 8h80l16 -8l16 -8l16 -16l16 -16l16 -16l16 -16l16 -8h48l16 8l16 8l8 8l8 16l8 16l8 16h32l8 -16l-8 -16l-8 -16l-8 -16l-16 -16l-16 -16l-16 -8l-16 -8h-64l-16 8l-16 8l-16 8l-8 8l-8 8l-8 8l-8 8l-8 8l-8 8 l-16 8l-16 8h-48l-16 -8l-16 -8l-8 -8l-8 -16l-8 -16l-8 -16h-32zM48 112l8 -16l8 -16l16 -16l16 -16l16 -8l16 -8h96l16 8l16 8l16 16l16 16l8 16l8 16l8 16l8 16v72l-16 8l-16 8l-16 8h-112l-16 -8l-16 -8l-16 -8l-16 -8l-16 -16l-16 -16l-8 -16l-8 -16v-32z" />
<glyph unicode="&#xe4;" horiz-adv-x="592" d="M0 96v64l8 16l8 16l16 16l16 16l16 16l16 8l16 8l16 8l16 8l16 8h144l16 8l8 16l8 16v48l-8 16l-8 16l-16 16l-16 8l-16 8l-16 8h-96l-16 -8l-16 -8v-8l8 -16l8 -16v-16l-8 -16l-8 -16l-16 -8l-16 -8h-16l-16 8l-16 8l-8 16l-8 16v16l8 16l8 16l16 16l16 16l16 8l16 8 l16 8l16 8h128l16 -8l16 -8l16 -8l16 -8l16 -16l16 -16l8 -16l8 -16v-304l8 -16l8 -16l16 -16h16l16 16v16l8 16h32l8 -16v-16l-8 -16l-8 -16l-16 -8l-16 -8h-64l-16 8l-16 8l-8 16l-8 16l-16 -16l-16 -16l-16 -8l-16 -8l-16 -8h-112l-16 8l-16 8l-16 8l-16 8l-16 8l-16 16 l-16 16l-8 16zM32 544v16l8 16l8 16l16 8l16 8h16l16 -8l16 -8l8 -16l8 -16v-16l-8 -16l-8 -16l-16 -8l-16 -8h-16l-16 8l-16 8l-8 16zM48 112l8 -16l8 -16l16 -16l16 -16l16 -8l16 -8h96l16 8l16 8l16 16l16 16l8 16l8 16l8 16l8 16v72l-16 8l-16 8l-16 8h-112l-16 -8 l-16 -8l-16 -8l-16 -8l-16 -16l-16 -16l-8 -16l-8 -16v-32zM256 544v16l8 16l8 16l16 8l16 8h16l16 -8l16 -8l8 -16l8 -16v-16l-8 -16l-8 -16l-16 -8l-16 -8h-16l-16 8l-16 8l-8 16z" />
<glyph unicode="&#xe5;" horiz-adv-x="592" d="M0 96v64l8 16l8 16l16 16l16 16l16 16l16 8l16 8l16 8l16 8l16 8h144l16 8l8 16l8 16v48l-8 16l-8 16l-16 16l-16 8l-16 8l-16 8h-96l-16 -8l-16 -8v-8l8 -16l8 -16v-16l-8 -16l-8 -16l-16 -8l-16 -8h-16l-16 8l-16 8l-8 16l-8 16v16l8 16l8 16l16 16l16 16l16 8l16 8 l16 8l16 8h128l16 -8l16 -8l16 -8l16 -8l16 -16l16 -16l8 -16l8 -16v-304l8 -16l8 -16l16 -16h16l16 16v16l8 16h32l8 -16v-16l-8 -16l-8 -16l-16 -8l-16 -8h-64l-16 8l-16 8l-8 16l-8 16l-16 -16l-16 -16l-16 -8l-16 -8l-16 -8h-112l-16 8l-16 8l-16 8l-16 8l-16 8l-16 16 l-16 16l-8 16zM48 112l8 -16l8 -16l16 -16l16 -16l16 -8l16 -8h96l16 8l16 8l16 16l16 16l8 16l8 16l8 16l8 16v72l-16 8l-16 8l-16 8h-112l-16 -8l-16 -8l-16 -8l-16 -8l-16 -16l-16 -16l-8 -16l-8 -16v-32zM96 560v80l8 16l8 16l16 16l16 8l16 8h64l16 -8l16 -8l16 -16 l8 -16l8 -16v-80l-8 -16l-8 -16l-16 -16l-16 -8l-16 -8h-64l-16 8l-16 8l-16 16l-8 16zM144 560l8 -16l8 -8l16 -8h32l16 8l8 8l8 16v80l-8 16l-8 8l-16 8h-32l-16 -8l-8 -8l-8 -16v-80z" />
<glyph unicode="&#xe6;" horiz-adv-x="872" d="M0 96v64l8 16l8 16l16 16l16 16l16 16l16 8l16 8l16 8l16 8l16 8h144l16 8l8 16l8 16v48l-8 16l-8 16l-16 16l-16 8l-16 8l-16 8h-96l-16 -8l-16 -8v-8l8 -16l8 -16v-16l-8 -16l-8 -16l-16 -8l-16 -8h-16l-16 8l-16 8l-8 16l-8 16v16l8 16l8 16l16 16l16 16l16 8l16 8 l16 8l16 8h128l16 -8l16 -8l16 -8l16 -8l16 -16l16 -16l8 -16l8 -16v-16l16 16l16 16l16 16l16 16l16 8l16 8l16 8l16 8l16 8h80l16 -8l16 -8l16 -8l16 -8l16 -8l16 -16l16 -16l16 -16l16 -16l8 -16l8 -16l8 -16l8 -16l8 -16v-48h-2l-6 -8h-392v-56l8 -16l8 -16l8 -16 l16 -16l16 -16l16 -16l16 -16l16 -8l16 -8l16 -8l16 -8h112l16 8l16 8l16 8l16 8l16 16h16l16 -16v-16l-16 -16l-16 -8l-16 -8l-16 -8l-16 -8l-16 -8h-144l-16 8l-16 8l-16 8l-16 8l-16 8l-16 16l-16 16l-16 16l-16 16v-32l8 -16l8 -16l8 -16l-8 -16h-16l-16 8l-16 8l-8 16 l-8 16l-16 -16l-16 -16l-16 -8l-16 -8l-16 -8h-112l-16 8l-16 8l-16 8l-16 8l-16 8l-16 16l-16 16l-8 16zM48 112l8 -16l8 -16l16 -16l16 -16l16 -8l16 -8h96l16 8l16 8l16 16l16 16l8 16l8 16l8 16l8 16l8 16v48l-8 8l-16 8l-16 8l-16 8h-112l-16 -8l-16 -8l-16 -8l-16 -8 l-16 -16l-16 -16l-8 -16l-8 -16v-32zM376 272h352v16l-8 16l-8 16l-8 16l-16 16l-16 16l-16 16l-16 16l-16 8l-16 8l-16 8l-16 8h-48l-16 -8l-16 -8l-16 -8l-16 -8l-16 -16l-16 -16l-16 -16l-16 -16l-8 -16l-8 -16l-8 -16v-16z" />
<glyph unicode="&#xe7;" horiz-adv-x="520" d="M-16 176v112l8 16l8 16l8 16l8 16l8 16l16 16l16 16l16 16l16 16l16 8l16 8l16 8l16 8l16 8h112l16 -8l16 -8l16 -8l16 -8l16 -8l16 -16l16 -16l8 -16l8 -16v-16l-8 -16l-8 -16l-16 -8l-16 -8h-16l-16 8l-16 8l-8 16l-8 16v16l8 16l8 16v8l-16 8l-16 8l-16 8h-80l-16 -8 l-16 -8l-16 -8l-16 -8l-16 -16l-16 -16l-16 -16l-16 -16l-8 -16l-8 -16l-8 -16v-112l8 -16l8 -16l8 -16l16 -16l16 -16l16 -16l16 -16l16 -8l16 -8l16 -8l16 -8h112l16 8l16 8l16 8l16 8l16 16h16l16 -16v-16l-16 -16l-16 -8l-16 -8l-16 -8l-16 -8l-16 -8h-48v-24l16 -8 l16 -8l16 -16l8 -16l8 -16v-80l-8 -16l-8 -16l-16 -16l-16 -8l-16 -8h-64l-16 8l-16 8l-16 16l-8 16l8 16h16l16 -8l8 -8l8 -8l16 -8h32l16 8l8 8l8 16v80l-8 16l-8 8l-16 8h-16q-8 0 -12 6q-4 4 -4 10v40h-48l-16 8l-16 8l-16 8l-16 8l-16 8l-16 16l-16 16l-16 16l-16 16 l-8 16l-8 16l-8 16l-8 16z" />
<glyph unicode="&#xe8;" horiz-adv-x="528" d="M-16 176v112l8 16l8 16l8 16l8 16l8 16l16 16l16 16l16 16l16 16l16 8l16 8l16 8l16 8l16 8h80l16 -8l16 -8l16 -8l16 -8l16 -8l16 -16l16 -16l16 -16l16 -16l8 -16l8 -16l8 -16l8 -16l8 -16v-48h-2l-6 -8h-392v-56l8 -16l8 -16l8 -16l16 -16l16 -16l16 -16l16 -16l16 -8 l16 -8l16 -8l16 -8h112l16 8l16 8l16 8l16 8l16 16h16l16 -16v-16l-16 -16l-16 -8l-16 -8l-16 -8l-16 -8l-16 -8h-144l-16 8l-16 8l-16 8l-16 8l-16 8l-16 16l-16 16l-16 16l-16 16l-8 16l-8 16l-8 16l-8 16zM32 272h352v16l-8 16l-8 16l-8 16l-16 16l-16 16l-16 16l-16 16 l-16 8l-16 8l-16 8l-16 8h-48l-16 -8l-16 -8l-16 -8l-16 -8l-16 -16l-16 -16l-16 -16l-16 -16l-8 -16l-8 -16l-8 -16v-16zM128 672l8 16l14 6v2h2v-2l8 -6l8 -8v-2l8 -6l8 -8v-2l8 -6l8 -8v-2l8 -6l8 -8v-2l8 -6l8 -8v-2l8 -6l8 -8v-2l8 -6l8 -8v-2l8 -6l8 -8v-2l8 -6l8 -8 v-2l8 -6l8 -8v-2l8 -6l8 -8v-8l-16 -16h-16l-16 16l-16 16l-16 16l-16 16l-16 16l-16 16l-16 16l-16 16l-16 16l-16 16z" />
<glyph unicode="&#xe9;" horiz-adv-x="528" d="M-16 176v112l8 16l8 16l8 16l8 16l8 16l16 16l16 16l16 16l16 16l16 8l16 8l16 8l16 8l16 8h80l16 -8l16 -8l16 -8l16 -8l16 -8l16 -16l16 -16l16 -16l16 -16l8 -16l8 -16l8 -16l8 -16l8 -16v-48h-2l-6 -8h-392v-56l8 -16l8 -16l8 -16l16 -16l16 -16l16 -16l16 -16l16 -8 l16 -8l16 -8l16 -8h112l16 8l16 8l16 8l16 8l16 16h16l16 -16v-16l-16 -16l-16 -8l-16 -8l-16 -8l-16 -8l-16 -8h-144l-16 8l-16 8l-16 8l-16 8l-16 8l-16 16l-16 16l-16 16l-16 16l-8 16l-8 16l-8 16l-8 16zM32 272h352v16l-8 16l-8 16l-8 16l-16 16l-16 16l-16 16l-16 16 l-16 8l-16 8l-16 8l-16 8h-48l-16 -8l-16 -8l-16 -8l-16 -8l-16 -16l-16 -16l-16 -16l-16 -16l-8 -16l-8 -16l-8 -16v-16zM104 512v8l8 8l8 8l8 8l8 8l8 8l8 8l8 8l8 8l8 8l8 8l8 8l8 8l8 8l8 8l8 8l8 8l8 8l8 8l8 8l8 8l8 8l8 8l16 -8l8 -16l-8 -16l-16 -16l-16 -16 l-16 -16l-16 -16l-16 -16l-16 -16l-16 -16l-16 -16l-16 -16l-16 -16h-16z" />
<glyph unicode="&#xea;" horiz-adv-x="528" d="M-16 176v112l8 16l8 16l8 16l8 16l8 16l16 16l16 16l16 16l16 16l16 8l16 8l16 8l16 8l16 8h80l16 -8l16 -8l16 -8l16 -8l16 -8l16 -16l16 -16l16 -16l16 -16l8 -16l8 -16l8 -16l8 -16l8 -16v-48h-2l-6 -8h-392v-56l8 -16l8 -16l8 -16l16 -16l16 -16l16 -16l16 -16l16 -8 l16 -8l16 -8l16 -8h112l16 8l16 8l16 8l16 8l16 16h16l16 -16v-16l-16 -16l-16 -8l-16 -8l-16 -8l-16 -8l-16 -8h-144l-16 8l-16 8l-16 8l-16 8l-16 8l-16 16l-16 16l-16 16l-16 16l-8 16l-8 16l-8 16l-8 16zM24 496v8l8 8l8 8l8 8l8 8l8 8l8 8l8 8l8 8l8 8l8 8l8 8l8 8l8 8 l8 8l8 8l8 8l8 8l8 8l8 8l8 8l8 8l8 8l8 8h16l8 -8v-2l8 -6l8 -8v-2l8 -6l8 -8v-2l8 -6l8 -8v-2l8 -6l8 -8v-2l8 -6l8 -8v-2l8 -6l8 -8v-2l8 -6l8 -8v-2l8 -6l8 -8v-2l8 -6l8 -8v-2l8 -6l8 -8v-2l8 -6l8 -8v-8h-48l-16 16l-16 16l-16 16l-16 16l-16 16l-16 16l-16 16l-16 16 l-16 16l-16 -16l-16 -16l-16 -16l-16 -16l-16 -16l-16 -16l-16 -16l-16 -16l-16 -16h-48zM32 272h352v16l-8 16l-8 16l-8 16l-16 16l-16 16l-16 16l-16 16l-16 8l-16 8l-16 8l-16 8h-48l-16 -8l-16 -8l-16 -8l-16 -8l-16 -16l-16 -16l-16 -16l-16 -16l-8 -16l-8 -16l-8 -16 v-16z" />
<glyph unicode="&#xeb;" horiz-adv-x="528" d="M-16 176v112l8 16l8 16l8 16l8 16l8 16l16 16l16 16l16 16l16 16l16 8l16 8l16 8l16 8l16 8h80l16 -8l16 -8l16 -8l16 -8l16 -8l16 -16l16 -16l16 -16l16 -16l8 -16l8 -16l8 -16l8 -16l8 -16v-48h-2l-6 -8h-392v-56l8 -16l8 -16l8 -16l16 -16l16 -16l16 -16l16 -16l16 -8 l16 -8l16 -8l16 -8h112l16 8l16 8l16 8l16 8l16 16h16l16 -16v-16l-16 -16l-16 -8l-16 -8l-16 -8l-16 -8l-16 -8h-144l-16 8l-16 8l-16 8l-16 8l-16 8l-16 16l-16 16l-16 16l-16 16l-8 16l-8 16l-8 16l-8 16zM32 272h352v16l-8 16l-8 16l-8 16l-16 16l-16 16l-16 16l-16 16 l-16 8l-16 8l-16 8l-16 8h-48l-16 -8l-16 -8l-16 -8l-16 -8l-16 -16l-16 -16l-16 -16l-16 -16l-8 -16l-8 -16l-8 -16v-16zM40 544v16l8 16l8 16l16 8l16 8h16l16 -8l16 -8l8 -16l8 -16v-16l-8 -16l-8 -16l-16 -8l-16 -8h-16l-16 8l-16 8l-8 16zM264 544v16l8 16l8 16l16 8 l16 8h16l16 -8l16 -8l8 -16l8 -16v-16l-8 -16l-8 -16l-16 -8l-16 -8h-16l-16 8l-16 8l-8 16z" />
<glyph unicode="&#xec;" horiz-adv-x="416" d="M0 8v24l16 8h112v384h-112l-16 8v24l16 8h144q6 0 10 -6q6 -4 6 -10v-408h112l16 -8v-24l-16 -8h-272zM40 672l8 16l14 6v2h2v-2l8 -6l8 -8v-2l8 -6l8 -8v-2l8 -6l8 -8v-2l8 -6l8 -8v-2l8 -6l8 -8v-2l8 -6l8 -8v-2l8 -6l8 -8v-2l8 -6l8 -8v-2l8 -6l8 -8v-2l8 -6l8 -8v-2 l8 -6l8 -8v-8l-16 -16h-16l-16 16l-16 16l-16 16l-16 16l-16 16l-16 16l-16 16l-16 16l-16 16l-16 16z" />
<glyph unicode="&#xed;" horiz-adv-x="416" d="M0 8v24l16 8h112v384h-112l-16 8v24l16 8h144q6 0 10 -6q6 -4 6 -10v-408h112l16 -8v-24l-16 -8h-272zM32 512v8l8 8l8 8l8 8l8 8l8 8l8 8l8 8l8 8l8 8l8 8l8 8l8 8l8 8l8 8l8 8l8 8l8 8l8 8l8 8l8 8l8 8l8 8l16 -8l8 -16l-8 -16l-16 -16l-16 -16l-16 -16l-16 -16 l-16 -16l-16 -16l-16 -16l-16 -16l-16 -16l-16 -16h-16z" />
<glyph unicode="&#xee;" horiz-adv-x="496" d="M0 496v8l8 8l8 8l8 8l8 8l8 8l8 8l8 8l8 8l8 8l8 8l8 8l8 8l8 8l8 8l8 8l8 8l8 8l8 8l8 8l8 8l8 8l8 8l8 8h16l8 -8v-2l8 -6l8 -8v-2l8 -6l8 -8v-2l8 -6l8 -8v-2l8 -6l8 -8v-2l8 -6l8 -8v-2l8 -6l8 -8v-2l8 -6l8 -8v-2l8 -6l8 -8v-2l8 -6l8 -8v-2l8 -6l8 -8v-2l8 -6l8 -8 v-8h-48l-16 16l-16 16l-16 16l-16 16l-16 16l-16 16l-16 16l-16 16l-16 16l-16 -16l-16 -16l-16 -16l-16 -16l-16 -16l-16 -16l-16 -16l-16 -16l-16 -16h-48zM48 8v24l16 8h112v384h-112l-16 8v24l16 8h144q6 0 10 -6q6 -4 6 -10v-408h112l16 -8v-24l-16 -8h-272z" />
<glyph unicode="&#xef;" horiz-adv-x="416" d="M0 8v24l16 8h112v384h-112l-16 8v24l16 8h144q6 0 10 -6q6 -4 6 -10v-408h112l16 -8v-24l-16 -8h-272zM0 544v16l8 16l8 16l16 8l16 8h16l16 -8l16 -8l8 -16l8 -16v-16l-8 -16l-8 -16l-16 -8l-16 -8h-16l-16 8l-16 8l-8 16zM192 544v16l8 16l8 16l16 8l16 8h16l16 -8 l16 -8l8 -16l8 -16v-16l-8 -16l-8 -16l-16 -8l-16 -8h-16l-16 8l-16 8l-8 16z" />
<glyph unicode="&#xf0;" horiz-adv-x="560" d="M-16 176v112l8 16l8 16l8 16l8 16l8 16l16 16l16 16l16 16l16 16l16 8l16 8l16 8l16 8l16 8h112l16 -8l16 -8l16 -8l10 -6l-2 6l-8 16l-8 16l-8 16l-8 16l-8 16l-16 16l-16 16l-8 8l-8 -8l-16 -16l-16 -16l-16 -16l-16 -8l-16 8l-8 16l8 16l16 16l16 16l16 16l8 8l-8 6v2 l-16 16l-16 16v16l16 16h16l16 -16l16 -16v-2l8 -6l6 8h2l16 16l16 16l16 8l16 -8l8 -16l-8 -16l-16 -16l-16 -16h-2l-6 -8l8 -8l16 -16l16 -16l8 -16l8 -16l8 -16l8 -16l8 -16l8 -16l8 -16l8 -16l8 -16l8 -16l8 -16l8 -16l8 -16l8 -16l8 -16l8 -16l8 -16v-112l-8 -16 l-8 -16l-8 -16l-8 -16l-8 -16l-16 -16l-16 -16l-16 -16l-16 -16l-16 -8l-16 -8l-16 -8l-16 -8l-16 -8h-112l-16 8l-16 8l-16 8l-16 8l-16 8l-16 16l-16 16l-16 16l-16 16l-8 16l-8 16l-8 16l-8 16zM32 176l8 -16l8 -16l8 -16l16 -16l16 -16l16 -16l16 -16l16 -8l16 -8l16 -8 l16 -8h80l16 8l16 8l16 8l16 8l16 16l16 16l16 16l16 16l8 16l8 16l8 16v112l-8 16l-8 16l-8 16l-16 16l-16 16l-16 16l-16 16l-16 8l-16 8l-16 8l-16 8h-80l-16 -8l-16 -8l-16 -8l-16 -8l-16 -16l-16 -16l-16 -16l-16 -16l-8 -16l-8 -16l-8 -16v-112z" />
<glyph unicode="&#xf1;" d="M0 8v24l16 8h48v384h-48l-16 8v24l16 8h80q6 0 10 -6q6 -4 6 -10v-72l8 8l8 8l8 8l8 8l8 8l8 8l16 8l16 8l16 8l16 8l16 8l16 8h80l16 -8l16 -8l16 -8l16 -16l16 -16l8 -16l8 -16l8 -16l8 -16v-312h48l16 -8v-24l-16 -8h-144l-16 8v24l16 8h48v312l-8 16l-8 16l-16 16 l-16 16l-16 8l-16 8h-64l-16 -8l-16 -8l-16 -8l-8 -8h-2l-6 -8l-8 -8h-2l-6 -8l-8 -8h-2l-6 -8l-8 -8h-2l-6 -8l-8 -8l-8 -16l-8 -16l-8 -16v-248h48l16 -8v-24l-16 -8h-144zM24 528l8 16l8 16l8 16l16 16l16 16l16 8l16 8h80l16 -8l16 -8l16 -16l16 -16l16 -16l16 -16 l16 -8h48l16 8l16 8l8 8l8 16l8 16l8 16h32l8 -16l-8 -16l-8 -16l-8 -16l-16 -16l-16 -16l-16 -8l-16 -8h-64l-16 8l-16 8l-16 8l-8 8l-8 8l-8 8l-8 8l-8 8l-8 8l-16 8l-16 8h-48l-16 -8l-16 -8l-8 -8l-8 -16l-8 -16l-8 -16h-32z" />
<glyph unicode="&#xf2;" horiz-adv-x="560" d="M-16 176v112l8 16l8 16l8 16l8 16l8 16l16 16l16 16l16 16l16 16l16 8l16 8l16 8l16 8l16 8h112l16 -8l16 -8l16 -8l16 -8l16 -8l16 -16l16 -16l16 -16l16 -16l8 -16l8 -16l8 -16l8 -16l8 -16v-112l-8 -16l-8 -16l-8 -16l-8 -16l-8 -16l-16 -16l-16 -16l-16 -16l-16 -16 l-16 -8l-16 -8l-16 -8l-16 -8l-16 -8h-112l-16 8l-16 8l-16 8l-16 8l-16 8l-16 16l-16 16l-16 16l-16 16l-8 16l-8 16l-8 16l-8 16zM32 176l8 -16l8 -16l8 -16l16 -16l16 -16l16 -16l16 -16l16 -8l16 -8l16 -8l16 -8h80l16 8l16 8l16 8l16 8l16 16l16 16l16 16l16 16l8 16 l8 16l8 16v112l-8 16l-8 16l-8 16l-16 16l-16 16l-16 16l-16 16l-16 8l-16 8l-16 8l-16 8h-80l-16 -8l-16 -8l-16 -8l-16 -8l-16 -16l-16 -16l-16 -16l-16 -16l-8 -16l-8 -16l-8 -16v-112zM144 672l8 16l14 6v2h2v-2l8 -6l8 -8v-2l8 -6l8 -8v-2l8 -6l8 -8v-2l8 -6l8 -8v-2 l8 -6l8 -8v-2l8 -6l8 -8v-2l8 -6l8 -8v-2l8 -6l8 -8v-2l8 -6l8 -8v-2l8 -6l8 -8v-2l8 -6l8 -8v-8l-16 -16h-16l-16 16l-16 16l-16 16l-16 16l-16 16l-16 16l-16 16l-16 16l-16 16l-16 16z" />
<glyph unicode="&#xf3;" horiz-adv-x="560" d="M-16 176v112l8 16l8 16l8 16l8 16l8 16l16 16l16 16l16 16l16 16l16 8l16 8l16 8l16 8l16 8h112l16 -8l16 -8l16 -8l16 -8l16 -8l16 -16l16 -16l16 -16l16 -16l8 -16l8 -16l8 -16l8 -16l8 -16v-112l-8 -16l-8 -16l-8 -16l-8 -16l-8 -16l-16 -16l-16 -16l-16 -16l-16 -16 l-16 -8l-16 -8l-16 -8l-16 -8l-16 -8h-112l-16 8l-16 8l-16 8l-16 8l-16 8l-16 16l-16 16l-16 16l-16 16l-8 16l-8 16l-8 16l-8 16zM32 176l8 -16l8 -16l8 -16l16 -16l16 -16l16 -16l16 -16l16 -8l16 -8l16 -8l16 -8h80l16 8l16 8l16 8l16 8l16 16l16 16l16 16l16 16l8 16 l8 16l8 16v112l-8 16l-8 16l-8 16l-16 16l-16 16l-16 16l-16 16l-16 8l-16 8l-16 8l-16 8h-80l-16 -8l-16 -8l-16 -8l-16 -8l-16 -16l-16 -16l-16 -16l-16 -16l-8 -16l-8 -16l-8 -16v-112zM120 512v8l8 8l8 8l8 8l8 8l8 8l8 8l8 8l8 8l8 8l8 8l8 8l8 8l8 8l8 8l8 8l8 8l8 8 l8 8l8 8l8 8l8 8l8 8l16 -8l8 -16l-8 -16l-16 -16l-16 -16l-16 -16l-16 -16l-16 -16l-16 -16l-16 -16l-16 -16l-16 -16l-16 -16h-16z" />
<glyph unicode="&#xf4;" horiz-adv-x="560" d="M-16 176v112l8 16l8 16l8 16l8 16l8 16l16 16l16 16l16 16l16 16l16 8l16 8l16 8l16 8l16 8h112l16 -8l16 -8l16 -8l16 -8l16 -8l16 -16l16 -16l16 -16l16 -16l8 -16l8 -16l8 -16l8 -16l8 -16v-112l-8 -16l-8 -16l-8 -16l-8 -16l-8 -16l-16 -16l-16 -16l-16 -16l-16 -16 l-16 -8l-16 -8l-16 -8l-16 -8l-16 -8h-112l-16 8l-16 8l-16 8l-16 8l-16 8l-16 16l-16 16l-16 16l-16 16l-8 16l-8 16l-8 16l-8 16zM32 176l8 -16l8 -16l8 -16l16 -16l16 -16l16 -16l16 -16l16 -8l16 -8l16 -8l16 -8h80l16 8l16 8l16 8l16 8l16 16l16 16l16 16l16 16l8 16 l8 16l8 16v112l-8 16l-8 16l-8 16l-16 16l-16 16l-16 16l-16 16l-16 8l-16 8l-16 8l-16 8h-80l-16 -8l-16 -8l-16 -8l-16 -8l-16 -16l-16 -16l-16 -16l-16 -16l-8 -16l-8 -16l-8 -16v-112zM40 496v8l8 8l8 8l8 8l8 8l8 8l8 8l8 8l8 8l8 8l8 8l8 8l8 8l8 8l8 8l8 8l8 8l8 8 l8 8l8 8l8 8l8 8l8 8l8 8h16l8 -8v-2l8 -6l8 -8v-2l8 -6l8 -8v-2l8 -6l8 -8v-2l8 -6l8 -8v-2l8 -6l8 -8v-2l8 -6l8 -8v-2l8 -6l8 -8v-2l8 -6l8 -8v-2l8 -6l8 -8v-2l8 -6l8 -8v-2l8 -6l8 -8v-8h-48l-16 16l-16 16l-16 16l-16 16l-16 16l-16 16l-16 16l-16 16l-16 16l-16 -16 l-16 -16l-16 -16l-16 -16l-16 -16l-16 -16l-16 -16l-16 -16l-16 -16h-48z" />
<glyph unicode="&#xf5;" horiz-adv-x="560" d="M-16 176v112l8 16l8 16l8 16l8 16l8 16l16 16l16 16l16 16l16 16l16 8l16 8l16 8l16 8l16 8h112l16 -8l16 -8l16 -8l16 -8l16 -8l16 -16l16 -16l16 -16l16 -16l8 -16l8 -16l8 -16l8 -16l8 -16v-112l-8 -16l-8 -16l-8 -16l-8 -16l-8 -16l-16 -16l-16 -16l-16 -16l-16 -16 l-16 -8l-16 -8l-16 -8l-16 -8l-16 -8h-112l-16 8l-16 8l-16 8l-16 8l-16 8l-16 16l-16 16l-16 16l-16 16l-8 16l-8 16l-8 16l-8 16zM16 528l8 16l8 16l8 16l16 16l16 16l16 8l16 8h80l16 -8l16 -8l16 -16l16 -16l16 -16l16 -16l16 -8h48l16 8l16 8l8 8l8 16l8 16l8 16h32 l8 -16l-8 -16l-8 -16l-8 -16l-16 -16l-16 -16l-16 -8l-16 -8h-64l-16 8l-16 8l-16 8l-8 8l-8 8l-8 8l-8 8l-8 8l-8 8l-16 8l-16 8h-48l-16 -8l-16 -8l-8 -8l-8 -16l-8 -16l-8 -16h-32zM32 176l8 -16l8 -16l8 -16l16 -16l16 -16l16 -16l16 -16l16 -8l16 -8l16 -8l16 -8h80 l16 8l16 8l16 8l16 8l16 16l16 16l16 16l16 16l8 16l8 16l8 16v112l-8 16l-8 16l-8 16l-16 16l-16 16l-16 16l-16 16l-16 8l-16 8l-16 8l-16 8h-80l-16 -8l-16 -8l-16 -8l-16 -8l-16 -16l-16 -16l-16 -16l-16 -16l-8 -16l-8 -16l-8 -16v-112z" />
<glyph unicode="&#xf6;" horiz-adv-x="560" d="M-16 176v112l8 16l8 16l8 16l8 16l8 16l16 16l16 16l16 16l16 16l16 8l16 8l16 8l16 8l16 8h112l16 -8l16 -8l16 -8l16 -8l16 -8l16 -16l16 -16l16 -16l16 -16l8 -16l8 -16l8 -16l8 -16l8 -16v-112l-8 -16l-8 -16l-8 -16l-8 -16l-8 -16l-16 -16l-16 -16l-16 -16l-16 -16 l-16 -8l-16 -8l-16 -8l-16 -8l-16 -8h-112l-16 8l-16 8l-16 8l-16 8l-16 8l-16 16l-16 16l-16 16l-16 16l-8 16l-8 16l-8 16l-8 16zM32 176l8 -16l8 -16l8 -16l16 -16l16 -16l16 -16l16 -16l16 -8l16 -8l16 -8l16 -8h80l16 8l16 8l16 8l16 8l16 16l16 16l16 16l16 16l8 16 l8 16l8 16v112l-8 16l-8 16l-8 16l-16 16l-16 16l-16 16l-16 16l-16 8l-16 8l-16 8l-16 8h-80l-16 -8l-16 -8l-16 -8l-16 -8l-16 -16l-16 -16l-16 -16l-16 -16l-8 -16l-8 -16l-8 -16v-112zM56 544v16l8 16l8 16l16 8l16 8h16l16 -8l16 -8l8 -16l8 -16v-16l-8 -16l-8 -16 l-16 -8l-16 -8h-16l-16 8l-16 8l-8 16zM280 544v16l8 16l8 16l16 8l16 8h16l16 -8l16 -8l8 -16l8 -16v-16l-8 -16l-8 -16l-16 -8l-16 -8h-16l-16 8l-16 8l-8 16z" />
<glyph unicode="&#xf7;" horiz-adv-x="448" d="M0 320v24l16 8h304l16 -8v-24l-16 -8h-304zM112 208v16l8 16l8 16l16 8l16 8h16l16 -8l16 -8l8 -16l8 -16v-16l-8 -16l-8 -16l-16 -8l-16 -8h-16l-16 8l-16 8l-8 16zM112 448v16l8 16l8 16l16 8l16 8h16l16 -8l16 -8l8 -16l8 -16v-16l-8 -16l-8 -16l-16 -8l-16 -8h-16 l-16 8l-16 8l-8 16z" />
<glyph unicode="&#xf8;" horiz-adv-x="560" d="M-16 176v112l8 16l8 16l8 16l8 16l8 16l16 16l16 16l16 16l16 16l16 8l16 8l16 8l16 8l16 8h112l16 -8l12 -8l4 8l8 16l8 8l8 8h24l8 -16l-8 -16l-8 -16l-6 -10l14 -6l16 -16l16 -16l16 -16l16 -16l8 -16l8 -16l8 -16l8 -16l8 -16v-112l-8 -16l-8 -16l-8 -16l-8 -16 l-8 -16l-16 -16l-16 -16l-16 -16l-16 -16l-16 -8l-16 -8l-16 -8l-16 -8l-16 -8h-112l-16 8l-16 8h-4l-4 -8h-2l-6 -8l-8 -8h-24l-8 16l8 16l6 12l-6 4l-16 16l-16 16l-16 16l-16 16l-8 16l-8 16l-8 16l-8 16zM32 176l8 -16l8 -16l8 -16l16 -16l16 -16l16 -16l10 -12l6 12 l8 16l8 16l8 16l8 16l8 16l8 16l8 16l8 16l8 16l8 16l8 16l8 16l8 16l8 16l8 16l8 16l8 16l8 16l8 16l8 16l8 16v2l-8 6l-16 8h-80l-16 -8l-16 -8l-16 -8l-16 -8l-16 -16l-16 -16l-16 -16l-16 -16l-8 -16l-8 -16l-8 -16v-112zM152 48l16 -8l16 -8h80l16 8l16 8l16 8l16 8 l16 16l16 16l16 16l16 16l8 16l8 16l8 16v112l-8 16l-8 16l-8 16l-16 16l-16 16l-16 16l-16 16l-8 -16l-8 -16l-8 -16l-8 -16l-8 -16l-8 -16l-8 -16l-8 -16l-8 -16l-8 -16l-8 -16l-8 -16l-8 -16l-8 -16l-8 -16l-8 -16l-8 -16l-8 -16l-8 -16l-8 -16l-8 -16z" />
<glyph unicode="&#xf9;" d="M0 432v24l16 8h144l16 -8v-24l-16 -8h-48v-312l8 -16l8 -16l16 -16l16 -16l16 -8l16 -8h64l16 8l16 8l16 8l8 8l8 8l8 8l8 8l8 8l8 8l8 8l8 8l8 8l8 16l8 16l8 16v248h-48l-16 8v24l16 8h144l16 -8v-24l-16 -8h-48v-384h48l16 -8v-24l-16 -8h-80q-8 0 -12 4t-4 12v72 l-8 -8h-2l-6 -8l-8 -8h-2l-6 -8l-8 -8h-2l-6 -8l-16 -8l-16 -8l-16 -8l-16 -8l-16 -8l-16 -8h-80l-16 8l-16 8l-16 8l-16 16l-16 16l-8 16l-8 16l-8 16l-8 16v312h-48zM168 672l8 16l14 6v2h2v-2l8 -6l8 -8v-2l8 -6l8 -8v-2l8 -6l8 -8v-2l8 -6l8 -8v-2l8 -6l8 -8v-2l8 -6 l8 -8v-2l8 -6l8 -8v-2l8 -6l8 -8v-2l8 -6l8 -8v-2l8 -6l8 -8v-2l8 -6l8 -8v-8l-16 -16h-16l-16 16l-16 16l-16 16l-16 16l-16 16l-16 16l-16 16l-16 16l-16 16l-16 16z" />
<glyph unicode="&#xfa;" d="M0 432v24l16 8h144l16 -8v-24l-16 -8h-48v-312l8 -16l8 -16l16 -16l16 -16l16 -8l16 -8h64l16 8l16 8l16 8l8 8l8 8l8 8l8 8l8 8l8 8l8 8l8 8l8 8l8 16l8 16l8 16v248h-48l-16 8v24l16 8h144l16 -8v-24l-16 -8h-48v-384h48l16 -8v-24l-16 -8h-80q-8 0 -12 4t-4 12v72 l-8 -8h-2l-6 -8l-8 -8h-2l-6 -8l-8 -8h-2l-6 -8l-16 -8l-16 -8l-16 -8l-16 -8l-16 -8l-16 -8h-80l-16 8l-16 8l-16 8l-16 16l-16 16l-8 16l-8 16l-8 16l-8 16v312h-48zM160 512v8l8 8l8 8l8 8l8 8l8 8l8 8l8 8l8 8l8 8l8 8l8 8l8 8l8 8l8 8l8 8l8 8l8 8l8 8l8 8l8 8l8 8l8 8 l16 -8l8 -16l-8 -16l-16 -16l-16 -16l-16 -16l-16 -16l-16 -16l-16 -16l-16 -16l-16 -16l-16 -16l-16 -16h-16z" />
<glyph unicode="&#xfb;" d="M0 432v24l16 8h144l16 -8v-24l-16 -8h-48v-312l8 -16l8 -16l16 -16l16 -16l16 -8l16 -8h64l16 8l16 8l16 8l8 8l8 8l8 8l8 8l8 8l8 8l8 8l8 8l8 8l8 16l8 16l8 16v248h-48l-16 8v24l16 8h144l16 -8v-24l-16 -8h-48v-384h48l16 -8v-24l-16 -8h-80q-8 0 -12 4t-4 12v72 l-8 -8h-2l-6 -8l-8 -8h-2l-6 -8l-8 -8h-2l-6 -8l-16 -8l-16 -8l-16 -8l-16 -8l-16 -8l-16 -8h-80l-16 8l-16 8l-16 8l-16 16l-16 16l-8 16l-8 16l-8 16l-8 16v312h-48zM64 496v8l8 8l8 8l8 8l8 8l8 8l8 8l8 8l8 8l8 8l8 8l8 8l8 8l8 8l8 8l8 8l8 8l8 8l8 8l8 8l8 8l8 8l8 8 l8 8h16l8 -8v-2l8 -6l8 -8v-2l8 -6l8 -8v-2l8 -6l8 -8v-2l8 -6l8 -8v-2l8 -6l8 -8v-2l8 -6l8 -8v-2l8 -6l8 -8v-2l8 -6l8 -8v-2l8 -6l8 -8v-2l8 -6l8 -8v-2l8 -6l8 -8v-8h-48l-16 16l-16 16l-16 16l-16 16l-16 16l-16 16l-16 16l-16 16l-16 16l-16 -16l-16 -16l-16 -16 l-16 -16l-16 -16l-16 -16l-16 -16l-16 -16l-16 -16h-48z" />
<glyph unicode="&#xfc;" d="M0 432v24l16 8h144l16 -8v-24l-16 -8h-48v-312l8 -16l8 -16l16 -16l16 -16l16 -8l16 -8h64l16 8l16 8l16 8l8 8l8 8l8 8l8 8l8 8l8 8l8 8l8 8l8 8l8 16l8 16l8 16v248h-48l-16 8v24l16 8h144l16 -8v-24l-16 -8h-48v-384h48l16 -8v-24l-16 -8h-80q-8 0 -12 4t-4 12v72 l-8 -8h-2l-6 -8l-8 -8h-2l-6 -8l-8 -8h-2l-6 -8l-16 -8l-16 -8l-16 -8l-16 -8l-16 -8l-16 -8h-80l-16 8l-16 8l-16 8l-16 16l-16 16l-8 16l-8 16l-8 16l-8 16v312h-48zM80 544v16l8 16l8 16l16 8l16 8h16l16 -8l16 -8l8 -16l8 -16v-16l-8 -16l-8 -16l-16 -8l-16 -8h-16 l-16 8l-16 8l-8 16zM304 544v16l8 16l8 16l16 8l16 8h16l16 -8l16 -8l8 -16l8 -16v-16l-8 -16l-8 -16l-16 -8l-16 -8h-16l-16 8l-16 8l-8 16z" />
<glyph unicode="&#xfd;" horiz-adv-x="720" d="M-16 -160l8 16l8 16l16 8l16 8h16l16 -8l16 -8l8 -16l8 -16v-16l-8 -16l-8 -16l16 -8h32l16 8l16 8l8 8l8 8l8 8l8 16l8 16l8 16l8 16l8 16l8 16l8 16l8 16l8 16l8 16l8 16l8 16l-8 16l-8 16l-8 16l-8 16l-8 16l-8 16l-8 16l-8 16l-8 16l-8 16l-8 16l-8 16l-8 16l-8 16 l-8 16l-8 16l-8 16l-8 16l-8 16l-8 16l-8 16l-8 16l-8 16l-8 16l-8 16l-4 8h-60l-16 8v24l16 8h160l16 -8v-24l-16 -8h-52l4 -8l8 -16l8 -16l8 -16l8 -16l8 -16l8 -16l8 -16l8 -16l8 -16l8 -16l8 -16l8 -16l8 -16l8 -16l8 -16l8 -16l8 -16l8 -16l8 -16l8 -16l8 -16l8 -16 l8 16l8 16l8 16l8 16l8 16l8 16l8 16l8 16l8 16l8 16l8 16l8 16l8 16l8 16l8 16l8 16l8 16l8 16l8 16l8 16l8 16l8 16l4 8h-52l-16 8v24l16 8h160l16 -8v-24l-16 -8h-60l-4 -8l-8 -16l-8 -16l-8 -16l-8 -16l-8 -16l-8 -16l-8 -16l-8 -16l-8 -16l-8 -16l-8 -16l-8 -16l-8 -16 l-8 -16l-8 -16l-8 -16l-8 -16l-8 -16l-8 -16l-8 -16l-8 -16l-8 -16l-8 -16l-8 -16l-8 -16l-8 -16l-8 -16l-8 -16l-8 -16l-8 -16l-8 -16l-8 -16l-8 -16l-8 -16l-8 -16l-8 -16l-8 -16l-8 -16l-16 -16l-16 -16l-16 -8l-16 -8l-16 -8l-16 -8h-48l-16 8l-16 8l-16 8l-16 8l-16 16 l-8 16l-8 16v16zM208 512v8l8 8l8 8l8 8l8 8l8 8l8 8l8 8l8 8l8 8l8 8l8 8l8 8l8 8l8 8l8 8l8 8l8 8l8 8l8 8l8 8l8 8l8 8l16 -8l8 -16l-8 -16l-16 -16l-16 -16l-16 -16l-16 -16l-16 -16l-16 -16l-16 -16l-16 -16l-16 -16l-16 -16h-16z" />
<glyph unicode="&#xfe;" horiz-adv-x="552" d="M-64 -176l16 8h80v800h-80l-16 8v24l16 8h112q6 0 10 -6q6 -4 6 -10v-272l16 16l16 16l16 16l16 16l16 8l16 8l16 8h112l16 -8l16 -8l16 -8l16 -16l16 -16l16 -16l16 -16l8 -16l8 -16l8 -16l8 -16l8 -16v-144l-8 -16l-8 -16l-8 -16l-8 -16l-8 -16l-16 -16l-16 -16 l-16 -16l-16 -16l-16 -8l-16 -8l-16 -8h-112l-16 8l-16 8l-16 8l-16 16l-16 16l-16 16l-16 16v-248h80l16 -8v-24l-16 -8h-208l-16 8v24zM80 176l8 -16l8 -16l8 -16l8 -16l16 -16l16 -16l16 -16l16 -16l16 -8l16 -8h80l16 8l16 8l16 16l16 16l16 16l16 16l8 16l8 16l8 16 v144l-8 16l-8 16l-8 16l-16 16l-16 16l-16 16l-16 16l-16 8l-16 8h-80l-16 -8l-16 -8l-16 -16l-16 -16l-16 -16l-16 -16l-8 -16l-8 -16l-8 -16l-8 -16v-112z" />
<glyph unicode="&#xff;" horiz-adv-x="720" d="M-16 -160l8 16l8 16l16 8l16 8h16l16 -8l16 -8l8 -16l8 -16v-16l-8 -16l-8 -16l16 -8h32l16 8l16 8l8 8l8 8l8 8l8 16l8 16l8 16l8 16l8 16l8 16l8 16l8 16l8 16l8 16l8 16l8 16l-8 16l-8 16l-8 16l-8 16l-8 16l-8 16l-8 16l-8 16l-8 16l-8 16l-8 16l-8 16l-8 16l-8 16 l-8 16l-8 16l-8 16l-8 16l-8 16l-8 16l-8 16l-8 16l-8 16l-8 16l-8 16l-4 8h-60l-16 8v24l16 8h160l16 -8v-24l-16 -8h-52l4 -8l8 -16l8 -16l8 -16l8 -16l8 -16l8 -16l8 -16l8 -16l8 -16l8 -16l8 -16l8 -16l8 -16l8 -16l8 -16l8 -16l8 -16l8 -16l8 -16l8 -16l8 -16l8 -16 l8 16l8 16l8 16l8 16l8 16l8 16l8 16l8 16l8 16l8 16l8 16l8 16l8 16l8 16l8 16l8 16l8 16l8 16l8 16l8 16l8 16l8 16l4 8h-52l-16 8v24l16 8h160l16 -8v-24l-16 -8h-60l-4 -8l-8 -16l-8 -16l-8 -16l-8 -16l-8 -16l-8 -16l-8 -16l-8 -16l-8 -16l-8 -16l-8 -16l-8 -16l-8 -16 l-8 -16l-8 -16l-8 -16l-8 -16l-8 -16l-8 -16l-8 -16l-8 -16l-8 -16l-8 -16l-8 -16l-8 -16l-8 -16l-8 -16l-8 -16l-8 -16l-8 -16l-8 -16l-8 -16l-8 -16l-8 -16l-8 -16l-8 -16l-8 -16l-8 -16l-16 -16l-16 -16l-16 -8l-16 -8l-16 -8l-16 -8h-48l-16 8l-16 8l-16 8l-16 8l-16 16 l-8 16l-8 16v16zM128 544v16l8 16l8 16l16 8l16 8h16l16 -8l16 -8l8 -16l8 -16v-16l-8 -16l-8 -16l-16 -8l-16 -8h-16l-16 8l-16 8l-8 16zM352 544v16l8 16l8 16l16 8l16 8h16l16 -8l16 -8l8 -16l8 -16v-16l-8 -16l-8 -16l-16 -8l-16 -8h-16l-16 8l-16 8l-8 16z" />
<glyph unicode="&#x152;" horiz-adv-x="1312" d="M656 8v24l16 8h80v592h-80l-16 8v24l16 8h512q6 0 10 -6q6 -4 6 -10v-224l-8 -16h-32l-8 16v200h-352v-256h152v72l8 16h32l8 -16v-192l-8 -16h-32l-8 16v80h-152v-296h352v200l8 16h32l8 -16v-224q0 -8 -6 -12q-4 -4 -10 -4h-512zM0 208v256l8 16l8 16l8 16l8 16l8 16 l8 16l8 16l16 16l16 16l16 16l16 16l16 8l16 8l16 8l16 8l16 8h144l16 -8l16 -8l16 -8l16 -8l16 -8l16 -16l16 -16l16 -16l16 -16l8 -16l8 -16l8 -16l8 -16l8 -16l8 -16l8 -16v-256l-8 -16l-8 -16l-8 -16l-8 -16l-8 -16l-8 -16l-8 -16l-16 -16l-16 -16l-16 -16l-16 -16 l-16 -8l-16 -8l-16 -8l-16 -8l-16 -8h-144l-16 8l-16 8l-16 8l-16 8l-16 8l-16 16l-16 16l-16 16l-16 16l-8 16l-8 16l-8 16l-8 16l-8 16l-8 16zM48 208l8 -16l8 -16l8 -16l8 -16l8 -16l8 -16l8 -8v-2l8 -6l8 -8v-2l8 -6l8 -8l16 -8l16 -8l16 -8l16 -8l16 -8h112l16 8l16 8 l16 8l16 8l16 8l8 8l8 8l8 8l8 8l8 8l8 16l8 16l8 16l8 16l8 16l8 16v256l-8 16l-8 16l-8 16l-8 16l-8 16l-8 16l-8 8l-8 8l-8 8l-8 8l-8 8l-16 8l-16 8l-16 8l-16 8l-16 8h-112l-16 -8l-16 -8l-16 -8l-16 -8l-16 -8l-8 -8h-2l-6 -8l-8 -8h-2l-6 -8l-8 -8l-8 -16l-8 -16 l-8 -16l-8 -16l-8 -16l-8 -16v-256z" />
<glyph unicode="&#x153;" horiz-adv-x="1152" d="M592 176v112l8 16l8 16l8 16l8 16l8 16l16 16l16 16l16 16l16 16l16 8l16 8l16 8l16 8l16 8h80l16 -8l16 -8l16 -8l16 -8l16 -8l16 -16l16 -16l16 -16l16 -16l8 -16l8 -16l8 -16l8 -16l8 -16v-48h-2l-6 -8h-392v-56l8 -16l8 -16l8 -16l16 -16l16 -16l16 -16l16 -16l16 -8 l16 -8l16 -8l16 -8h112l16 8l16 8l16 8l16 8l16 16h16l16 -16v-16l-16 -16l-16 -8l-16 -8l-16 -8l-16 -8l-16 -8h-144l-16 8l-16 8l-16 8l-16 8l-16 8l-16 16l-16 16l-16 16l-16 16l-8 16l-8 16l-8 16l-8 16zM640 272h352v16l-8 16l-8 16l-8 16l-16 16l-16 16l-16 16l-16 16 l-16 8l-16 8l-16 8l-16 8h-48l-16 -8l-16 -8l-16 -8l-16 -8l-16 -16l-16 -16l-16 -16l-16 -16l-8 -16l-8 -16l-8 -16v-16zM0 176v112l8 16l8 16l8 16l8 16l8 16l16 16l16 16l16 16l16 16l16 8l16 8l16 8l16 8l16 8h112l16 -8l16 -8l16 -8l16 -8l16 -8l16 -16l16 -16l16 -16 l16 -16l8 -16l8 -16l8 -16l8 -16l8 -16v-112l-8 -16l-8 -16l-8 -16l-8 -16l-8 -16l-16 -16l-16 -16l-16 -16l-16 -16l-16 -8l-16 -8l-16 -8l-16 -8l-16 -8h-112l-16 8l-16 8l-16 8l-16 8l-16 8l-16 16l-16 16l-16 16l-16 16l-8 16l-8 16l-8 16l-8 16zM48 176l8 -16l8 -16 l8 -16l16 -16l16 -16l16 -16l16 -16l16 -8l16 -8l16 -8l16 -8h80l16 8l16 8l16 8l16 8l16 16l16 16l16 16l16 16l8 16l8 16l8 16v112l-8 16l-8 16l-8 16l-16 16l-16 16l-16 16l-16 16l-16 8l-16 8l-16 8l-16 8h-80l-16 -8l-16 -8l-16 -8l-16 -8l-16 -16l-16 -16l-16 -16 l-16 -16l-8 -16l-8 -16l-8 -16v-112z" />
<glyph unicode="&#x178;" horiz-adv-x="608" d="M0 640v24l16 8h192l16 -8v-24l-16 -8h-76l4 -8l8 -16l8 -16l8 -16l8 -16l8 -16l8 -16l8 -16l8 -16l8 -16l8 -16l8 -16l8 -16l8 -16l8 -16l8 16l8 16l8 16l8 16l8 16l8 16l8 16l8 16l8 16l8 16l8 16l8 16l8 16l8 16l4 8h-76l-16 8v24l16 8h192l16 -8v-24l-16 -8h-68l-4 -8 l-8 -16l-8 -16l-8 -16l-8 -16l-8 -16l-8 -16l-8 -16l-8 -16l-8 -16l-8 -16l-8 -16l-8 -16l-8 -16l-8 -16l-8 -16l-8 -16l-8 -16v-312h176l16 -8v-24l-16 -8h-400l-16 8v24l16 8h176v312l-8 16l-8 16l-8 16l-8 16l-8 16l-8 16l-8 16l-8 16l-8 16l-8 16l-8 16l-8 16l-8 16 l-8 16l-8 16l-8 16l-8 16l-4 8h-68zM80 736v16l8 16l8 16l16 8l16 8h16l16 -8l16 -8l8 -16l8 -16v-16l-8 -16l-8 -16l-16 -8l-16 -8h-16l-16 8l-16 8l-8 16zM320 736v16l8 16l8 16l16 8l16 8h16l16 -8l16 -8l8 -16l8 -16v-16l-8 -16l-8 -16l-16 -8l-16 -8h-16l-16 8l-16 8 l-8 16z" />
<glyph unicode="&#x2c6;" horiz-adv-x="496" d="M0 688v8l8 8l8 8l8 8l8 8l8 8l8 8l8 8l8 8l8 8l8 8l8 8l8 8l8 8l8 8l8 8l8 8l8 8l8 8l8 8l8 8l8 8l8 8l8 8h16l8 -8v-2l8 -6l8 -8v-2l8 -6l8 -8v-2l8 -6l8 -8v-2l8 -6l8 -8v-2l8 -6l8 -8v-2l8 -6l8 -8v-2l8 -6l8 -8v-2l8 -6l8 -8v-2l8 -6l8 -8v-2l8 -6l8 -8v-2l8 -6l8 -8 v-8h-48l-16 16l-16 16l-16 16l-16 16l-16 16l-16 16l-16 16l-16 16l-16 16l-16 -16l-16 -16l-16 -16l-16 -16l-16 -16l-16 -16l-16 -16l-16 -16l-16 -16h-48z" />
<glyph unicode="&#x2dc;" horiz-adv-x="432" d="M-216 154l8 16l8 16l8 16l16 16l16 16l16 8l16 8h80l16 -8l16 -8l16 -16l16 -16l16 -16l16 -16l16 -8h48l16 8l16 8l8 8l8 16l8 16l8 16h32l8 -16l-8 -16l-8 -16l-8 -16l-16 -16l-16 -16l-16 -8l-16 -8h-64l-16 8l-16 8l-16 8l-8 8l-8 8l-8 8l-8 8l-8 8l-8 8l-16 8l-16 8 h-48l-16 -8l-16 -8l-8 -8l-8 -16l-8 -16l-8 -16h-32z" />
<glyph unicode="&#x2000;" horiz-adv-x="448" />
<glyph unicode="&#x2001;" horiz-adv-x="896" />
<glyph unicode="&#x2002;" horiz-adv-x="448" />
<glyph unicode="&#x2003;" horiz-adv-x="896" />
<glyph unicode="&#x2004;" horiz-adv-x="298" />
<glyph unicode="&#x2005;" horiz-adv-x="224" />
<glyph unicode="&#x2006;" horiz-adv-x="148" />
<glyph unicode="&#x2007;" horiz-adv-x="148" />
<glyph unicode="&#x2008;" horiz-adv-x="112" />
<glyph unicode="&#x2009;" horiz-adv-x="178" />
<glyph unicode="&#x200a;" horiz-adv-x="48" />
<glyph unicode="&#x2010;" horiz-adv-x="448" d="M0 320v24l16 8h304l16 -8v-24l-16 -8h-304z" />
<glyph unicode="&#x2011;" horiz-adv-x="448" d="M0 320v24l16 8h304l16 -8v-24l-16 -8h-304z" />
<glyph unicode="&#x2012;" horiz-adv-x="448" d="M0 320v24l16 8h304l16 -8v-24l-16 -8h-304z" />
<glyph unicode="&#x2013;" horiz-adv-x="1024" d="M0 312v40h912v-40h-912z" />
<glyph unicode="&#x2014;" horiz-adv-x="784" d="M0 320v24l16 8h640l16 -8v-24l-16 -8h-640z" />
<glyph unicode="&#x2018;" horiz-adv-x="232" d="M0 592v32l8 16l8 16l8 16l16 16l16 16l16 16l16 8l16 8l16 8v-16l-16 -8l-16 -16l-8 -16l-8 -16v-32l16 -8l16 -8l8 -16l8 -16v-16l-8 -16l-8 -16l-16 -8l-16 -8h-16l-16 8l-16 8l-8 16l-8 16z" />
<glyph unicode="&#x2019;" horiz-adv-x="216" d="M0 520v16l16 8l16 16l8 16l8 16v32l-16 8l-16 8l-8 16l-8 16v16l8 16l8 16l16 8l16 8h16l16 -8l16 -8l8 -16l8 -16l8 -16v-32l-8 -16l-8 -16l-8 -16l-16 -16l-16 -16l-16 -16l-16 -8l-16 -8z" />
<glyph unicode="&#x201a;" horiz-adv-x="232" d="M0 48v16l8 16l8 16l16 8l16 8h16l16 -8l16 -8l8 -16l8 -16l8 -16v-32l-8 -16l-8 -16l-8 -16l-16 -16l-16 -16l-16 -16l-16 -8l-16 -8l-16 -8v16l16 8l16 16l8 16l8 16v32l-16 8l-16 8l-8 16z" />
<glyph unicode="&#x201c;" horiz-adv-x="376" d="M0 592v32l8 16l8 16l8 16l16 16l16 16l16 16l16 8l16 8l16 8v-16l-16 -8l-16 -16l-8 -16l-8 -16v-32l16 -8l16 -8l8 -16l8 -16v-16l-8 -16l-8 -16l-16 -8l-16 -8h-16l-16 8l-16 8l-8 16l-8 16zM144 592v32l8 16l8 16l8 16l16 16l16 16l16 16l16 8l16 8l16 8v-16l-16 -8 l-16 -16l-8 -16l-8 -16v-32l16 -8l16 -8l8 -16l8 -16v-16l-8 -16l-8 -16l-16 -8l-16 -8h-16l-16 8l-16 8l-8 16l-8 16z" />
<glyph unicode="&#x201d;" horiz-adv-x="376" d="M0 520v16l16 8l16 16l8 16l8 16v32l-16 8l-16 8l-8 16l-8 16v16l8 16l8 16l16 8l16 8h16l16 -8l16 -8l8 -16l8 -16l8 -16v-32l-8 -16l-8 -16l-8 -16l-16 -16l-16 -16l-16 -16l-16 -8l-16 -8zM144 520v16l16 8l16 16l8 16l8 16v32l-16 8l-16 8l-8 16l-8 16v16l8 16l8 16 l16 8l16 8h16l16 -8l16 -8l8 -16l8 -16l8 -16v-32l-8 -16l-8 -16l-8 -16l-16 -16l-16 -16l-16 -16l-16 -8l-16 -8z" />
<glyph unicode="&#x201e;" horiz-adv-x="360" d="M0 48v16l8 16l8 16l16 8l16 8h16l16 -8l16 -8l8 -16l8 -16l8 -16v-32l-8 -16l-8 -16l-8 -16l-16 -16l-16 -16l-16 -16l-16 -8l-16 -8l-16 -8v16l16 8l16 16l8 16l8 16v32l-16 8l-16 8l-8 16zM144 48v16l8 16l8 16l16 8l16 8h16l16 -8l16 -8l8 -16l8 -16l8 -16v-32l-8 -16 l-8 -16l-8 -16l-16 -16l-16 -16l-16 -16l-16 -8l-16 -8l-16 -8v16l16 8l16 16l8 16l8 16v32l-16 8l-16 8l-8 16z" />
<glyph unicode="&#x2026;" horiz-adv-x="672" d="M0 48v16l8 16l8 16l16 8l16 8h16l16 -8l16 -8l8 -16l8 -16v-16l-8 -16l-8 -16l-16 -8l-16 -8h-16l-16 8l-16 8l-8 16zM224 48v16l8 16l8 16l16 8l16 8h16l16 -8l16 -8l8 -16l8 -16v-16l-8 -16l-8 -16l-16 -8l-16 -8h-16l-16 8l-16 8l-8 16zM448 48v16l8 16l8 16l16 8 l16 8h16l16 -8l16 -8l8 -16l8 -16v-16l-8 -16l-8 -16l-16 -8l-16 -8h-16l-16 8l-16 8l-8 16z" />
<glyph unicode="&#x202f;" horiz-adv-x="178" />
<glyph unicode="&#x2039;" horiz-adv-x="296" d="M0 336l8 16l16 16l16 16l16 16l16 16l16 16l16 16l16 16l16 16l16 16l16 8l16 -8v-32l-16 -16l-16 -16l-16 -16l-16 -16l-16 -16l-16 -16l-16 -16l-16 -16l16 -16l16 -16l16 -16l16 -16l16 -16l16 -16l16 -16l16 -16v-32l-16 -8l-16 8l-16 16l-16 16l-16 16l-16 16 l-16 16l-16 16l-16 16l-16 16l-16 16z" />
<glyph unicode="&#x203a;" horiz-adv-x="280" d="M0 176v32l16 16l16 16l16 16l16 16l16 16l16 16l16 16l16 16l-16 16l-16 16l-16 16l-16 16l-16 16l-16 16l-16 16l-16 16v32l16 8l16 -8l16 -16l16 -16l16 -16l16 -16l16 -16l16 -16l16 -16l16 -16l16 -16l8 -16l-8 -16l-16 -16l-16 -16l-16 -16l-16 -16l-16 -16l-16 -16 l-16 -16l-16 -16l-16 -16l-16 -8z" />
<glyph unicode="&#x205f;" horiz-adv-x="224" />
<glyph unicode="&#x20ac;" horiz-adv-x="480" d="M-80 272v24l16 8h56v72h-56l-16 8v24l16 8h56v48l8 16l8 16l8 16l8 16l8 16l8 16l8 16l16 16l16 16l16 16l16 16l16 8l16 8l16 8l16 8l16 8h80l16 -8l16 -8l16 -8l16 -8l16 -8l16 -16v-16l-16 -16l-16 8l-16 8l-16 8l-16 8l-16 8l-16 8h-48l-16 -8l-16 -8l-16 -8l-16 -8 l-16 -8l-8 -8h-2l-6 -8l-8 -8h-2l-6 -8l-8 -8l-8 -16l-8 -16l-8 -16l-8 -16l-8 -16l-8 -16v-48h56l16 -8v-24l-16 -8h-56v-72h56l16 -8v-24l-16 -8h-56v-56l8 -16l8 -16l8 -16l8 -16l8 -16l8 -16l8 -8v-2l8 -6l8 -8v-2l8 -6l8 -8l16 -8l16 -8l16 -8l16 -8l16 -8h48l16 8 l16 8l16 8l16 8l16 8l16 8l16 -16v-16l-16 -16l-16 -8l-16 -8l-16 -8l-16 -8l-16 -8h-80l-16 8l-16 8l-16 8l-16 8l-16 8l-16 16l-16 16l-16 16l-16 16l-8 16l-8 16l-8 16l-8 16l-8 16l-8 16l-8 16v56h-56z" />
<glyph unicode="&#x2122;" horiz-adv-x="672" d="M0 576v80l16 8h192l16 -8v-80l-8 -16h-16l-8 16v64h-64v-224h48l16 -8v-8l-16 -8h-128l-16 8v8l16 8h48v224h-64v-64l-8 -16h-16zM240 400v8l16 8h32v224h-32l-16 8v8l16 8h64l16 -8l8 -16l8 -16l8 -16l8 -16l8 -16l8 -16l8 -16l8 -16l8 16l8 16l8 16l8 16l8 16l8 16 l8 16l8 16l16 8h64l16 -8v-8l-16 -8h-32v-224h32l16 -8v-8l-16 -8h-80l-16 8v8l16 8h16v208l-8 -16l-8 -16l-8 -16l-8 -16l-8 -16l-8 -16l-8 -16l-8 -16l-8 -16h-16l-8 16l-8 16l-8 16l-8 16l-8 16l-8 16l-8 16l-8 16l-8 16v-208h16l16 -8v-8l-16 -8h-80z" />
<glyph unicode="&#xe000;" horiz-adv-x="465" d="M0 465h465v-465h-465v465z" />
<glyph unicode="&#xfb01;" horiz-adv-x="640" d="M0 8v24l16 8h80v384h-80l-16 8v24l16 8h80v80l8 16l8 16l8 16l8 16l16 16l16 16l16 8l16 8l16 8l16 8h96l16 -8l16 -8l16 -8l16 -8l16 -16l16 -16l8 -16l8 -16v-16l-8 -16l-8 -16l-16 -8l-16 -8h-16l-16 8l-16 8l-8 16l-8 16v16l8 16l8 16v8l-16 8l-16 8h-64l-16 -8 l-16 -8l-16 -8l-16 -16l-8 -16l-8 -16l-8 -16l-8 -16v-64h80l16 -8v-24l-16 -8h-80v-384h80l16 -8v-24l-16 -8h-208zM256 8v24l16 8h96v384h-96l-16 8v24l16 8h128q6 0 10 -6q6 -4 6 -10v-408h96l16 -8v-24l-16 -8h-240z" />
<glyph unicode="&#xfb02;" horiz-adv-x="784" d="M0 8v24l16 8h80v384h-80l-16 8v24l16 8h80v80l8 16l8 16l8 16l8 16l16 16l16 16l16 8l16 8l16 8l16 8h96l16 -8l16 -8l16 -8l16 -8l16 -16l16 -16l8 -16l8 -16v-16l-8 -16l-8 -16l-16 -8l-16 -8h-16l-16 8l-16 8l-8 16l-8 16v16l8 16l8 16v8l-16 8l-16 8h-64l-16 -8 l-16 -8l-16 -8l-16 -16l-8 -16l-8 -16l-8 -16l-8 -16v-64h80l16 -8v-24l-16 -8h-80v-384h80l16 -8v-24l-16 -8h-208zM400 8v24l16 8h96v592h-96l-16 8v24l16 8h128q6 0 10 -6q6 -4 6 -10v-616h96l16 -8v-24l-16 -8h-240z" />
<glyph unicode="&#xfb03;" horiz-adv-x="1312" d="M896 8v24l16 8h112v384h-112l-16 8v24l16 8h144q6 0 10 -6q6 -4 6 -10v-408h112l16 -8v-24l-16 -8h-272zM992 560v16l8 16l8 16l16 8l16 8h16l16 -8l16 -8l8 -16l8 -16v-16l-8 -16l-8 -16l-16 -8l-16 -8h-16l-16 8l-16 8l-8 16zM448 8v24l16 8h80v384h-80l-16 8v24l16 8 h80v80l8 16l8 16l8 16l8 16l16 16l16 16l16 8l16 8l16 8l16 8h96l16 -8l16 -8l16 -8l16 -8l16 -16l16 -16l8 -16l8 -16v-16l-8 -16l-8 -16l-16 -8l-16 -8h-16l-16 8l-16 8l-8 16l-8 16v16l8 16l8 16v8l-16 8l-16 8h-64l-16 -8l-16 -8l-16 -8l-16 -16l-8 -16l-8 -16l-8 -16 l-8 -16v-64h80l16 -8v-24l-16 -8h-80v-384h80l16 -8v-24l-16 -8h-208zM0 8v24l16 8h80v384h-80l-16 8v24l16 8h80v80l8 16l8 16l8 16l8 16l16 16l16 16l16 8l16 8l16 8l16 8h96l16 -8l16 -8l16 -8l16 -8l16 -16l16 -16l8 -16l8 -16v-16l-8 -16l-8 -16l-16 -8l-16 -8h-16 l-16 8l-16 8l-8 16l-8 16v16l8 16l8 16v8l-16 8l-16 8h-64l-16 -8l-16 -8l-16 -8l-16 -16l-8 -16l-8 -16l-8 -16l-8 -16v-64h80l16 -8v-24l-16 -8h-80v-384h80l16 -8v-24l-16 -8h-208z" />
<glyph unicode="&#xfb04;" horiz-adv-x="1344" d="M864 8v24l16 8h144v592h-144l-16 8v24l16 8h176q6 0 10 -6q6 -4 6 -10v-616h144l16 -8v-24l-16 -8h-336zM448 8v24l16 8h80v384h-80l-16 8v24l16 8h80v80l8 16l8 16l8 16l8 16l16 16l16 16l16 8l16 8l16 8l16 8h96l16 -8l16 -8l16 -8l16 -8l16 -16l16 -16l8 -16l8 -16 v-16l-8 -16l-8 -16l-16 -8l-16 -8h-16l-16 8l-16 8l-8 16l-8 16v16l8 16l8 16v8l-16 8l-16 8h-64l-16 -8l-16 -8l-16 -8l-16 -16l-8 -16l-8 -16l-8 -16l-8 -16v-64h80l16 -8v-24l-16 -8h-80v-384h80l16 -8v-24l-16 -8h-208zM0 8v24l16 8h80v384h-80l-16 8v24l16 8h80v80 l8 16l8 16l8 16l8 16l16 16l16 16l16 8l16 8l16 8l16 8h96l16 -8l16 -8l16 -8l16 -8l16 -16l16 -16l8 -16l8 -16v-16l-8 -16l-8 -16l-16 -8l-16 -8h-16l-16 8l-16 8l-8 16l-8 16v16l8 16l8 16v8l-16 8l-16 8h-64l-16 -8l-16 -8l-16 -8l-16 -16l-8 -16l-8 -16l-8 -16l-8 -16 v-64h80l16 -8v-24l-16 -8h-80v-384h80l16 -8v-24l-16 -8h-208z" />
</font>
</defs>
</svg>
